SplineFontDB: 3.2
FontName: SeriousShannsLight
FullName: Serious Shanns Light
FamilyName: Serious Shanns Light
Weight: Light
Copyright: https://github.com/kaBeech/serious-shanns/blob/main/LICENSE
Version: 6.0.0
ItalicAngle: 0
UnderlinePosition: 0
UnderlineWidth: 0
Ascent: 800
Descent: 200
InvalidEm: 0
sfntRevision: 0x00003333
LayerCount: 2
Layer: 0 0 "Back" 1
Layer: 1 0 "Fore" 0
XUID: [1021 329 -1817886000 12366394]
StyleMap: 0x0040
FSType: 0
OS2Version: 3
OS2_WeightWidthSlopeOnly: 0
OS2_UseTypoMetrics: 0
CreationTime: 1532631502
ModificationTime: 315532800
PfmFamily: 49
TTFWeight: 300
TTFWidth: 5
LineGap: 0
VLineGap: 0
Panose: 0 0 0 0 0 0 0 0 0 0
OS2TypoAscent: 613
OS2TypoAOffset: 0
OS2TypoDescent: -188
OS2TypoDOffset: 0
OS2TypoLinegap: 98
OS2WinAscent: 778
OS2WinAOffset: 0
OS2WinDescent: 308
OS2WinDOffset: 0
HheadAscent: 796
HheadAOffset: 0
HheadDescent: -317
HheadDOffset: 0
OS2SubXSize: 317
OS2SubYSize: 293
OS2SubXOff: 0
OS2SubYOff: 37
OS2SupXSize: 317
OS2SupYSize: 293
OS2SupXOff: 0
OS2SupYOff: 171
OS2StrikeYSize: 0
OS2StrikeYPos: 132
OS2CapHeight: 576
OS2XHeight: 485
OS2Vendor: 'NONE'
OS2CodePages: 00000001.00000000
OS2UnicodeRanges: 00000001.00000000.00000000.00000000
MarkAttachClasses: 1
DEI: 91125
LangName: 1033 "" "" "Normal" "FontForge 2.0 : Serious Shanns Light : 1-1-1980" "" "Version 0.2.0"
Encoding: UnicodeBmp
Compacted: 1
UnicodeInterp: none
NameList: AGL For New Fonts
DisplaySize: -48
AntiAlias: 1
FitToEm: 0
WinInfo: 0 16 7
BeginPrivate: 8
BlueValues 32 [-39 -8 492 523 690 718 765 769]
OtherBlues 11 [-297 -287]
BlueScale 9 0.0333333
BlueShift 2 17
StdHW 4 [67]
StdVW 4 [73]
StemSnapH 4 [67]
StemSnapV 7 [68 73]
EndPrivate
BeginChars: 65537 107

StartChar: .notdef
Encoding: 65536 -1 0
Width: 548
VWidth: 886
GlyphClass: 1
Flags: HMW
HStem: -183.225 28.9<151.575 441.425 151.575 470.325> 635.325 28.9<151.575 441.425 151.575 151.575>
VStem: 122.675 28.9<-154.325 -154.325 -154.325 635.325> 441.425 28.9<-154.325 635.325 635.325 635.325>
LayerCount: 2
Fore
SplineSet
122.674804688 664.224609375 m 1
 470.325195312 664.224609375 l 1
 470.325195312 -183.224609375 l 1
 122.674804688 -183.224609375 l 1
 122.674804688 664.224609375 l 1
151.575195312 -154.325195312 m 1
 441.424804688 -154.325195312 l 1
 441.424804688 635.325195312 l 1
 151.575195312 635.325195312 l 1
 151.575195312 -154.325195312 l 1
EndSplineSet
Validated: 1
EndChar

StartChar: exclam
Encoding: 33 33 2
Width: 548
VWidth: 907
GlyphClass: 2
Flags: HMW
HStem: 44.2735 115.069
VStem: 235.725 121.551 264.625 66.3008 271.425 61.2
LayerCount: 2
Fore
SplineSet
337.724609375 684.646484375 m 0x90
 337.724609375 679.546875 336.591796875 647.815429688 334.325195312 589.44921875 c 0
 332.625 531.08203125 331.775390625 488.865234375 331.775390625 462.797851562 c 0
 331.491210938 449.764648438 331.349609375 437.79296875 331.349609375 426.883789062 c 0
 331.349609375 415.974609375 331.491210938 406.12890625 331.775390625 397.344726562 c 0
 332.341796875 379.778320312 332.625 364.760742188 332.625 352.293945312 c 0x90
 332.625 339.827148438 332.341796875 331.610351562 331.775390625 327.643554688 c 0
 331.01953125 321.977539062 330.641601562 314.172851562 330.641601562 304.228515625 c 0
 330.641601562 299.251953125 330.736328125 293.740234375 330.92578125 287.693359375 c 0xa0
 329.79296875 278.060546875 325.826171875 270.41015625 319.026367188 264.743164062 c 0
 312.79296875 259.076171875 305.142578125 256.243164062 296.076171875 256.243164062 c 2
 293.526367188 256.243164062 l 2
 284.458984375 256.810546875 277.091796875 259.926757812 271.424804688 265.59375 c 0x90
 266.891601562 270.694335938 264.625 277.77734375 264.625 286.84375 c 0xa0
 264.625 292.510742188 265.7578125 302.143554688 268.025390625 315.744140625 c 0
 269.724609375 323.676757812 270.858398438 332.176757812 271.424804688 341.244140625 c 0
 271.9921875 350.310546875 272.275390625 369.578125 272.275390625 399.044921875 c 0
 272.275390625 410.944335938 271.708007812 429.078125 270.575195312 453.444335938 c 0
 269.442382812 480.078125 268.875 509.260742188 268.875 540.994140625 c 0
 269.442382812 564.2265625 270.291992188 597.09375 271.424804688 639.59375 c 0
 271.9921875 661.126953125 272.275390625 675.293945312 272.275390625 682.09375 c 0
 272.841796875 695.126953125 276.2421875 704.759765625 282.474609375 710.993164062 c 0
 288.708007812 717.2265625 296.641601562 720.342773438 306.274414062 720.342773438 c 2
 308.82421875 720.342773438 l 2
 317.32421875 720.342773438 324.124023438 717.79296875 329.224609375 712.693359375 c 0
 334.891601562 707.026367188 337.724609375 697.6796875 337.724609375 684.646484375 c 0x90
341.124023438 64.1455078125 m 0
 330.357421875 53.37890625 315.907226562 46.861328125 297.774414062 44.5947265625 c 0
 295.506835938 44.3818359375 293.293945312 44.2763671875 291.1328125 44.2763671875 c 0
 276.010742188 44.2763671875 263.491210938 49.482421875 253.575195312 59.89453125 c 0
 241.674804688 71.794921875 235.724609375 86.2451171875 235.724609375 103.245117188 c 0
 235.724609375 117.977539062 241.958007812 130.727539062 254.424804688 141.495117188 c 0
 268.591796875 153.39453125 284.458984375 159.344726562 302.026367188 159.344726562 c 0
 317.892578125 159.344726562 330.92578125 154.245117188 341.125976562 144.044921875 c 0
 351.892578125 133.27734375 357.276367188 119.9609375 357.276367188 104.09375 c 0xc0
 357.276367188 88.2265625 351.891601562 74.912109375 341.124023438 64.1455078125 c 0
EndSplineSet
Validated: 1
EndChar

StartChar: quotedbl
Encoding: 34 34 3
Width: 548
VWidth: 941
GlyphClass: 2
Flags: HMW
HStem: 469.674 278.802
VStem: 192.376 71.4 327.528 73.9483
LayerCount: 2
Fore
SplineSet
366.625976562 748.475585938 m 0
 375.125976562 748.475585938 382.776367188 746.493164062 389.576171875 742.526367188 c 0
 392.975585938 740.826171875 395.809570312 737.993164062 398.076171875 734.026367188 c 0
 400.342773438 729.493164062 401.475585938 724.392578125 401.475585938 718.725585938 c 2
 401.475585938 683.026367188 l 2
 401.475585938 666.592773438 400.909179688 636.276367188 399.776367188 592.076171875 c 0
 398.642578125 547.875976562 396.943359375 515.859375 394.67578125 496.026367188 c 0
 393.54296875 487.526367188 389.860351562 481.0078125 383.626953125 476.474609375 c 0
 377.959960938 471.94140625 371.7265625 469.674804688 364.926757812 469.674804688 c 2
 362.376953125 469.674804688 l 2
 353.309570312 470.241210938 344.809570312 473.358398438 336.876953125 479.025390625 c 0
 331.209960938 482.9921875 328.376953125 488.659179688 328.376953125 496.026367188 c 0
 328.943359375 497.159179688 329.2265625 498.576171875 329.2265625 500.276367188 c 0
 330.360351562 521.80859375 330.926757812 548.161132812 330.926757812 579.328125 c 2
 330.926757812 611.625976562 l 2
 329.793945312 656.958984375 328.661132812 694.359375 327.52734375 723.826171875 c 2
 327.52734375 725.52734375 l 2
 327.52734375 730.060546875 328.66015625 734.026367188 330.926757812 737.42578125 c 0
 333.193359375 740.826171875 336.02734375 743.092773438 339.427734375 744.225585938 c 0
 347.360351562 747.625976562 354.727539062 749.328125 361.52734375 749.328125 c 0
 363.794921875 748.760742188 365.493164062 748.475585938 366.625976562 748.475585938 c 0
258.674804688 496.026367188 m 0
 257.541992188 486.958984375 253.860351562 480.44140625 247.626953125 476.474609375 c 0
 240.827148438 471.94140625 234.309570312 469.674804688 228.077148438 469.674804688 c 2
 226.376953125 469.674804688 l 2
 217.309570312 470.241210938 208.809570312 473.358398438 200.876953125 479.025390625 c 0
 195.209960938 482.9921875 192.376953125 488.659179688 192.376953125 496.026367188 c 2
 192.376953125 500.276367188 l 2
 194.077148438 522.943359375 194.926757812 550.42578125 194.926757812 582.725585938 c 0
 194.360351562 591.79296875 194.077148438 601.42578125 194.077148438 611.625976562 c 0
 192.943359375 656.958984375 192.09375 694.359375 191.52734375 723.826171875 c 2
 191.52734375 726.375976562 l 2
 191.52734375 730.342773438 192.376953125 734.026367188 194.077148438 737.42578125 c 0
 196.34375 740.826171875 199.176757812 743.092773438 202.577148438 744.225585938 c 0
 210.34765625 747.140625 218.327148438 748.59765625 226.514648438 748.59765625 c 0
 227.87890625 748.59765625 229.25 748.557617188 230.625976562 748.475585938 c 0
 239.125976562 748.475585938 246.776367188 746.493164062 253.576171875 742.526367188 c 0
 256.409179688 740.826171875 258.958984375 737.993164062 261.225585938 734.026367188 c 0
 263.493164062 729.493164062 264.625976562 724.110351562 264.625976562 717.876953125 c 0
 265.193359375 711.077148438 265.475585938 699.744140625 265.475585938 683.876953125 c 0
 265.475585938 668.009765625 264.909179688 637.693359375 263.776367188 592.92578125 c 0
 262.642578125 548.159179688 260.942382812 515.859375 258.674804688 496.026367188 c 0
EndSplineSet
Validated: 1
EndChar

StartChar: numbersign
Encoding: 35 35 4
Width: 548
VWidth: 904
GlyphClass: 2
Flags: HMW
HStem: 224.2 54.3991 440.948 55.2517 644.952 17G
LayerCount: 2
Fore
SplineSet
262.080078125 440.948242188 m 1
 228.92578125 278.599609375 l 1
 258.958984375 279.166015625 295.796875 279.448242188 339.4296875 279.448242188 c 2
 346.229492188 279.448242188 l 1
 356.4296875 330.448242188 366.346679688 384.28125 375.979492188 440.948242188 c 1
 262.080078125 440.948242188 l 1
225.525390625 224.200195312 m 1
 218.725585938 224.200195312 l 1
 205.692382812 158.466796875 196.625 114.266601562 191.525390625 91.599609375 c 0
 188.125 81.400390625 181.041992188 73.1826171875 170.275390625 66.9501953125 c 0
 163.475585938 62.9833984375 156.958007812 60.9990234375 150.725585938 60.9990234375 c 0
 147.892578125 60.4326171875 145.059570312 60.71484375 142.2265625 61.8486328125 c 0
 134.29296875 63.548828125 128.342773438 69.2158203125 124.375976562 78.849609375 c 0
 122.109375 84.5166015625 120.975585938 90.1826171875 120.975585938 95.849609375 c 0
 120.975585938 101.516601562 121.826171875 107.466796875 123.526367188 113.700195312 c 0
 128.059570312 127.8671875 136.842773438 164.416992188 149.875 223.349609375 c 1
 114.17578125 223.349609375 l 2
 101.142578125 223.349609375 91.7919921875 225.6171875 86.125 230.150390625 c 0
 81.025390625 234.1171875 78.4755859375 239.5 78.4755859375 246.299804688 c 2
 78.4755859375 248 l 2
 79.0419921875 255.3671875 81.5927734375 261.317382812 86.125 265.849609375 c 0
 91.2255859375 271.516601562 100.008789062 274.633789062 112.475585938 275.201171875 c 0
 116.442382812 275.767578125 123.2421875 276.05078125 132.875 276.05078125 c 0
 142.508789062 276.05078125 151.858398438 276.333984375 160.92578125 276.900390625 c 1
 193.225585938 440.100585938 l 1
 183.025390625 440.100585938 l 1
 147.325195312 439.250976562 l 1
 144.775390625 439.250976562 l 2
 134.575195312 438.68359375 126.642578125 440.951171875 120.975585938 446.05078125 c 0
 115.30859375 450.583984375 112.475585938 456.534179688 112.475585938 463.900390625 c 2
 112.475585938 466.451171875 l 2
 112.475585938 473.250976562 115.025390625 479.201171875 120.125 484.30078125 c 0
 125.791992188 489.967773438 134.858398438 493.084960938 147.325195312 493.651367188 c 0
 158.092773438 494.21875 174.526367188 494.501953125 196.625976562 494.501953125 c 2
 203.42578125 494.501953125 l 1
 228.92578125 632.202148438 l 2
 232.893554688 644.1015625 238.560546875 652.318359375 245.926757812 656.8515625 c 0
 251.59375 660.251953125 257.260742188 661.952148438 262.927734375 661.952148438 c 0
 265.1953125 661.952148438 267.745117188 661.668945312 270.578125 661.1015625 c 0
 280.778320312 658.834960938 288.427734375 654.017578125 293.528320312 646.650390625 c 0
 296.361328125 642.118164062 297.778320312 636.451171875 297.778320312 629.650390625 c 0
 298.344726562 625.68359375 298.061523438 621.716796875 296.928710938 617.75 c 2
 272.278320312 496.200195312 l 1
 385.329101562 496.200195312 l 1
 409.12890625 626.25 l 2
 413.095703125 638.150390625 418.762695312 646.3671875 426.129882812 650.900390625 c 0
 431.229492188 654.299804688 436.612304688 656 442.279296875 656 c 0
 445.112304688 655.432617188 448.229492188 654.866210938 451.629882812 654.298828125 c 0
 461.829101562 652.032226562 469.479492188 647.499023438 474.579101562 640.69921875 c 0
 477.413085938 636.732421875 478.829101562 631.631835938 478.829101562 625.399414062 c 0
 478.829101562 621.432617188 478.262695312 616.899414062 477.129882812 611.798828125 c 0
 470.896484375 587.999023438 463.24609375 549.749023438 454.1796875 497.048828125 c 1
 464.379882812 497.048828125 l 1
 473.729492188 497.048828125 l 2
 485.629882812 497.048828125 495.262695312 493.932617188 502.629882812 487.69921875 c 0
 509.99609375 481.465820312 513.963867188 475.233398438 514.530273438 469 c 0
 513.963867188 461.6328125 511.130859375 455.116210938 506.030273438 449.44921875 c 0
 500.930664062 444.349609375 492.713867188 441.515625 481.380859375 440.948242188 c 2
 443.130859375 440.948242188 l 1
 415.930664062 278.599609375 l 1
 460.979492188 278.599609375 l 2
 471.74609375 278.599609375 478.830078125 276.616210938 482.23046875 272.649414062 c 0
 485.630859375 268.682617188 487.61328125 262.732421875 488.180664062 254.798828125 c 0
 488.180664062 245.732421875 486.48046875 238.932617188 483.080078125 234.399414062 c 0
 479.11328125 228.732421875 471.74609375 225.899414062 460.979492188 225.899414062 c 2
 406.579101562 225.899414062 l 1
 394.6796875 157.33203125 386.1796875 111.432617188 381.079101562 88.19921875 c 0
 377.112304688 78.56640625 370.3125 71.19921875 360.6796875 66.099609375 c 0
 354.446289062 62.69921875 348.213867188 60.9990234375 341.98046875 60.9990234375 c 0
 339.147460938 60.4326171875 336.030273438 60.71484375 332.630859375 61.8486328125 c 0
 324.130859375 64.115234375 317.897460938 69.498046875 313.930664062 77.998046875 c 0
 311.663085938 83.0986328125 310.530273438 88.1982421875 310.530273438 93.298828125 c 0
 310.530273438 98.3984375 311.380859375 104.065429688 313.080078125 110.298828125 c 0
 318.747070312 132.96484375 326.680664062 171.21484375 336.880859375 225.048828125 c 1
 326.680664062 225.048828125 l 1
 225.525390625 224.200195312 l 1
EndSplineSet
Validated: 1
EndChar

StartChar: dollar
Encoding: 36 36 5
Width: 548
VWidth: 901
GlyphClass: 2
Flags: HMW
HStem: 35.0083 55.2475 363.956 53.5525 606.206 50.15<325.821 333.473 325.821 333.473>
VStem: 120.124 62.0491 273.123 49.3 273.123 53.5517 425.272 62.8991
LayerCount: 2
Fore
SplineSet
421.448242188 259.833984375 m 0xfa
 418.8984375 269.750976562 414.22265625 280.092773438 407.422851562 290.860351562 c 0
 400.623046875 301.626953125 390.706054688 311.543945312 377.672851562 320.610351562 c 0
 364.639648438 329.110351562 349.33984375 336.760742188 331.7734375 343.560546875 c 2
 322.422851562 347.810546875 l 1
 322.422851562 335.911132812 l 1
 321.572265625 210.110351562 l 2
 321.004882812 163.643554688 320.438476562 127.376953125 319.87109375 101.309570312 c 1
 330.921875 106.40625 l 2
 356.989257812 118.305664062 379.088867188 134.743164062 397.22265625 155.709960938 c 0
 415.921875 176.676757812 425.272460938 200.759765625 425.272460938 227.959960938 c 0
 425.272460938 239.29296875 423.998046875 249.916992188 421.448242188 259.833984375 c 0xfa
205.971679688 449.80859375 m 0
 220.138671875 435.075195312 239.405273438 424.30859375 263.772460938 417.508789062 c 2
 273.123046875 415.80859375 l 1xf6
 273.690429688 461.708007812 273.97265625 519.508789062 273.97265625 589.208007812 c 2
 273.97265625 600.258789062 l 1
 263.772460938 597.708007812 l 2
 240.5390625 589.775390625 221.555664062 577.591796875 206.823242188 561.159179688 c 0
 190.389648438 545.291992188 182.172851562 525.7421875 182.172851562 502.508789062 c 0
 182.172851562 482.109375 190.104492188 464.541015625 205.971679688 449.80859375 c 0
208.5234375 41.8056640625 m 0
 191.5234375 46.3388671875 177.07421875 52.85546875 165.174804688 61.35546875 c 0
 140.807617188 77.22265625 122.958007812 95.6396484375 111.625 116.606445312 c 0
 107.091796875 126.806640625 104.82421875 135.58984375 104.82421875 142.95703125 c 0
 104.82421875 152.58984375 109.357421875 159.672851562 118.424804688 164.206054688 c 0
 124.658203125 167.0390625 129.190429688 168.739257812 132.0234375 169.305664062 c 0
 134.857421875 169.873046875 137.124023438 170.15625 138.82421875 170.15625 c 2
 143.923828125 170.15625 l 2
 147.32421875 170.15625 150.866210938 168.59765625 154.548828125 165.48046875 c 0
 158.232421875 162.364257812 162.33984375 157.40625 166.873046875 150.60546875 c 0
 178.7734375 131.90625 192.65625 117.172851562 208.5234375 106.40625 c 0
 222.690429688 95.638671875 240.5390625 90.255859375 262.072265625 90.255859375 c 2
 263.772460938 90.255859375 l 1
 271.422851562 90.255859375 l 1
 272.555664062 190.555664062 273.123046875 277.823242188 273.123046875 352.055664062 c 2
 273.123046875 359.706054688 l 1
 265.755859375 360.272460938 259.09765625 360.98046875 253.1484375 361.831054688 c 2
 238.2734375 363.956054688 l 2
 220.706054688 366.22265625 204.2734375 371.323242188 188.97265625 379.255859375 c 0
 173.106445312 387.188476562 160.356445312 396.822265625 150.72265625 408.155273438 c 0
 141.08984375 419.48828125 133.58203125 431.530273438 128.19921875 444.280273438 c 0
 122.815429688 457.030273438 120.124023438 469.35546875 120.124023438 481.254882812 c 0
 120.124023438 500.521484375 123.241210938 519.080078125 129.473632812 536.9296875 c 0
 135.70703125 554.780273438 144.7734375 571.35546875 156.673828125 586.655273438 c 0
 168.57421875 601.955078125 184.440429688 615.271484375 204.2734375 626.60546875 c 0
 222.973632812 637.938476562 244.22265625 645.87109375 268.022460938 650.404296875 c 2
 273.123046875 651.25390625 l 1xfa
 274.255859375 669.387695312 274.82421875 688.086914062 274.82421875 707.354492188 c 0
 275.390625 719.821289062 277.515625 729.313476562 281.19921875 735.830078125 c 0
 284.881835938 742.346679688 290.973632812 745.60546875 299.473632812 745.60546875 c 2
 301.173828125 745.60546875 l 2
 310.241210938 746.171875 316.7578125 743.0546875 320.724609375 736.254882812 c 0
 324.69140625 730.021484375 326.674804688 721.239257812 326.674804688 709.90625 c 2
 326.674804688 657.206054688 l 1xf6
 333.47265625 656.35546875 l 2
 344.805664062 655.7890625 360.390625 652.956054688 380.223632812 647.85546875 c 0
 401.756835938 642.755859375 417.907226562 638.22265625 428.673828125 634.255859375 c 0
 437.173828125 631.422851562 443.40625 626.60546875 447.373046875 619.805664062 c 0
 450.7734375 614.138671875 452.473632812 608.471679688 452.473632812 602.8046875 c 0
 452.473632812 601.10546875 452.190429688 599.122070312 451.624023438 596.85546875 c 0
 451.056640625 591.754882812 449.639648438 588.072265625 447.373046875 585.8046875 c 0
 444.540039062 583.538085938 441.564453125 582.262695312 438.447265625 581.98046875 c 0
 435.330078125 581.697265625 432.356445312 581.5546875 429.5234375 581.5546875 c 0
 418.190429688 581.5546875 405.72265625 584.671875 392.123046875 590.905273438 c 0
 384.755859375 594.3046875 376.3984375 597.563476562 367.047851562 600.6796875 c 0
 357.698242188 603.796875 346.505859375 605.638671875 333.47265625 606.206054688 c 2
 325.821289062 606.206054688 l 1
 322.422851562 410.706054688 l 1xfa
 329.22265625 409.005859375 l 2
 352.456054688 406.172851562 373.138671875 400.505859375 391.272460938 392.005859375 c 0
 411.10546875 383.505859375 426.830078125 373.873046875 438.447265625 363.10546875 c 0
 450.064453125 352.338867188 459.838867188 340.013671875 467.772460938 326.130859375 c 0
 475.705078125 312.248046875 481.087890625 298.505859375 483.921875 284.90625 c 0
 486.754882812 271.305664062 488.171875 257.138671875 488.171875 242.40625 c 0
 488.171875 217.47265625 483.779296875 193.814453125 474.99609375 171.431640625 c 0
 466.212890625 149.048828125 454.313476562 129.640625 439.296875 113.20703125 c 0
 424.279296875 96.7744140625 406.571289062 82.607421875 386.171875 70.70703125 c 0
 368.038085938 58.8076171875 347.921875 49.740234375 325.821289062 43.5078125 c 2
 319.87109375 41.8056640625 l 1
 319.87109375 35.857421875 l 2
 320.438476562 2.4248046875 321.004882812 -20.2421875 321.572265625 -32.142578125 c 0
 320.439453125 -42.3427734375 316.897460938 -50.134765625 310.947265625 -55.517578125 c 0
 304.997070312 -60.900390625 297.772460938 -63.5927734375 289.272460938 -63.5927734375 c 2
 288.421875 -63.5927734375 l 1
 287.572265625 -63.5927734375 l 2
 280.772460938 -63.5927734375 275.671875 -61.04296875 272.272460938 -55.9423828125 c 0
 269.439453125 -51.4091796875 268.022460938 -44.892578125 268.022460938 -36.392578125 c 2
 268.022460938 -28.7421875 l 2
 269.155273438 -16.275390625 269.72265625 2.1416015625 269.72265625 26.5087890625 c 2
 269.72265625 35.0087890625 l 1
 262.072265625 35.0087890625 l 1
 258.671875 35.0087890625 l 2
 241.10546875 35.0087890625 224.389648438 37.2724609375 208.5234375 41.8056640625 c 0
EndSplineSet
Validated: 1
EndChar

StartChar: percent
Encoding: 37 37 6
Width: 548
VWidth: 898
GlyphClass: 2
Flags: HMW
HStem: 33.6764 48.45 202.826 45.9275 424.677 46.7492 594.714 45.0139
VStem: 92.9262 45.0508 106.954 58.2241 242.527 39.0983 311.378 41.6517 404.876 59.5008 455.939 44.1384
LayerCount: 2
Fore
SplineSet
362.37890625 99.1259765625 m 0xf340
 369.74609375 88.9267578125 383.0625 83.259765625 402.329101562 82.1259765625 c 2
 404.875976562 82.1259765625 l 2xf380
 420.17578125 82.1259765625 432.221679688 87.3681640625 441.004882812 97.8515625 c 0
 449.787109375 108.334960938 454.74609375 121.79296875 455.87890625 138.225585938 c 2
 455.87890625 139.075195312 l 1
 455.87890625 141.625976562 l 2
 455.918945312 142.880859375 455.939453125 144.1171875 455.939453125 145.334960938 c 0
 455.939453125 161.158203125 452.51953125 173.8046875 445.678710938 183.275390625 c 0
 436.045898438 196.30859375 421.3125 202.825195312 401.479492188 202.825195312 c 0
 386.1796875 202.825195312 374.279296875 196.875976562 365.779296875 184.975585938 c 0
 357.846679688 173.075195312 353.596679688 158.05859375 353.029296875 139.92578125 c 2
 353.029296875 136.525390625 l 2
 352.985351562 135.3046875 352.963867188 134.103515625 352.963867188 132.921875 c 0
 352.963867188 118.759765625 356.1015625 107.495117188 362.37890625 99.1259765625 c 0xf340
349.626953125 48.5517578125 m 0
 336.59375 58.46875 326.959960938 71.076171875 320.7265625 86.3759765625 c 0
 314.494140625 101.676757812 311.37890625 118.109375 311.37890625 135.676757812 c 2
 311.37890625 137.375976562 l 2
 311.37890625 170.243164062 319.595703125 197.018554688 336.028320312 217.701171875 c 0
 352.461914062 238.384765625 376.26171875 248.7265625 407.428710938 248.7265625 c 0
 408.278320312 248.744140625 409.125 248.752929688 409.965820312 248.752929688 c 0
 436.0234375 248.752929688 457.560546875 240.244140625 474.578125 223.2265625 c 0
 483.078125 214.159179688 489.594726562 201.9765625 494.127929688 186.676757812 c 0
 498.094726562 174.776367188 500.078125 161.459960938 500.078125 146.7265625 c 0xf340
 500.078125 143.326171875 499.794921875 138.2265625 499.227539062 131.426757812 c 0
 497.528320312 98.5595703125 488.4609375 73.9091796875 472.028320312 57.4765625 c 0
 455.594726562 41.609375 430.662109375 33.6767578125 397.228515625 33.6767578125 c 2
 394.678710938 33.6767578125 l 2
 377.678710938 33.6767578125 362.66015625 38.634765625 349.626953125 48.5517578125 c 0
148.1796875 489.276367188 m 0
 156.112304688 479.076171875 170.845703125 473.125976562 192.37890625 471.426757812 c 2
 193.228515625 471.426757812 l 2
 208.528320312 471.426757812 220.145507812 476.809570312 228.079101562 487.576171875 c 0
 236.01171875 498.34375 240.544921875 512.2265625 241.677734375 529.2265625 c 0
 242.245117188 530.359375 242.528320312 531.776367188 242.528320312 533.4765625 c 0
 241.9609375 553.309570312 237.427734375 568.326171875 228.927734375 578.526367188 c 0
 219.861328125 589.29296875 207.111328125 594.676757812 190.677734375 594.676757812 c 0
 189.962890625 594.701171875 189.254882812 594.713867188 188.5546875 594.713867188 c 0
 173.142578125 594.713867188 161.100585938 588.750976562 152.427734375 576.826171875 c 0
 144.495117188 565.493164062 139.677734375 550.4765625 137.977539062 531.776367188 c 2
 137.977539062 527.526367188 l 2xfb
 137.9375 526.352539062 137.916992188 525.198242188 137.916992188 524.061523438 c 0
 137.916992188 509.291015625 141.338867188 497.696289062 148.1796875 489.276367188 c 0
197.4765625 214.727539062 m 2
 320.7265625 450.177734375 l 2
 362.09375 529.510742188 390.143554688 586.459960938 404.876953125 621.02734375 c 0
 411.676757812 631.227539062 421.310546875 636.327148438 433.77734375 636.327148438 c 0
 439.444335938 636.327148438 445.111328125 634.91015625 450.778320312 632.077148438 c 0
 459.844726562 627.543945312 464.377929688 621.59375 464.377929688 614.227539062 c 0
 464.377929688 607.994140625 461.546875 600.34375 455.879882812 591.27734375 c 0
 434.346679688 556.709960938 386.461914062 468.59375 312.228515625 326.926757812 c 0
 239.12890625 185.259765625 190.111328125 89.2099609375 165.178710938 38.7763671875 c 0
 155.545898438 21.7763671875 145.62890625 13.2763671875 135.428710938 13.2763671875 c 0
 132.028320312 13.2763671875 127.920898438 14.4091796875 123.103515625 16.6767578125 c 0
 118.287109375 18.943359375 114.461914062 21.91796875 111.62890625 25.6015625 c 0
 108.795898438 29.2841796875 107.237304688 34.1015625 106.954101562 40.0517578125 c 0xf780
 106.9375 40.4013671875 106.9296875 40.7548828125 106.9296875 41.1142578125 c 0
 106.9296875 46.85546875 109.0625 53.7265625 113.329101562 61.7265625 c 0
 125.229492188 86.09375 153.27734375 137.09375 197.4765625 214.727539062 c 2
135.000976562 439.552734375 m 0
 121.118164062 449.46875 110.634765625 462.077148438 103.551757812 477.376953125 c 0
 96.46875 492.677734375 92.9267578125 509.110351562 92.9267578125 526.677734375 c 2
 92.9267578125 528.376953125 l 2xfb
 92.9267578125 561.244140625 101.994140625 588.01953125 120.126953125 608.702148438 c 0
 138.259765625 629.385742188 163.759765625 639.727539062 196.626953125 639.727539062 c 0
 197.40625 639.745117188 198.181640625 639.75390625 198.953125 639.75390625 c 0
 222.849609375 639.75390625 242.756835938 631.245117188 258.67578125 614.227539062 c 0
 266.609375 605.16015625 272.559570312 592.977539062 276.526367188 577.677734375 c 0
 279.92578125 565.77734375 281.625976562 551.89453125 281.625976562 536.02734375 c 0
 281.625976562 496.360351562 273.125976562 467.459960938 256.125976562 449.327148438 c 0
 240.826171875 432.89453125 217.026367188 424.677734375 184.7265625 424.677734375 c 2
 183.026367188 424.677734375 l 2
 164.893554688 424.677734375 148.883789062 429.635742188 135.000976562 439.552734375 c 0
EndSplineSet
Validated: 1
EndChar

StartChar: ampersand
Encoding: 38 38 7
Width: 548
VWidth: 901
GlyphClass: 2
Flags: HMW
HStem: 23.9575 62.9009 607.908 50.2351
VStem: 85.2781 68.0025 158.378 64.6017 358.13 53.6429
LayerCount: 2
Fore
SplineSet
495.825195312 60.5078125 m 2
 495.825195312 53.7080078125 l 2
 494.125976562 40.107421875 490.159179688 31.607421875 483.92578125 28.2080078125 c 0
 480.525390625 25.9404296875 476.55859375 24.8076171875 472.025390625 24.8076171875 c 0
 468.05859375 24.8076171875 463.2421875 26.224609375 457.575195312 29.0576171875 c 0
 446.2421875 34.724609375 436.325195312 44.9248046875 427.825195312 59.6572265625 c 0
 426.125 62.490234375 422.724609375 70.7080078125 417.625 84.3076171875 c 0
 412.524414062 97.9072265625 408.274414062 108.107421875 404.875 114.907226562 c 2
 398.924804688 127.657226562 l 1
 381.357421875 103.291015625 371.158203125 89.4072265625 368.325195312 86.0078125 c 0
 365.4921875 83.1748046875 360.958984375 78.357421875 354.725585938 71.5576171875 c 0
 348.4921875 64.7578125 343.109375 59.6572265625 338.576171875 56.2578125 c 0
 334.04296875 53.4248046875 328.09375 49.4580078125 320.7265625 44.357421875 c 0
 313.926757812 39.2578125 307.126953125 35.57421875 300.326171875 33.3076171875 c 0
 293.526367188 31.041015625 285.59375 29.0576171875 276.526367188 27.357421875 c 0
 266.893554688 25.0908203125 257.260742188 23.9580078125 247.626953125 23.9580078125 c 0
 217.594726562 23.9580078125 190.111328125 31.607421875 165.177734375 46.9072265625 c 0
 140.245117188 62.2080078125 120.6953125 82.607421875 106.528320312 108.107421875 c 0
 92.361328125 134.174804688 85.2783203125 161.94140625 85.2783203125 191.408203125 c 0
 85.2783203125 237.30859375 93.7783203125 276.69140625 110.778320312 309.55859375 c 0
 131.177734375 350.358398438 165.177734375 381.241210938 212.778320312 402.208007812 c 2
 221.278320312 406.458007812 l 1
 212.778320312 420.05859375 204.844726562 432.80859375 197.478515625 444.708007812 c 0
 190.111328125 456.041015625 185.010742188 464.258789062 182.177734375 469.358398438 c 0
 179.344726562 474.458007812 175.9453125 480.69140625 171.978515625 488.05859375 c 0
 168.010742188 495.42578125 165.4609375 501.658203125 164.328125 506.758789062 c 0
 160.361328125 522.05859375 158.377929688 537.075195312 158.377929688 551.80859375 c 0
 158.377929688 561.44140625 159.794921875 570.791015625 162.627929688 579.858398438 c 0
 164.895507812 588.92578125 169.145507812 598.275390625 175.377929688 607.908203125 c 0
 181.611328125 617.541015625 189.260742188 626.041015625 198.328125 633.408203125 c 0
 207.395507812 640.775390625 219.578125 646.725585938 234.877929688 651.258789062 c 0
 249.611328125 655.791015625 266.611328125 658.05859375 285.877929688 658.05859375 c 0
 287.46484375 658.115234375 289.046875 658.142578125 290.622070312 658.142578125 c 0
 304.799804688 658.142578125 318.518554688 655.84765625 331.778320312 651.258789062 c 0
 347.078125 646.158203125 360.677734375 639.075195312 372.578125 630.008789062 c 0
 384.478515625 620.375 394.111328125 608.192382812 401.478515625 593.458984375 c 0
 408.278320312 578.7265625 411.677734375 562.29296875 411.677734375 544.16015625 c 0
 411.741210938 542.14453125 411.772460938 540.150390625 411.772460938 538.17578125 c 0
 411.772460938 522.39453125 409.7578125 507.956054688 405.728515625 494.861328125 c 0
 401.196289062 479.560546875 395.529296875 467.09375 388.728515625 457.4609375 c 0
 381.928710938 447.828125 373.428710938 438.477539062 363.228515625 429.411132812 c 0
 353.029296875 420.34375 343.678710938 412.9765625 335.178710938 407.309570312 c 0
 326.112304688 401.643554688 315.62890625 395.9765625 303.728515625 390.309570312 c 2
 296.079101562 386.909179688 l 1
 300.329101562 379.258789062 l 2
 311.095703125 361.125976562 328.663085938 334.776367188 353.030273438 300.208984375 c 0
 377.396484375 265.642578125 392.979492188 242.975585938 399.780273438 232.208007812 c 2
 407.4296875 219.458007812 l 1
 415.9296875 235.891601562 422.446289062 249.491210938 426.979492188 260.258789062 c 0
 432.080078125 271.025390625 436.046875 279.525390625 438.879882812 285.758789062 c 0
 441.712890625 291.991210938 443.979492188 296.524414062 445.6796875 299.357421875 c 0
 454.747070312 312.958007812 462.963867188 321.174804688 470.331054688 324.0078125 c 0
 472.59765625 324.57421875 475.147460938 324.857421875 477.98046875 324.857421875 c 0
 483.081054688 324.857421875 488.463867188 323.440429688 494.130859375 320.607421875 c 0
 500.930664062 317.774414062 505.180664062 311.541015625 506.880859375 301.908203125 c 0
 507.447265625 299.075195312 507.73046875 296.525390625 507.73046875 294.258789062 c 0
 507.73046875 285.758789062 505.180664062 276.125 500.081054688 265.358398438 c 0
 497.813476562 260.825195312 489.596679688 249.775390625 475.4296875 232.208007812 c 0
 461.262695312 214.641601562 449.36328125 198.491210938 439.729492188 183.758789062 c 2
 437.1796875 179.508789062 l 1
 446.247070312 164.208007812 462.6796875 135.591796875 486.479492188 93.658203125 c 0
 492.712890625 83.4580078125 495.825195312 72.4072265625 495.825195312 60.5078125 c 2
222.979492188 537.358398438 m 0
 222.979492188 522.05859375 226.946289062 505.341796875 234.879882812 487.208007812 c 0
 243.379882812 469.641601562 253.296875 454.05859375 264.629882812 440.458007812 c 2
 268.030273438 436.208007812 l 1
 273.129882812 437.908203125 l 2
 286.163085938 441.875 297.212890625 446.125 306.280273438 450.658203125 c 0
 315.346679688 455.19140625 324.129882812 461.141601562 332.629882812 468.508789062 c 0
 341.129882812 475.875 347.36328125 485.225585938 351.330078125 496.55859375 c 0
 355.86328125 507.325195312 358.129882812 520.075195312 358.129882812 534.80859375 c 0
 358.129882812 558.608398438 350.762695312 576.741210938 336.030273438 589.208007812 c 0
 321.296875 601.67578125 304.013671875 607.908203125 284.180664062 607.908203125 c 0
 261.513671875 607.908203125 245.081054688 600.258789062 234.880859375 584.958007812 c 0
 226.947265625 573.05859375 222.979492188 557.19140625 222.979492188 537.358398438 c 0
153.280273438 199.05859375 m 0
 153.280273438 167.325195312 162.063476562 140.975585938 179.630859375 120.008789062 c 0
 197.197265625 97.908203125 220.147460938 86.8583984375 248.48046875 86.8583984375 c 0
 263.213867188 87.42578125 278.513671875 90.2587890625 294.380859375 95.3583984375 c 0
 300.047851562 97.05859375 305.998046875 100.17578125 312.23046875 104.708007812 c 0
 319.030273438 108.67578125 324.130859375 112.075195312 327.530273438 114.908203125 c 0
 330.930664062 117.741210938 335.180664062 121.991210938 340.280273438 127.658203125 c 0
 345.380859375 133.325195312 348.780273438 137.291992188 350.48046875 139.559570312 c 0
 352.748046875 141.258789062 355.864257812 145.2265625 359.831054688 151.458984375 c 0
 363.798828125 157.692382812 367.198242188 162.508789062 370.03125 165.909179688 c 1
 358.131835938 191.409179688 348.78125 210.392578125 341.981445312 222.859375 c 0
 334.614257812 236.458984375 320.731445312 257.9921875 300.331054688 287.458984375 c 0
 279.931640625 316.92578125 264.064453125 340.7265625 252.731445312 358.859375 c 1
 245.931640625 356.309570312 l 2
 228.364257812 347.809570312 213.34765625 337.892578125 200.880859375 326.559570312 c 0
 187.84765625 315.2265625 177.930664062 302.4765625 171.130859375 288.309570312 c 0
 164.897460938 274.142578125 160.364257812 259.975585938 157.53125 245.80859375 c 0
 154.698242188 231.641601562 153.280273438 216.05859375 153.280273438 199.05859375 c 0
EndSplineSet
Validated: 1
EndChar

StartChar: quotesingle
Encoding: 39 39 8
Width: 548
VWidth: 941
GlyphClass: 2
Flags: HMW
HStem: 479.034 261.057
VStem: 260.376 71.4
LayerCount: 2
Fore
SplineSet
326.674804688 505.384765625 m 0
 325.541992188 496.317382812 321.860351562 489.517578125 315.626953125 484.984375 c 0
 309.393554688 481.017578125 302.876953125 479.034179688 296.077148438 479.034179688 c 2
 294.376953125 479.034179688 l 2
 284.744140625 479.6015625 276.244140625 482.71875 268.876953125 488.385742188 c 0
 263.209960938 492.91796875 260.376953125 498.868164062 260.376953125 506.235351562 c 2
 260.376953125 508.78515625 l 1
 260.376953125 509.635742188 l 2
 261.946289062 533.174804688 262.731445312 560.395507812 262.731445312 591.298828125 c 0
 262.731445312 627.349609375 261.663085938 668.412109375 259.52734375 714.485351562 c 2
 259.52734375 716.185546875 l 2
 259.52734375 720.71875 260.376953125 724.685546875 262.077148438 728.084960938 c 0
 264.34375 731.485351562 267.176757812 733.751953125 270.577148438 734.885742188 c 0
 278.509765625 738.35546875 286.659179688 740.091796875 295.026367188 740.091796875 c 0
 296.221679688 740.091796875 297.421875 740.055664062 298.625976562 739.985351562 c 0
 307.125976562 739.41796875 314.776367188 737.151367188 321.576171875 733.184570312 c 0
 324.975585938 731.484375 327.809570312 728.651367188 330.076171875 724.684570312 c 0
 331.776367188 720.717773438 332.625976562 715.333984375 332.625976562 708.534179688 c 0
 333.193359375 701.734375 333.475585938 690.684570312 333.475585938 675.384765625 c 0
 333.475585938 660.083984375 332.909179688 632.884765625 331.776367188 593.784179688 c 0
 330.642578125 554.684570312 328.942382812 525.217773438 326.674804688 505.384765625 c 0
EndSplineSet
Validated: 1
EndChar

StartChar: parenleft
Encoding: 40 40 9
Width: 548
VWidth: 901
GlyphClass: 2
Flags: HMW
HStem: -52.55 55.2491 682.7 51.85<380.781 392.114>
VStem: 177.792 66.4232
LayerCount: 2
Fore
SplineSet
414.213867188 -27.900390625 m 0
 414.213867188 -34.7001953125 411.380859375 -40.3671875 405.713867188 -44.900390625 c 0
 400.614257812 -50 394.947265625 -52.5498046875 388.713867188 -52.5498046875 c 0
 352.447265625 -51.9833984375 319.580078125 -38.666015625 290.11328125 -12.599609375 c 0
 260.646484375 13.4677734375 236.563476562 50.017578125 217.86328125 97.05078125 c 0
 199.163085938 144.650390625 186.696289062 199.333984375 180.462890625 261.100585938 c 0
 178.763671875 278.100585938 177.913085938 299.350585938 177.913085938 324.850585938 c 0
 177.83203125 328.495117188 177.791015625 332.271484375 177.791015625 336.181640625 c 0
 177.791015625 359.633789062 179.249023438 387.874023438 182.163085938 420.900390625 c 0
 188.396484375 486.633789062 199.446289062 540.466796875 215.313476562 582.400390625 c 0
 222.11328125 601.099609375 231.462890625 619.233398438 243.36328125 636.799804688 c 0
 255.263671875 654.3671875 268.86328125 670.516601562 284.163085938 685.25 c 0
 298.896484375 699.983398438 315.61328125 711.8828125 334.313476562 720.950195312 c 0
 353.580078125 730.016601562 371.997070312 734.549804688 389.564453125 734.549804688 c 0
 398.064453125 734.549804688 404.296875 732.849609375 408.263671875 729.450195312 c 0
 412.796875 725.483398438 415.064453125 718.682617188 415.064453125 709.049804688 c 0
 415.064453125 699.416992188 412.796875 692.6171875 408.263671875 688.650390625 c 0
 403.1640625 684.682617188 396.364257812 682.700195312 387.864257812 682.700195312 c 0
 371.430664062 682.700195312 356.130859375 677.8828125 341.963867188 668.25 c 0
 328.364257812 659.182617188 316.463867188 646.715820312 306.263671875 630.849609375 c 0
 286.430664062 601.381835938 271.698242188 565.399414062 262.065429688 522.899414062 c 0
 254.698242188 493.432617188 249.59765625 452.631835938 246.764648438 400.499023438 c 0
 245.065429688 373.866210938 244.21484375 350.06640625 244.21484375 329.099609375 c 0
 244.782226562 307.56640625 245.631835938 288.866210938 246.764648438 272.999023438 c 0
 249.59765625 238.432617188 255.831054688 204.432617188 265.463867188 170.999023438 c 0
 274.53125 137.56640625 285.581054688 108.94921875 298.614257812 85.1494140625 c 0
 311.081054688 60.7822265625 325.248046875 40.94921875 341.115234375 25.6494140625 c 0
 357.547851562 10.349609375 373.415039062 2.69921875 388.71484375 2.69921875 c 0
 397.21484375 2.69921875 403.732421875 0.7158203125 408.264648438 -3.2509765625 c 0
 412.232421875 -7.2177734375 414.213867188 -15.4326171875 414.213867188 -27.900390625 c 0
EndSplineSet
Validated: 1
EndChar

StartChar: parenright
Encoding: 41 41 10
Width: 548
VWidth: 901
GlyphClass: 2
Flags: HMW
HStem: -52.5499 55.2508 682.701 51.85
VStem: 348.755 66.3
LayerCount: 2
Fore
SplineSet
412.505859375 261.099609375 m 0
 406.2734375 199.333007812 393.805664062 144.650390625 375.106445312 97.0498046875 c 0
 356.40625 50.0166015625 332.323242188 13.466796875 302.856445312 -12.599609375 c 0
 272.823242188 -39.2333984375 239.956054688 -52.5498046875 204.255859375 -52.5498046875 c 0
 198.588867188 -51.9833984375 192.921875 -49.4326171875 187.254882812 -44.900390625 c 0
 181.022460938 -40.3671875 177.905273438 -34.7001953125 177.905273438 -27.900390625 c 0
 177.905273438 -15.4326171875 180.171875 -7.2158203125 184.705078125 -3.2490234375 c 0
 188.671875 0.7177734375 195.189453125 2.701171875 204.255859375 2.701171875 c 0
 219.555664062 2.701171875 235.138671875 10.3505859375 251.005859375 25.6513671875 c 0
 266.873046875 41.517578125 281.323242188 61.3505859375 294.356445312 85.1513671875 c 0
 306.823242188 108.951171875 317.873046875 137.567382812 327.505859375 171.000976562 c 0
 337.138671875 204.43359375 343.372070312 238.43359375 346.205078125 273.000976562 c 0
 347.905273438 290.000976562 348.754882812 308.984375 348.754882812 329.951171875 c 0
 348.754882812 350.91796875 347.905273438 374.434570312 346.205078125 400.501953125 c 0
 343.372070312 452.068359375 338.272460938 492.869140625 330.905273438 522.901367188 c 0
 320.705078125 565.401367188 305.971679688 601.668945312 286.705078125 631.702148438 c 0
 277.072265625 646.434570312 265.171875 658.618164062 251.004882812 668.250976562 c 0
 236.837890625 677.883789062 221.821289062 682.701171875 205.954101562 682.701171875 c 0
 197.454101562 682.701171875 190.37109375 684.68359375 184.704101562 688.651367188 c 0
 180.170898438 692.05078125 177.904296875 698.567382812 177.904296875 708.201171875 c 0
 177.337890625 714.43359375 177.904296875 719.250976562 179.604492188 722.651367188 c 0
 181.3046875 726.618164062 183.287109375 729.16796875 185.5546875 730.30078125 c 0
 190.654296875 733.133789062 196.604492188 734.55078125 203.404296875 734.55078125 c 0
 222.104492188 734.55078125 240.521484375 730.017578125 258.654296875 720.951171875 c 0
 276.787109375 711.883789062 293.50390625 699.984375 308.8046875 685.250976562 c 0
 324.104492188 670.517578125 337.704101562 654.368164062 349.604492188 636.80078125 c 0
 361.50390625 618.66796875 370.854492188 600.53515625 377.654296875 582.401367188 c 0
 393.521484375 540.46875 404.288085938 486.635742188 409.955078125 420.90234375 c 0
 413.35546875 382.369140625 415.055664062 350.352539062 415.055664062 324.852539062 c 0
 415.055664062 299.352539062 414.206054688 278.099609375 412.505859375 261.099609375 c 0
EndSplineSet
Validated: 1
EndChar

StartChar: asterisk
Encoding: 42 42 11
Width: 548
VWidth: 902
GlyphClass: 2
Flags: HMW
HStem: 309.609 71.4<121.257 123.525 120.975 137.974> 320.658 48.4492 320.658 59.4991
VStem: 353.025 61.1958
LayerCount: 2
Fore
SplineSet
405.724609375 164.258789062 m 0x50
 400.625 160.859375 394.106445312 159.442382812 386.173828125 160.008789062 c 0
 378.806640625 160.008789062 372.006835938 161.42578125 365.7734375 164.258789062 c 0
 359.541015625 167.092773438 355.291015625 171.625 353.0234375 177.858398438 c 0
 345.657226562 201.658203125 330.639648438 235.091796875 307.97265625 278.158203125 c 2
 300.323242188 292.608398438 l 1
 293.522460938 278.158203125 l 2
 266.323242188 224.891601562 249.606445312 189.758789062 243.373046875 172.758789062 c 0
 241.672851562 168.225585938 238.83984375 164.541992188 234.873046875 161.708984375 c 0
 230.90625 159.442382812 226.373046875 158.025390625 221.272460938 157.458007812 c 2
 217.022460938 157.458007812 l 2
 206.823242188 157.458007812 198.323242188 159.44140625 191.522460938 163.408203125 c 0
 188.123046875 165.108398438 185.005859375 168.225585938 182.172851562 172.758789062 c 0
 179.33984375 177.858398438 177.356445312 183.525390625 176.223632812 189.758789062 c 2
 176.223632812 192.30859375 l 2
 176.223632812 197.975585938 177.640625 203.642578125 180.473632812 209.309570312 c 2
 245.07421875 314.708984375 l 1
 188.407226562 311.309570312 149.0234375 309.609375 126.923828125 309.609375 c 0
 115.590820312 309.609375 106.807617188 313.291992188 100.57421875 320.659179688 c 0
 94.341796875 327.458984375 91.224609375 335.109375 91.224609375 343.609375 c 2
 91.224609375 346.159179688 l 2
 91.224609375 354.659179688 93.4912109375 362.592773438 98.0244140625 369.958984375 c 0
 100.291015625 373.92578125 103.408203125 376.758789062 107.375 378.458984375 c 0
 111.908203125 380.159179688 116.44140625 381.008789062 120.974609375 381.008789062 c 2
 123.524414062 381.008789062 l 2x90
 149.591796875 378.7421875 193.224609375 375.625 254.424804688 371.658203125 c 1
 246.774414062 385.258789062 l 2
 222.407226562 426.625 202.291015625 458.358398438 186.423828125 480.458007812 c 0
 180.756835938 490.091796875 177.923828125 499.44140625 177.923828125 508.508789062 c 2
 177.923828125 513.608398438 l 2
 179.056640625 522.67578125 182.740234375 528.625 188.97265625 531.458007812 c 1
 188.97265625 532.30859375 l 1
 193.505859375 535.141601562 198.888671875 536.55859375 205.122070312 536.55859375 c 0
 211.35546875 537.125 217.872070312 535.42578125 224.671875 531.458007812 c 0
 231.471679688 527.491210938 236.572265625 521.82421875 239.971679688 514.458007812 c 0
 246.205078125 500.291015625 265.188476562 463.173828125 296.920898438 403.106445312 c 1
 303.721679688 415.856445312 l 2
 326.388671875 454.95703125 343.670898438 487.540039062 355.571289062 513.606445312 c 0
 358.971679688 520.407226562 363.788085938 525.790039062 370.021484375 529.756835938 c 0
 375.9140625 533.587890625 381.654296875 535.502929688 387.241210938 535.502929688 c 0
 392.3984375 535.502929688 397.42578125 533.87109375 402.321289062 530.606445312 c 0
 406.288085938 528.33984375 409.688476562 524.939453125 412.521484375 520.407226562 c 0
 415.354492188 515.874023438 416.771484375 509.923828125 416.771484375 502.556640625 c 0
 416.771484375 495.189453125 414.50390625 488.106445312 409.971679688 481.306640625 c 0
 391.837890625 454.673828125 371.721679688 421.5234375 349.62109375 381.856445312 c 2
 342.821289062 369.106445312 l 1
 357.271484375 369.106445312 l 2x50
 407.704101562 369.106445312 443.6875 372.223632812 465.220703125 378.45703125 c 0
 468.053710938 379.58984375 470.88671875 380.157226562 473.719726562 380.157226562 c 0
 479.953125 380.157226562 485.3359375 378.173828125 489.869140625 374.20703125 c 0
 497.235351562 367.407226562 501.203125 360.323242188 501.76953125 352.95703125 c 0
 501.76953125 348.423828125 501.203125 343.890625 500.069335938 339.357421875 c 0
 497.236328125 328.590820312 492.703125 321.5078125 486.470703125 318.107421875 c 0
 484.203125 316.974609375 481.936523438 316.407226562 479.669921875 316.407226562 c 0
 476.836914062 315.840820312 474.569335938 315.840820312 472.869140625 316.407226562 c 0
 458.13671875 319.240234375 432.069335938 320.657226562 394.669921875 320.657226562 c 0x30
 389.00390625 320.94140625 381.920898438 321.083007812 373.420898438 321.083007812 c 0
 364.920898438 321.083007812 355.00390625 320.94140625 343.670898438 320.657226562 c 1
 408.270507812 210.157226562 l 2
 412.803710938 200.524414062 415.0703125 192.024414062 415.0703125 184.657226562 c 0
 414.50390625 183.524414062 414.220703125 182.107421875 414.220703125 180.407226562 c 0
 413.653320312 172.474609375 410.82421875 167.092773438 405.724609375 164.258789062 c 0x50
EndSplineSet
Validated: 1
EndChar

StartChar: plus
Encoding: 43 43 12
Width: 548
VWidth: 909
GlyphClass: 2
Flags: HMW
HStem: 371.876 54.3991
VStem: 268.873 52.7025
LayerCount: 2
Fore
SplineSet
175.375 371.025390625 m 2
 163.474609375 371.025390625 154.974609375 373.858398438 149.875 379.525390625 c 0
 144.208007812 384.625 141.375 391.141601562 141.375 399.075195312 c 2
 141.375 401.625 l 2
 141.942382812 408.9921875 144.4921875 415.224609375 149.025390625 420.325195312 c 0
 154.125 425.424804688 161.775390625 427.974609375 171.974609375 427.974609375 c 2
 174.525390625 427.974609375 l 2
 214.7578125 426.841796875 243.655273438 426.275390625 261.22265625 426.275390625 c 2
 268.873046875 426.275390625 l 1
 268.873046875 434.775390625 l 2
 268.873046875 463.108398438 268.30859375 493.708007812 267.174804688 526.575195312 c 2
 267.174804688 529.974609375 l 2
 267.174804688 539.041992188 269.724609375 545.55859375 274.825195312 549.526367188 c 0
 279.358398438 552.92578125 286.158203125 554.625976562 295.224609375 554.625976562 c 2
 298.625 554.625976562 l 2
 306.55859375 554.625976562 313.075195312 552.92578125 318.174804688 549.526367188 c 0
 322.141601562 546.692382812 324.125 540.743164062 324.125 531.67578125 c 2
 324.125 527.42578125 l 2
 322.424804688 494.55859375 321.575195312 463.109375 321.575195312 433.076171875 c 2
 321.575195312 425.42578125 l 1
 423.575195312 425.42578125 l 2
 434.341796875 425.42578125 441.424804688 423.442382812 444.825195312 419.475585938 c 0
 448.791992188 414.942382812 451.05859375 408.9921875 451.625976562 401.625 c 0
 451.05859375 397.091796875 450.4921875 393.125976562 449.924804688 389.725585938 c 0
 449.358398438 386.326171875 447.94140625 382.924804688 445.673828125 379.525390625 c 0
 442.840820312 374.9921875 436.891601562 372.725585938 427.82421875 372.725585938 c 2
 424.423828125 372.725585938 l 2
 414.791015625 373.859375 401.19140625 374.42578125 383.624023438 374.42578125 c 0
 366.624023438 374.42578125 345.657226562 374.142578125 320.724609375 373.576171875 c 1
 320.724609375 365.076171875 l 1
 320.724609375 310.67578125 l 2
 321.291015625 289.708984375 321.575195312 276.958984375 321.575195312 272.42578125 c 0
 321.0078125 262.225585938 318.740234375 255.142578125 314.7734375 251.17578125 c 0
 310.806640625 247.208984375 305.139648438 244.942382812 297.772460938 244.375 c 0
 288.706054688 244.942382812 281.905273438 246.924804688 277.373046875 250.325195312 c 0
 271.706054688 254.291992188 268.873046875 261.659179688 268.873046875 272.42578125 c 2
 268.873046875 371.875976562 l 1
 261.22265625 371.875976562 l 1
 175.375 371.025390625 l 2
EndSplineSet
Validated: 1
EndChar

StartChar: comma
Encoding: 44 44 13
Width: 548
VWidth: 845
GlyphClass: 2
Flags: HMW
VStem: 217.875 158.098
LayerCount: 2
Fore
SplineSet
248.474609375 -180.900390625 m 0
 238.274414062 -180.900390625 230.057617188 -177.783203125 223.825195312 -171.549804688 c 0
 220.424804688 -167.583007812 218.44140625 -162.765625 217.875 -157.098632812 c 0
 217.307617188 -155.965820312 217.024414062 -155.116210938 217.024414062 -154.548828125 c 0
 217.591796875 -151.149414062 219.575195312 -146.048828125 222.974609375 -139.249023438 c 0
 234.875 -122.249023438 251.307617188 -84.56640625 272.274414062 -26.19921875 c 0
 293.807617188 32.16796875 306.840820312 72.9677734375 311.374023438 96.201171875 c 0
 312.506835938 101.868164062 315.33984375 106.401367188 319.873046875 109.80078125 c 0
 324.973632812 113.201171875 330.073242188 114.901367188 335.172851562 114.901367188 c 2
 336.873046875 114.901367188 l 2
 342.540039062 114.901367188 347.922851562 114.333984375 353.0234375 113.201171875 c 0
 360.389648438 110.93359375 366.33984375 106.68359375 370.873046875 100.451171875 c 0
 374.2734375 96.484375 375.973632812 91.3837890625 375.973632812 85.1513671875 c 0
 375.973632812 84.017578125 375.690429688 81.7509765625 375.123046875 78.3505859375 c 0
 369.456054688 50.583984375 357.2734375 8.083984375 338.573242188 -49.1494140625 c 0
 328.373046875 -80.8818359375 319.873046875 -104.96484375 313.073242188 -121.3984375 c 0
 305.706054688 -137.265625 300.0390625 -148.032226562 296.072265625 -153.69921875 c 0
 288.139648438 -164.465820312 277.939453125 -172.116210938 265.47265625 -176.649414062 c 0
 258.671875 -179.482421875 253.0078125 -180.900390625 248.474609375 -180.900390625 c 0
EndSplineSet
Validated: 1
EndChar

StartChar: hyphen
Encoding: 45 45 14
Width: 548
VWidth: 893
GlyphClass: 2
Flags: HMW
HStem: 257.325 57.8<201.723 211.64> 263.275 51.85
VStem: 173.673 245.652
LayerCount: 2
Fore
SplineSet
173.674804688 289.625 m 2x60
 173.674804688 299.2578125 176.224609375 306.057617188 181.325195312 310.025390625 c 0
 185.291992188 313.424804688 191.524414062 315.125 200.024414062 315.125 c 0
 232.325195312 315.125 270.857421875 315.408203125 315.625 315.974609375 c 0
 360.391601562 317.108398438 385.891601562 317.674804688 392.125 317.674804688 c 0
 402.891601562 317.674804688 409.974609375 315.692382812 413.375 311.724609375 c 0
 416.774414062 307.192382812 418.7578125 301.2421875 419.325195312 293.875 c 0
 419.325195312 284.807617188 417.625 278.0078125 414.224609375 273.474609375 c 0
 410.2578125 267.807617188 402.890625 264.974609375 392.124023438 264.974609375 c 0
 384.756835938 264.974609375 356.139648438 263.841796875 306.2734375 261.575195312 c 0
 256.40625 258.7421875 221.556640625 257.325195312 201.723632812 257.325195312 c 0xa0
 192.65625 257.891601562 185.856445312 259.875 181.323242188 263.275390625 c 0
 176.223632812 267.807617188 173.672851562 275.458007812 173.672851562 286.224609375 c 2
 173.674804688 289.625 l 2x60
EndSplineSet
Validated: 1
EndChar

StartChar: period
Encoding: 46 46 15
Width: 548
VWidth: 859
GlyphClass: 2
Flags: HMW
HStem: 6.05 113.945
VStem: 235.726 121.551
LayerCount: 2
Fore
SplineSet
297.775390625 6.0498046875 m 2
 290.125 6.0498046875 l 2
 289.348632812 6.0205078125 288.580078125 6.0048828125 287.819335938 6.0048828125 c 0
 274.116210938 6.0048828125 262.702148438 10.8369140625 253.576171875 20.5 c 0
 241.67578125 32.966796875 235.725585938 47.4169921875 235.725585938 63.849609375 c 0
 235.725585938 78.5830078125 241.958984375 91.3330078125 254.42578125 102.099609375 c 0
 268.592773438 114 284.459960938 119.950195312 302.02734375 119.950195312 c 0
 302.862304688 119.979492188 303.689453125 119.995117188 304.509765625 119.995117188 c 0
 319.258789062 119.995117188 331.463867188 115.163085938 341.126953125 105.5 c 0
 351.893554688 94.7333984375 357.27734375 81.416015625 357.27734375 65.548828125 c 0
 357.27734375 49.6826171875 351.893554688 36.365234375 341.126953125 25.5986328125 c 0
 330.926757812 14.8310546875 316.475585938 8.3173828125 297.775390625 6.0498046875 c 2
EndSplineSet
Validated: 1
EndChar

StartChar: slash
Encoding: 47 47 16
Width: 548
VWidth: 901
GlyphClass: 2
Flags: W
LayerCount: 2
Fore
SplineSet
92 44.25 m 0
 92 56.150390625 95.1171875 66.9169921875 101.349609375 76.5498046875 c 0
 184.083007812 212.549804688 254.916015625 333.533203125 313.849609375 439.5 c 0
 351.249023438 504.666992188 390.631835938 578.6171875 431.999023438 661.349609375 c 0
 435.965820312 668.716796875 441.06640625 674.383789062 447.298828125 678.350585938 c 0
 453.532226562 682.317382812 459.482421875 684.30078125 465.149414062 684.30078125 c 0
 471.381835938 684.30078125 477.899414062 682.883789062 484.69921875 680.05078125 c 0
 492.06640625 675.517578125 496.8828125 669.284179688 499.150390625 661.3515625 c 0
 499.716796875 659.651367188 500 657.384765625 500 654.551757812 c 0
 500 650.584960938 498.016601562 642.651367188 494.049804688 630.751953125 c 0
 479.317382812 601.284179688 437.950195312 530.16796875 369.950195312 417.400390625 c 0
 301.950195312 304.633789062 260.583007812 234.3671875 245.849609375 206.599609375 c 0
 239.049804688 193.56640625 224.317382812 163.81640625 201.650390625 117.349609375 c 0
 181.25 75.9833984375 168.5 50.765625 163.400390625 41.69921875 c 0
 155.466796875 27.5322265625 145.266601562 17.615234375 132.799804688 11.9482421875 c 0
 127.1328125 9.115234375 122.033203125 7.6982421875 117.5 7.6982421875 c 0
 112.400390625 7.6982421875 107.8671875 9.115234375 103.900390625 11.9482421875 c 0
 97.6669921875 15.3486328125 93.984375 23.5654296875 92.8505859375 36.5986328125 c 0
 92.2841796875 39.431640625 92 41.9833984375 92 44.25 c 0
EndSplineSet
Validated: 1
EndChar

StartChar: zero
Encoding: 48 48 17
Width: 548
VWidth: 901
GlyphClass: 2
Flags: HMW
HStem: 39.2268 55.2508 601.078 52.6992
VStem: 113.303 67.15 415.904 63.7483
LayerCount: 2
Fore
SplineSet
114.150390625 384.325195312 m 0
 114.716796875 407.55859375 116.133789062 427.532226562 118.401367188 444.249023438 c 0
 120.66796875 460.965820312 123.78515625 478.958007812 127.751953125 498.225585938 c 0
 131.71875 517.4921875 136.251953125 534.4921875 141.3515625 549.225585938 c 0
 154.384765625 583.791992188 176.485351562 609.859375 207.65234375 627.42578125 c 0
 235.985351562 644.993164062 270.551757812 653.776367188 311.3515625 653.776367188 c 0
 331.184570312 653.776367188 349.884765625 650.092773438 367.452148438 642.725585938 c 0
 386.15234375 635.359375 403.15234375 624.451171875 418.452148438 610.000976562 c 0
 433.751953125 595.55078125 446.501953125 576.42578125 456.702148438 552.625976562 c 0
 466.90234375 528.826171875 473.418945312 501.625976562 476.251953125 471.026367188 c 0
 478.518554688 437.026367188 479.65234375 399.909179688 479.65234375 359.67578125 c 0
 479.65234375 329.076171875 478.66015625 296.91796875 476.676757812 263.201171875 c 0
 474.694335938 229.484375 471.15234375 203.276367188 466.051757812 184.576171875 c 0
 456.418945312 148.875976562 444.518554688 120.258789062 430.3515625 98.7255859375 c 0
 423.551757812 88.5263671875 415.90234375 80.0263671875 407.40234375 73.2255859375 c 0
 398.90234375 66.42578125 390.119140625 60.7587890625 381.051757812 56.2255859375 c 0
 373.119140625 51.693359375 363.486328125 48.1513671875 352.15234375 45.6005859375 c 0
 340.819335938 43.05078125 329.76953125 41.3505859375 319.002929688 40.5009765625 c 0
 308.236328125 39.6513671875 295.203125 39.2255859375 279.90234375 39.2255859375 c 0
 256.669921875 39.79296875 235.419921875 44.609375 216.15234375 53.6767578125 c 0
 194.620117188 62.744140625 176.203125 75.3515625 160.90234375 91.501953125 c 0
 145.602539062 107.651367188 133.844726562 127.626953125 125.627929688 151.426757812 c 0
 117.411132812 175.2265625 113.302734375 201.009765625 113.302734375 228.776367188 c 2
 113.302734375 233.876953125 l 1
 113.302734375 314.626953125 l 2
 113.11328125 320.682617188 113.018554688 327.306640625 113.018554688 334.499023438 c 0
 113.018554688 348.844726562 113.395507812 365.453125 114.150390625 384.325195312 c 0
228.051757812 573.026367188 m 0
 209.918945312 554.326171875 196.03515625 524.573242188 186.40234375 483.7734375 c 0
 183.001953125 469.040039062 180.452148438 452.040039062 178.751953125 432.7734375 c 0
 177.3359375 416.057617188 176.627929688 393.81640625 176.627929688 366.049804688 c 0
 176.627929688 338.284179688 177.3359375 304.993164062 178.752929688 266.176757812 c 0
 179.319335938 250.876953125 179.745117188 241.1015625 180.02734375 236.8515625 c 0
 180.310546875 232.6015625 180.453125 229.626953125 180.453125 227.926757812 c 2
 180.453125 202.426757812 l 1
 195.752929688 222.827148438 l 1
 266.01953125 326.526367188 329.203125 433.34375 385.302734375 543.276367188 c 2
 387.852539062 548.376953125 l 1
 384.453125 552.626953125 l 2
 374.252929688 567.926757812 361.927734375 579.827148438 347.477539062 588.327148438 c 0
 333.02734375 596.827148438 317.01953125 601.077148438 299.453125 601.077148438 c 0
 268.852539062 601.077148438 245.051757812 591.725585938 228.051757812 573.026367188 c 0
318.577148438 98.724609375 m 0
 330.194335938 101.557617188 341.385742188 106.374023438 352.15234375 113.173828125 c 0
 373.685546875 127.340820312 390.40234375 153.69140625 402.302734375 192.224609375 c 0
 404.569335938 199.590820312 406.977539062 218.715820312 409.52734375 249.599609375 c 0
 412.078125 280.482421875 413.919921875 315.7578125 415.052734375 355.424804688 c 0
 415.620117188 366.19140625 415.90234375 376.674804688 415.90234375 386.874023438 c 0
 415.90234375 415.774414062 414.76953125 443.541015625 412.502929688 470.174804688 c 2
 409.953125 499.924804688 l 1
 396.352539062 472.724609375 l 1
 340.252929688 349.19140625 274.51953125 245.491210938 199.15234375 161.624023438 c 1
 195.752929688 157.374023438 l 1
 197.453125 152.274414062 l 2
 207.0859375 131.307617188 219.8359375 116.0078125 235.703125 106.374023438 c 0
 248.169921875 98.44140625 262.90234375 94.474609375 279.90234375 94.474609375 c 0
 294.069335938 94.474609375 306.959960938 95.8916015625 318.577148438 98.724609375 c 0
EndSplineSet
Validated: 1
EndChar

StartChar: one
Encoding: 49 49 18
Width: 548
VWidth: 904
GlyphClass: 2
Flags: HMW
HStem: 54.9998 55.2467<450.774 452.474 450.491 457.858> 496.999 17.85G
VStem: 268.873 59.5 278.223 51.85
LayerCount: 2
Fore
SplineSet
478.825195312 104.299804688 m 0xe0
 483.924804688 99.2001953125 486.474609375 92.3994140625 486.474609375 83.8994140625 c 0
 486.474609375 75.3994140625 484.06640625 68.4580078125 479.25 63.0751953125 c 0
 474.432617188 57.69140625 464.94140625 55 450.774414062 55 c 0
 260.94140625 56.7001953125 155.541015625 57.5498046875 134.57421875 57.5498046875 c 0
 124.374023438 57.5498046875 117.149414062 60.2421875 112.899414062 65.625 c 0
 108.649414062 71.0078125 106.524414062 77.9501953125 106.524414062 86.4501953125 c 2
 106.524414062 89 l 2
 106.524414062 96.9326171875 108.649414062 103.732421875 112.899414062 109.399414062 c 0
 117.149414062 115.06640625 124.657226562 117.899414062 135.423828125 117.899414062 c 0
 160.357421875 117.899414062 204.83984375 117.333007812 268.873046875 116.200195312 c 1
 268.873046875 124.700195312 l 2xe0
 268.873046875 146.799804688 268.58984375 162.666992188 268.0234375 172.299804688 c 0
 267.456054688 181.932617188 267.172851562 190.715820312 267.172851562 198.649414062 c 0
 267.172851562 207.715820312 267.456054688 234.6328125 268.0234375 279.399414062 c 0
 268.0234375 290.732421875 269.297851562 333.515625 271.848632812 407.749023438 c 0
 274.3984375 481.982421875 276.5234375 536.94921875 278.223632812 572.649414062 c 1
 264.623046875 560.749023438 l 2
 227.223632812 526.749023438 199.172851562 506.065429688 180.473632812 498.69921875 c 0
 177.640625 497.565429688 175.08984375 496.999023438 172.823242188 496.999023438 c 0
 167.723632812 496.999023438 161.7734375 499.83203125 154.973632812 505.499023438 c 0
 145.90625 513.431640625 141.373046875 521.08203125 141.373046875 528.44921875 c 2
 141.373046875 529.298828125 l 1
 141.373046875 530.149414062 l 2
 141.373046875 537.515625 143.073242188 544.315429688 146.473632812 550.548828125 c 0
 149.873046875 556.782226562 156.106445312 563.298828125 165.172851562 570.098632812 c 0
 182.172851562 583.131835938 199.456054688 597.014648438 217.0234375 611.748046875 c 2
 252.723632812 644.047851562 l 2
 259.5234375 650.28125 266.46484375 655.6640625 273.547851562 660.197265625 c 0
 280.630859375 664.73046875 286.439453125 666.997070312 290.97265625 666.997070312 c 0
 300.60546875 666.997070312 310.522460938 662.463867188 320.72265625 653.397460938 c 0
 326.389648438 648.296875 330.356445312 643.764648438 332.623046875 639.796875 c 0
 334.323242188 637.530273438 335.172851562 635.546875 335.172851562 633.84765625 c 0
 334.606445312 620.247070312 332.90625 573.780273438 330.073242188 494.447265625 c 0xd0
 327.240234375 415.114257812 325.823242188 368.647460938 325.823242188 355.046875 c 0
 325.823242188 255.879882812 326.672851562 175.413085938 328.373046875 113.646484375 c 1
 365.206054688 112.513671875 394.106445312 111.663085938 415.073242188 111.096679688 c 0
 436.040039062 110.529296875 448.506835938 110.24609375 452.473632812 110.24609375 c 0
 453.923828125 110.309570312 455.322265625 110.340820312 456.666992188 110.340820312 c 0
 467.41015625 110.340820312 474.796875 108.328125 478.825195312 104.299804688 c 0xe0
EndSplineSet
Validated: 1
EndChar

StartChar: two
Encoding: 50 50 19
Width: 548
VWidth: 902
GlyphClass: 2
Flags: HMW
HStem: 45.85 54.4025 50.9541 58.6483 602.602 55.2483
VStem: 114.175 68.8525 398.076 68.0017
LayerCount: 2
Fore
SplineSet
284.174804688 45.849609375 m 0xb8
 259.2421875 44.716796875 234.025390625 44.150390625 208.525390625 44.150390625 c 0
 180.192382812 44.716796875 158.091796875 45.849609375 142.225585938 47.5498046875 c 0
 137.125 48.1171875 132.875 49.958984375 129.475585938 53.076171875 c 0
 126.075195312 56.1923828125 123.525390625 60.30078125 121.825195312 65.400390625 c 0
 116.725585938 78.43359375 114.174804688 97.275390625 114.174804688 121.92578125 c 0
 114.174804688 146.576171875 119.275390625 171.79296875 129.475585938 197.576171875 c 0
 139.674804688 223.359375 154.833007812 248.150390625 174.950195312 271.951171875 c 0
 195.067382812 295.750976562 217.309570312 315.017578125 241.67578125 329.750976562 c 0
 297.208984375 364.317382812 332.909179688 388.400390625 348.776367188 402.000976562 c 0
 371.443359375 421.267578125 386.17578125 442.234375 392.975585938 464.901367188 c 0
 396.375976562 477.368164062 398.076171875 492.668945312 398.076171875 510.801757812 c 0
 398.076171875 543.1015625 388.725585938 566.618164062 370.026367188 581.3515625 c 0
 353.026367188 595.518554688 329.225585938 602.6015625 298.625976562 602.6015625 c 0
 277.092773438 602.6015625 256.693359375 595.518554688 237.42578125 581.3515625 c 0
 218.159179688 567.184570312 202.576171875 551.317382812 190.67578125 533.750976562 c 0
 185.576171875 526.951171875 181.326171875 521.993164062 177.92578125 518.875976562 c 0
 174.526367188 515.758789062 171.125976562 513.916992188 167.725585938 513.349609375 c 2
 163.05078125 513.349609375 l 2
 161.068359375 513.349609375 158.66015625 513.6328125 155.827148438 514.200195312 c 0
 152.994140625 514.766601562 148.4609375 516.466796875 142.227539062 519.299804688 c 0
 134.860351562 523.266601562 130.328125 528.650390625 128.627929688 535.450195312 c 2
 128.627929688 541.400390625 l 2
 128.571289062 542.080078125 128.54296875 542.779296875 128.54296875 543.499023438 c 0
 128.54296875 549.9765625 130.837890625 558.059570312 135.427734375 567.75 c 0
 140.52734375 577.3828125 148.4609375 587.44140625 159.227539062 597.923828125 c 0
 169.995117188 608.407226562 182.461914062 618.182617188 196.62890625 627.249023438 c 0
 210.795898438 636.31640625 226.37890625 643.682617188 243.37890625 649.349609375 c 0
 260.37890625 655.016601562 277.661132812 657.849609375 295.228515625 657.849609375 c 0
 349.061523438 657.849609375 390.995117188 644.533203125 421.02734375 617.900390625 c 0
 451.060546875 591.266601562 466.078125 550.75 466.078125 496.349609375 c 0
 466.078125 451.583007812 454.745117188 415.599609375 432.078125 388.400390625 c 0
 414.510742188 368.567382812 384.760742188 346.18359375 342.828125 321.250976562 c 0
 329.794921875 312.750976562 312.227539062 301.984375 290.127929688 288.951171875 c 0
 266.89453125 275.91796875 247.627929688 259.484375 232.328125 239.651367188 c 0
 216.4609375 219.818359375 204.703125 199.560546875 197.052734375 178.877929688 c 0
 189.40234375 158.194335938 184.727539062 135.952148438 183.02734375 112.15234375 c 2
 183.02734375 103.65234375 l 1
 221.560546875 101.385742188 256.127929688 100.252929688 286.727539062 100.252929688 c 0xb8
 308.828125 100.252929688 326.9609375 100.819335938 341.127929688 101.952148438 c 0
 355.294921875 103.0859375 373.995117188 104.502929688 397.227539062 106.202148438 c 0
 421.594726562 107.90234375 437.177734375 109.03515625 443.977539062 109.602539062 c 2
 452.477539062 109.602539062 l 2
 455.123046875 109.791992188 457.422851562 109.88671875 459.375 109.88671875 c 0
 463.27734375 109.88671875 465.794921875 109.508789062 466.927734375 108.752929688 c 0
 468.627929688 108.186523438 470.610351562 107.053710938 472.877929688 105.353515625 c 0
 474.578125 104.220703125 475.7109375 103.086914062 476.27734375 101.954101562 c 0
 477.977539062 98.5537109375 478.828125 93.7373046875 478.828125 87.50390625 c 0
 478.828125 75.037109375 475.7109375 64.8369140625 469.477539062 56.904296875 c 0
 466.64453125 52.9375 462.961914062 50.9541015625 458.428710938 50.9541015625 c 0x78
 417.62890625 50.9541015625 359.541992188 49.25 284.174804688 45.849609375 c 0xb8
EndSplineSet
Validated: 1
EndChar

StartChar: three
Encoding: 51 51 20
Width: 548
VWidth: 902
GlyphClass: 2
Flags: HMW
HStem: 39.5272 55.2483 331.077 68.8517 602.229 55.2508
VStem: 386.172 68.85 405.721 68.0017
LayerCount: 2
Fore
SplineSet
454.174804688 504.475585938 m 0xf0
 454.741210938 503.342773438 455.022460938 502.208984375 455.022460938 501.076171875 c 0xf0
 455.022460938 486.909179688 452.899414062 473.734375 448.649414062 461.551757812 c 0
 444.399414062 449.368164062 438.875 439.16796875 432.07421875 430.951171875 c 0
 425.274414062 422.734375 416.916992188 415.2265625 407 408.426757812 c 0
 397.083007812 401.625976562 386.741210938 396.243164062 375.973632812 392.276367188 c 0
 366.340820312 388.309570312 356.140625 385.192382812 345.374023438 382.92578125 c 2
 309.673828125 375.275390625 l 1
 345.374023438 366.775390625 l 2
 365.7734375 362.2421875 383.765625 356.434570312 399.348632812 349.3515625 c 0
 414.931640625 342.268554688 428.389648438 333.201171875 439.72265625 322.151367188 c 0
 451.055664062 311.1015625 459.555664062 297.359375 465.22265625 280.926757812 c 0
 470.889648438 264.493164062 473.72265625 244.66015625 473.72265625 221.426757812 c 0
 473.72265625 165.89453125 456.440429688 121.694335938 421.873046875 88.8271484375 c 0
 387.873046875 55.9599609375 342.823242188 39.52734375 286.72265625 39.52734375 c 0
 269.72265625 39.52734375 252.72265625 42.3603515625 235.72265625 48.02734375 c 0
 217.58984375 54.259765625 201.297851562 61.7685546875 186.84765625 70.5517578125 c 0
 172.3984375 79.333984375 159.930664062 88.9677734375 149.448242188 99.4501953125 c 0
 138.96484375 109.93359375 131.172851562 120.275390625 126.073242188 130.475585938 c 0
 121.540039062 138.975585938 119.2734375 146.908203125 119.2734375 154.275390625 c 0
 119.2734375 156.541992188 119.555664062 158.809570312 120.123046875 161.076171875 c 0
 121.823242188 169.009765625 126.073242188 174.676757812 132.873046875 178.076171875 c 0
 139.106445312 181.4765625 145.055664062 183.176757812 150.72265625 183.176757812 c 0
 152.990234375 183.176757812 155.256835938 182.893554688 157.5234375 182.326171875 c 0
 165.45703125 180.059570312 173.389648438 173.826171875 181.323242188 163.625976562 c 0
 194.356445312 146.059570312 210.7890625 130.192382812 230.622070312 116.025390625 c 0
 248.754882812 101.858398438 268.587890625 94.775390625 290.12109375 94.775390625 c 0
 322.421875 94.775390625 349.0546875 105.258789062 370.021484375 126.225585938 c 0
 393.821289062 147.192382812 405.721679688 174.109375 405.721679688 206.9765625 c 0xe8
 405.721679688 226.243164062 402.604492188 243.384765625 396.37109375 258.40234375 c 0
 390.138671875 273.418945312 380.504882812 286.59375 367.47265625 297.926757812 c 0
 343.671875 320.02734375 303.72265625 331.077148438 247.622070312 331.077148438 c 0
 239.122070312 331.077148438 231.754882812 334.759765625 225.522460938 342.126953125 c 0
 219.2890625 349.494140625 216.171875 358.135742188 216.171875 368.052734375 c 0
 216.171875 377.969726562 218.439453125 385.76171875 222.97265625 391.428710938 c 0
 226.939453125 397.095703125 233.171875 399.928710938 241.671875 399.928710938 c 0
 285.872070312 399.928710938 320.72265625 409.845703125 346.22265625 429.678710938 c 0
 372.85546875 449.51171875 386.171875 478.12890625 386.171875 515.529296875 c 2
 386.171875 518.928710938 l 1
 386.171875 522.329101562 l 2
 386.188476562 523.08984375 386.197265625 523.846679688 386.197265625 524.596679688 c 0
 386.197265625 550.106445312 376.838867188 569.467773438 358.122070312 582.678710938 c 0
 339.989257812 595.711914062 314.489257812 602.228515625 281.622070312 602.228515625 c 0
 270.85546875 602.228515625 259.522460938 600.24609375 247.622070312 596.279296875 c 0
 243.655273438 594.579101562 239.405273438 591.74609375 234.872070312 587.779296875 c 0
 230.338867188 583.811523438 226.65625 580.6953125 223.823242188 578.427734375 c 0
 220.990234375 576.161132812 217.448242188 572.3359375 213.198242188 566.953125 c 0
 208.948242188 561.5703125 205.97265625 557.88671875 204.2734375 555.904296875 c 0
 202.573242188 553.920898438 199.740234375 549.8125 195.7734375 543.580078125 c 0
 187.83984375 532.8125 180.190429688 526.580078125 172.823242188 524.879882812 c 0
 170.555664062 524.3125 168.2890625 524.029296875 166.022460938 524.029296875 c 0
 160.35546875 524.029296875 154.122070312 525.729492188 147.322265625 529.129882812 c 0
 140.522460938 532.529296875 136.272460938 538.196289062 134.572265625 546.129882812 c 0
 134.004882812 547.830078125 133.72265625 549.8125 133.72265625 552.080078125 c 0
 133.72265625 559.446289062 135.989257812 567.663085938 140.522460938 576.73046875 c 0
 151.2890625 598.263671875 167.72265625 616.680664062 189.822265625 631.98046875 c 0
 201.155273438 639.913085938 214.754882812 646.146484375 230.622070312 650.6796875 c 0
 245.35546875 655.212890625 261.22265625 657.479492188 278.22265625 657.479492188 c 0
 396.088867188 657.479492188 455.022460938 607.612304688 455.022460938 507.879882812 c 0
 454.455078125 506.747070312 454.174804688 505.608398438 454.174804688 504.475585938 c 0xf0
EndSplineSet
Validated: 1
EndChar

StartChar: four
Encoding: 52 52 21
Width: 548
VWidth: 902
GlyphClass: 2
Flags: HMW
HStem: 40.7519 17.85G 251.55 51.8517 644.251 17G
VStem: 355.577 55.6741 361.525 56.9509 361.525 63.7508
LayerCount: 2
Fore
SplineSet
374.275390625 51.7998046875 m 0xf0
 366.341796875 58.6005859375 362.091796875 65.1171875 361.525390625 71.3505859375 c 2
 361.525390625 103.650390625 l 1xe4
 361.525390625 250.700195312 l 1xe8
 343.391601562 251.267578125 328.375 251.549804688 316.474609375 251.549804688 c 0
 241.674804688 250.983398438 186.708007812 247.016601562 151.575195312 239.649414062 c 0
 148.174804688 239.08203125 144.775390625 238.799804688 141.375 238.799804688 c 0
 137.974609375 238.799804688 134.575195312 239.366210938 131.174804688 240.499023438 c 0
 126.075195312 242.766601562 121.825195312 245.8828125 118.424804688 249.850585938 c 0
 110.4921875 260.049804688 106.525390625 272.233398438 106.525390625 286.400390625 c 0
 106.525390625 293.200195312 107.658203125 300 109.924804688 306.799804688 c 0
 115.591796875 322.666992188 130.609375 348.309570312 154.975585938 383.725585938 c 0
 179.342773438 419.142578125 209.942382812 463.201171875 246.776367188 515.901367188 c 0
 283.04296875 568.600585938 308.826171875 607.133789062 324.125976562 631.500976562 c 0
 330.359375 641.133789062 337.159179688 648.359375 344.526367188 653.17578125 c 0
 351.892578125 657.993164062 358.692382812 660.401367188 364.92578125 660.401367188 c 0
 366.625976562 660.967773438 368.326171875 661.250976562 370.026367188 661.250976562 c 0
 376.826171875 661.250976562 383.625976562 659.267578125 390.42578125 655.30078125 c 0
 397.225585938 651.333984375 401.475585938 644.534179688 403.17578125 634.901367188 c 0
 406.576171875 615.633789062 409.267578125 585.458984375 411.250976562 544.375976562 c 0xf0
 413.234375 503.29296875 414.508789062 468.584960938 415.076171875 440.251953125 c 2
 417.625976562 302.551757812 l 1
 432.359375 301.418945312 445.534179688 300.8515625 457.151367188 300.8515625 c 0
 468.767578125 300.8515625 476.41796875 298.7265625 480.100585938 294.4765625 c 0
 483.784179688 290.2265625 485.909179688 284.418945312 486.475585938 277.051757812 c 0
 486.475585938 267.985351562 484.776367188 261.184570312 481.375976562 256.65234375 c 0
 476.842773438 250.985351562 469.05078125 248.15234375 458.000976562 248.15234375 c 0
 446.951171875 248.15234375 433.776367188 248.71875 418.475585938 249.8515625 c 1xe8
 419.04296875 160.318359375 420.743164062 109.6015625 423.576171875 97.7021484375 c 0
 424.708984375 91.46875 425.276367188 85.8017578125 425.276367188 80.7021484375 c 0xe4
 425.842773438 71.634765625 424.142578125 63.41796875 420.17578125 56.05078125 c 0
 417.909179688 51.517578125 414.93359375 47.8349609375 411.250976562 45.001953125 c 0
 407.567382812 42.1689453125 403.17578125 40.751953125 398.076171875 40.751953125 c 0
 390.142578125 41.318359375 382.208007812 45 374.275390625 51.7998046875 c 0xf0
355.577148438 565.202148438 m 2xf0
 354.7265625 587.301757812 l 1
 341.9765625 569.452148438 l 2
 264.91015625 458.952148438 211.926757812 373.1015625 183.026367188 311.90234375 c 2
 177.077148438 299.15234375 l 1
 190.676757812 300.001953125 l 2
 220.709960938 302.268554688 256.9765625 303.40234375 299.4765625 303.40234375 c 0
 316.4765625 303.40234375 337.16015625 303.119140625 361.526367188 302.551757812 c 1
 361.526367188 311.051757812 l 2
 361.526367188 417.584960938 359.543945312 502.301757812 355.577148438 565.202148438 c 2xf0
EndSplineSet
Validated: 1
EndChar

StartChar: five
Encoding: 53 53 22
Width: 548
VWidth: 902
GlyphClass: 2
Flags: HMW
HStem: 45.3258 55.2491 417.625 59.4975 586.772 58.6517 596.122 51.0025
VStem: 119.275 62.8991 126.075 57.7991 414.224 68
LayerCount: 2
Fore
SplineSet
466.924804688 193.224609375 m 0xd6
 456.724609375 160.358398438 442.416992188 133.158203125 424 111.625 c 0
 405.583007812 90.091796875 384.474609375 73.6591796875 360.674804688 62.326171875 c 0
 337.44140625 50.9931640625 311.94140625 45.326171875 284.174804688 45.326171875 c 0
 262.641601562 45.326171875 242.524414062 47.8759765625 223.825195312 52.9755859375 c 0
 203.9921875 58.076171875 187.274414062 64.734375 173.674804688 72.951171875 c 0
 160.075195312 81.16796875 148.7421875 90.0927734375 139.674804688 99.7255859375 c 0
 130.607421875 109.359375 123.241210938 119.275390625 117.57421875 129.475585938 c 0
 113.041015625 140.243164062 110.774414062 149.025390625 110.774414062 155.826171875 c 0
 110.774414062 165.458984375 115.590820312 172.541992188 125.223632812 177.075195312 c 0
 134.857421875 181.608398438 141.657226562 183.875 145.624023438 183.875 c 0
 147.32421875 183.307617188 148.741210938 183.025390625 149.874023438 183.025390625 c 0
 153.274414062 183.025390625 156.673828125 181.325195312 160.07421875 177.924804688 c 0
 163.473632812 174.525390625 167.723632812 169.424804688 172.82421875 162.625 c 0
 200.590820312 121.2578125 235.44140625 100.575195312 277.374023438 100.575195312 c 0
 318.173828125 100.575195312 350.756835938 118.424804688 375.124023438 154.125 c 0
 401.19140625 189.2578125 414.223632812 236.0078125 414.223632812 294.375 c 0
 414.223632812 331.208007812 405.723632812 360.674804688 388.723632812 382.775390625 c 0
 372.291015625 406.0078125 348.208007812 417.625 316.474609375 417.625 c 0
 302.875 417.625 288.708007812 415.924804688 273.974609375 412.525390625 c 0
 266.041992188 410.2578125 255.55859375 405.44140625 242.525390625 398.07421875 c 0
 239.125976562 396.374023438 234.733398438 393.116210938 229.350585938 388.298828125 c 0
 223.967773438 383.482421875 220.42578125 380.224609375 218.725585938 378.524414062 c 0
 210.225585938 370.590820312 203.142578125 363.791015625 197.475585938 358.124023438 c 0
 188.409179688 350.19140625 177.358398438 345.658203125 164.325195312 344.525390625 c 2
 160.92578125 344.525390625 l 2
 155.258789062 344.525390625 149.875976562 345.658203125 144.775390625 347.924804688 c 0
 137.409179688 350.7578125 131.7421875 357.840820312 127.774414062 369.173828125 c 0
 123.2421875 382.20703125 120.69140625 398.357421875 120.125 417.624023438 c 0
 119.557617188 426.69140625 119.274414062 435.474609375 119.274414062 443.974609375 c 0xda
 119.274414062 464.94140625 120.69140625 494.69140625 123.524414062 533.224609375 c 0
 125.224609375 554.19140625 126.075195312 568.923828125 126.075195312 577.423828125 c 2
 126.075195312 579.974609375 l 1
 124.375 581.673828125 l 2
 119.274414062 590.173828125 116.724609375 600.374023438 116.724609375 612.274414062 c 0
 116.724609375 625.307617188 120.408203125 635.506835938 127.774414062 642.874023438 c 0
 132.307617188 647.407226562 137.408203125 649.673828125 143.075195312 649.673828125 c 0
 164.041992188 649.107421875 211.075195312 648.256835938 284.174804688 647.124023438 c 0xd6
 356.141601562 645.991210938 412.524414062 645.423828125 453.325195312 645.423828125 c 0
 457.291992188 645.423828125 460.974609375 643.44140625 464.375 639.474609375 c 0
 468.341796875 634.374023438 470.891601562 628.282226562 472.024414062 621.19921875 c 0
 473.158203125 614.116210938 473.44140625 607.741210938 472.874023438 602.07421875 c 0
 472.306640625 596.407226562 470.749023438 592.865234375 468.19921875 591.448242188 c 0
 465.649414062 590.03125 463.666015625 589.0390625 462.249023438 588.47265625 c 0
 460.83203125 587.905273438 458.423828125 587.48046875 455.024414062 587.197265625 c 0
 451.624023438 586.9140625 449.215820312 586.772460938 447.798828125 586.772460938 c 0xe6
 446.381835938 586.772460938 443.264648438 586.9140625 438.448242188 587.197265625 c 0
 433.630859375 587.48046875 429.098632812 587.763671875 424.848632812 588.046875 c 0
 420.598632812 588.330078125 408.2734375 589.321289062 387.873046875 591.021484375 c 0
 369.172851562 592.721679688 352.456054688 593.997070312 337.723632812 594.846679688 c 0
 322.990234375 595.696289062 302.732421875 596.122070312 276.94921875 596.122070312 c 0
 251.166015625 596.122070312 220.991210938 594.98828125 186.423828125 592.721679688 c 1
 185.857421875 581.955078125 185.006835938 562.971679688 183.874023438 535.771484375 c 0xd6
 182.741210938 508.571289062 182.173828125 491.2890625 182.173828125 483.921875 c 0xda
 182.173828125 476.5546875 182.31640625 469.330078125 182.598632812 462.247070312 c 0
 182.881835938 455.1640625 183.306640625 435.755859375 183.874023438 404.022460938 c 1
 197.473632812 419.322265625 l 2
 212.20703125 435.755859375 231.33203125 449.497070312 254.848632812 460.547851562 c 0
 278.366210938 471.59765625 305.423828125 477.122070312 336.024414062 477.122070312 c 0
 358.124023438 477.122070312 378.241210938 472.58984375 396.374023438 463.522460938 c 0
 415.640625 454.456054688 431.366210938 442.272460938 443.548828125 426.97265625 c 0
 455.732421875 411.672851562 465.223632812 393.397460938 472.024414062 372.147460938 c 0
 478.82421875 350.897460938 482.223632812 328.08984375 482.223632812 303.72265625 c 0
 482.223632812 262.922851562 477.125 226.091796875 466.924804688 193.224609375 c 0xd6
EndSplineSet
Validated: 1
EndChar

StartChar: six
Encoding: 54 54 23
Width: 548
VWidth: 903
GlyphClass: 2
Flags: HMW
HStem: 42.5001 55.2483 395.249 59.4991
VStem: 109.076 59.4991 417.625 66.3017
LayerCount: 2
Fore
SplineSet
468.625 175.950195312 m 0
 458.424804688 148.75 444.68359375 125.375 427.400390625 105.825195312 c 0
 410.1171875 86.275390625 389.859375 70.8330078125 366.625976562 59.5 c 0
 344.526367188 48.1669921875 321.29296875 42.5 296.92578125 42.5 c 0
 266.326171875 42.5 239.693359375 49.0166015625 217.026367188 62.0498046875 c 0
 192.092773438 75.0830078125 171.693359375 93.6416015625 155.826171875 117.724609375 c 0
 139.958984375 141.807617188 128.201171875 170.423828125 120.55078125 203.57421875 c 0
 112.901367188 236.724609375 109.076171875 273.416015625 109.076171875 313.649414062 c 0
 109.076171875 364.649414062 113.892578125 410.548828125 123.526367188 451.349609375 c 0
 132.592773438 489.31640625 144.91796875 521.333007812 160.500976562 547.400390625 c 0
 176.083984375 573.466796875 195.208984375 595.284179688 217.875976562 612.850585938 c 0
 238.842773438 630.984375 261.509765625 644.583984375 285.876953125 653.651367188 c 0
 310.244140625 662.717773438 337.443359375 668.66796875 367.4765625 671.500976562 c 2
 372.577148438 671.500976562 l 2
 381.077148438 671.500976562 388.7265625 669.80078125 395.52734375 666.401367188 c 0
 402.327148438 663.000976562 406.293945312 657.333984375 407.426757812 649.401367188 c 2
 407.426757812 648.55078125 l 2
 407.426757812 644.583984375 404.876953125 639.766601562 399.77734375 634.099609375 c 0
 393.543945312 626.733398438 386.744140625 621.916015625 379.376953125 619.649414062 c 0
 373.709960938 617.94921875 364.926757812 615.82421875 353.02734375 613.274414062 c 0
 341.126953125 610.724609375 330.926757812 608.032226562 322.426757812 605.19921875 c 0
 313.926757812 602.366210938 304.009765625 598.399414062 292.676757812 593.298828125 c 0
 270.009765625 582.532226562 247.059570312 562.69921875 223.827148438 533.798828125 c 0
 211.360351562 517.932617188 199.743164062 496.965820312 188.975585938 470.8984375 c 0
 178.208984375 444.831054688 171.409179688 421.598632812 168.576171875 401.198242188 c 2
 165.17578125 373.1484375 l 1
 183.026367188 394.3984375 l 2
 200.026367188 414.231445312 220.993164062 429.248046875 245.92578125 439.448242188 c 0
 270.29296875 449.6484375 297.776367188 454.748046875 328.375976562 454.748046875 c 0
 351.04296875 454.181640625 371.443359375 450.498046875 389.576171875 443.698242188 c 0
 408.842773438 436.8984375 425.559570312 425.990234375 439.7265625 410.973632812 c 0
 453.893554688 395.956054688 464.801757812 376.123046875 472.452148438 351.473632812 c 0
 480.1015625 326.823242188 483.926757812 297.215820312 483.926757812 262.6484375 c 0
 483.926757812 232.048828125 478.825195312 203.150390625 468.625 175.950195312 c 0
170.27734375 248.198242188 m 0
 172.543945312 220.431640625 181.043945312 193.798828125 195.77734375 168.298828125 c 0
 203.143554688 154.698242188 211.643554688 142.798828125 221.27734375 132.598632812 c 0
 230.34375 121.831054688 241.393554688 113.331054688 254.426757812 107.098632812 c 0
 267.459960938 100.865234375 281.342773438 97.748046875 296.076171875 97.748046875 c 2
 297.776367188 97.748046875 l 2
 318.743164062 97.748046875 338.29296875 105.681640625 356.42578125 121.548828125 c 0
 374.559570312 136.848632812 389.291992188 156.3984375 400.625 180.198242188 c 0
 411.958007812 203.998046875 417.625 228.081054688 417.625 252.448242188 c 0
 417.625 280.215820312 415.075195312 303.590820312 409.975585938 322.573242188 c 0
 404.875 341.556640625 396.942382812 356.431640625 386.174804688 367.198242188 c 0
 375.975585938 377.965820312 364.642578125 385.33203125 352.174804688 389.298828125 c 0
 339.708007812 393.266601562 324.975585938 395.249023438 307.975585938 395.249023438 c 0
 280.775390625 395.249023438 255.275390625 387.599609375 231.475585938 372.298828125 c 0
 207.108398438 356.999023438 186.708007812 337.44921875 170.275390625 313.649414062 c 1
 168.575195312 311.94921875 l 1
 168.575195312 309.399414062 l 2
 168.575195312 282.766601562 169.143554688 262.365234375 170.27734375 248.198242188 c 0
EndSplineSet
Validated: 1
EndChar

StartChar: seven
Encoding: 55 55 24
Width: 548
VWidth: 901
GlyphClass: 2
Flags: HMW
HStem: 39.8501 17.85G<166.594 171.128> 589.63 60.5209
LayerCount: 2
Fore
SplineSet
463.950195312 641.224609375 m 0
 468.767578125 639.2421875 473.159179688 635.984375 477.125976562 631.451171875 c 0
 481.092773438 626.91796875 483.076171875 620.967773438 483.076171875 613.600585938 c 0
 483.076171875 606.234375 480.80859375 597.166992188 476.276367188 586.400390625 c 0
 468.342773438 569.400390625 454.03515625 543.900390625 433.3515625 509.900390625 c 0
 412.668945312 475.900390625 391.560546875 440.766601562 370.02734375 404.5 c 0
 349.627929688 368.799804688 324.694335938 321.05859375 295.227539062 261.275390625 c 0
 265.760742188 201.4921875 237.994140625 140.150390625 211.926757812 77.25 c 0
 205.693359375 63.650390625 197.760742188 53.7333984375 188.127929688 47.5 c 0
 181.328125 42.400390625 174.52734375 39.849609375 167.727539062 39.849609375 c 0
 165.4609375 39.849609375 163.477539062 40.1328125 161.77734375 40.7001953125 c 0
 152.7109375 42.966796875 146.193359375 48.4921875 142.2265625 57.275390625 c 0
 140.491210938 61.1171875 139.624023438 65.095703125 139.624023438 69.2099609375 c 0
 139.624023438 74.4990234375 141.057617188 80.0126953125 143.926757812 85.75 c 0
 173.393554688 143.549804688 203.7109375 201.349609375 234.877929688 259.150390625 c 0
 264.911132812 316.950195312 289.703125 362.9921875 309.252929688 397.275390625 c 0
 328.802734375 431.55859375 347.078125 465.1328125 364.078125 498 c 0
 381.64453125 530.299804688 393.828125 556.650390625 400.627929688 577.049804688 c 2
 404.02734375 588.099609375 l 1
 372.408203125 589.120117188 341.095703125 589.629882812 310.087890625 589.629882812 c 0
 289.415039062 589.629882812 268.87890625 589.403320312 248.477539062 588.950195312 c 0
 194.078125 587.25 158.094726562 584.1328125 140.52734375 579.599609375 c 0
 138.828125 579.033203125 136.844726562 578.75 134.578125 578.75 c 0
 132.310546875 578.75 130.043945312 579.317382812 127.776367188 580.450195312 c 0
 123.809570312 581.583007812 120.693359375 583.849609375 118.42578125 587.25 c 0
 113.326171875 594.6171875 110.493164062 603.1171875 109.92578125 612.75 c 0
 109.92578125 620.68359375 111.767578125 627.05859375 115.451171875 631.875 c 0
 119.133789062 636.692382812 126.92578125 640.234375 138.826171875 642.500976562 c 0
 168.859375 647.600585938 216.458984375 650.151367188 281.625976562 650.151367188 c 0
 302.026367188 650.151367188 341.975585938 648.734375 401.475585938 645.901367188 c 0
 431.508789062 644.767578125 447.659179688 644.201171875 449.92578125 644.201171875 c 0
 454.458984375 644.201171875 459.1328125 643.208007812 463.950195312 641.224609375 c 0
EndSplineSet
Validated: 1
EndChar

StartChar: eight
Encoding: 56 56 25
Width: 548
VWidth: 901
GlyphClass: 2
Flags: HMW
HStem: 36.4511 56.1009 609.352 44.2008
VStem: 103.977 56.9475 126.928 62.8975 392.127 59.5 426.125 62.9017
LayerCount: 2
Fore
SplineSet
482.225585938 172.875 m 0xc4
 477.692382812 155.591796875 469.900390625 138.734375 458.850585938 122.30078125 c 0
 447.80078125 105.868164062 434.483398438 91.41796875 418.900390625 78.951171875 c 0
 403.317382812 66.484375 383.909179688 56.2841796875 360.67578125 48.3515625 c 0
 338.576171875 40.41796875 314.208984375 36.451171875 287.576171875 36.451171875 c 0
 260.943359375 36.451171875 237.42578125 40.1337890625 217.026367188 47.5009765625 c 0
 195.493164062 54.8681640625 177.92578125 64.5009765625 164.326171875 76.4013671875 c 0
 150.7265625 88.30078125 139.109375 102.326171875 129.4765625 118.4765625 c 0
 119.842773438 134.625976562 113.184570312 150.91796875 109.501953125 167.3515625 c 0
 105.819335938 183.784179688 103.9765625 200.92578125 103.9765625 218.776367188 c 0xe4
 103.9765625 236.625976562 108.65234375 256.034179688 118.001953125 277.000976562 c 0
 127.3515625 297.967773438 140.809570312 317.518554688 158.376953125 335.651367188 c 0
 175.944335938 353.784179688 194.926757812 366.250976562 215.327148438 373.05078125 c 2
 234.02734375 379.8515625 l 1
 216.176757812 388.3515625 l 2
 187.84375 401.951171875 165.885742188 419.518554688 150.302734375 441.05078125 c 0
 134.719726562 462.583984375 126.927734375 484.401367188 126.927734375 506.500976562 c 0
 126.927734375 512.734375 127.352539062 519.534179688 128.203125 526.901367188 c 0
 129.052734375 534.268554688 131.177734375 542.91015625 134.578125 552.827148438 c 0
 137.977539062 562.744140625 142.0859375 572.236328125 146.90234375 581.302734375 c 0
 151.719726562 590.370117188 158.51953125 599.294921875 167.302734375 608.078125 c 0
 176.0859375 616.861328125 186.143554688 624.65234375 197.4765625 631.453125 c 0
 208.244140625 637.685546875 221.418945312 642.927734375 237.001953125 647.177734375 c 0
 252.584960938 651.427734375 270.009765625 653.552734375 289.27734375 653.552734375 c 0
 308.543945312 653.552734375 325.96875 651.569335938 341.551757812 647.602539062 c 0
 357.134765625 643.635742188 370.309570312 638.252929688 381.077148438 631.453125 c 0
 392.41015625 624.65234375 402.467773438 616.861328125 411.250976562 608.078125 c 0
 420.034179688 599.294921875 426.833984375 590.370117188 431.651367188 581.302734375 c 0
 436.467773438 572.236328125 440.434570312 562.602539062 443.551757812 552.40234375 c 0
 446.668945312 542.203125 448.793945312 533.27734375 449.926757812 525.627929688 c 0
 451.059570312 517.977539062 451.626953125 510.752929688 451.626953125 503.953125 c 0xd8
 451.626953125 497.15234375 450.77734375 490.77734375 449.077148438 484.828125 c 0
 447.376953125 478.877929688 445.393554688 473.495117188 443.126953125 468.677734375 c 0
 440.860351562 463.861328125 437.6015625 458.90234375 433.3515625 453.802734375 c 0
 429.1015625 448.703125 424.994140625 444.169921875 421.02734375 440.203125 c 0
 414.2265625 432.8359375 402.610351562 423.486328125 386.176757812 412.15234375 c 0
 379.376953125 407.052734375 368.327148438 398.8359375 353.02734375 387.502929688 c 1
 365.77734375 381.552734375 l 2
 385.043945312 373.052734375 402.327148438 363.27734375 417.626953125 352.227539062 c 0
 432.926757812 341.177734375 444.96875 330.26953125 453.751953125 319.502929688 c 0
 462.53515625 308.736328125 469.759765625 297.543945312 475.426757812 285.926757812 c 0
 481.09375 274.309570312 484.77734375 263.827148438 486.4765625 254.4765625 c 0
 488.176757812 245.126953125 489.02734375 235.3515625 489.02734375 225.15234375 c 0
 489.02734375 207.584960938 486.758789062 190.158203125 482.225585938 172.875 c 0xc4
217.876953125 452.952148438 m 0
 234.309570312 437.65234375 261.2265625 422.634765625 298.626953125 407.90234375 c 1
 301.176757812 406.202148438 l 1
 304.577148438 407.90234375 l 2
 326.676757812 417.53515625 346.509765625 431.134765625 364.077148438 448.702148438 c 0
 382.77734375 466.834960938 392.126953125 484.40234375 392.126953125 501.40234375 c 0
 392.126953125 518.40234375 387.59375 535.119140625 378.52734375 551.551757812 c 0
 369.459960938 567.985351562 356.993164062 581.7265625 341.125976562 592.77734375 c 0
 325.258789062 603.827148438 308.258789062 609.3515625 290.125976562 609.3515625 c 2
 288.42578125 609.3515625 l 2
 262.359375 608.78515625 239.692382812 598.301757812 220.42578125 577.90234375 c 0
 200.025390625 557.501953125 189.825195312 534.551757812 189.825195312 509.051757812 c 0xd8
 189.825195312 488.084960938 199.176757812 469.384765625 217.876953125 452.952148438 c 0
181.325195312 148.2265625 m 0
 194.92578125 129.809570312 211.358398438 115.78515625 230.625 106.15234375 c 0
 249.325195312 97.0849609375 269.442382812 92.5517578125 290.975585938 92.5517578125 c 0
 306.275390625 92.5517578125 321.575195312 95.1015625 336.875 100.202148438 c 0
 352.17578125 105.301757812 366.341796875 112.668945312 379.375 122.301757812 c 0
 392.975585938 132.501953125 404.166992188 145.393554688 412.950195312 160.9765625 c 0
 421.733398438 176.559570312 426.125 193.41796875 426.125 211.55078125 c 0
 426.125 221.750976562 425.416992188 231.243164062 424 240.026367188 c 0
 422.583007812 248.809570312 419.041015625 258.8671875 413.374023438 270.200195312 c 0
 407.70703125 281.533203125 400.057617188 292.016601562 390.424804688 301.649414062 c 0
 381.357421875 311.282226562 369.315429688 321.057617188 354.298828125 330.974609375 c 0
 339.28125 340.891601562 320.723632812 350.383789062 298.624023438 359.450195312 c 1
 296.073242188 358.600585938 l 2
 257.541015625 347.267578125 225.807617188 327.716796875 200.874023438 299.950195312 c 0
 174.241210938 272.18359375 160.924804688 242.150390625 160.924804688 209.850585938 c 0xe4
 160.924804688 187.18359375 167.725585938 166.643554688 181.325195312 148.2265625 c 0
EndSplineSet
Validated: 1
EndChar

StartChar: nine
Encoding: 57 57 26
Width: 548
VWidth: 903
GlyphClass: 2
Flags: HMW
HStem: 42.6501 17.85G<196.626 200.876 200.876 207.676> 261.949 58.65 618.949 54.4017
VStem: 109.075 66.3<448.1 476.15> 425.274 58.6509
LayerCount: 2
Fore
SplineSet
467.775390625 256 m 0
 457.575195312 220.299804688 443.692382812 189.983398438 426.125 165.049804688 c 0
 408.557617188 140.1171875 387.875 118.8671875 364.075195312 101.299804688 c 0
 341.408203125 83.7333984375 317.182617188 70.275390625 291.400390625 60.9248046875 c 0
 265.6171875 51.5751953125 237.708984375 45.4833984375 207.67578125 42.650390625 c 2
 200.875976562 42.650390625 l 2
 192.375976562 42.650390625 184.583984375 44.4921875 177.500976562 48.1748046875 c 0
 170.41796875 51.8583984375 166.309570312 57.3828125 165.176757812 64.75 c 2
 165.176757812 65.599609375 l 2
 165.176757812 70.1328125 167.7265625 75.2333984375 172.826171875 80.900390625 c 0
 179.059570312 87.7001953125 186.142578125 92.2333984375 194.076171875 94.5 c 0
 200.30859375 96.7666015625 209.942382812 99.3173828125 222.974609375 102.150390625 c 0
 236.0078125 104.983398438 247.625 107.81640625 257.825195312 110.649414062 c 0
 268.025390625 113.482421875 279.641601562 117.590820312 292.674804688 122.973632812 c 0
 305.708007812 128.356445312 318.31640625 135.723632812 330.499023438 145.073242188 c 0
 342.682617188 154.423828125 354.157226562 165.615234375 364.923828125 178.6484375 c 0
 378.524414062 196.215820312 390.991210938 216.048828125 402.32421875 238.1484375 c 0
 413.657226562 260.248046875 421.307617188 280.6484375 425.274414062 299.348632812 c 2
 431.224609375 329.948242188 l 1
 410.82421875 306.1484375 l 2
 396.090820312 289.715820312 377.958007812 278.381835938 356.424804688 272.149414062 c 0
 335.458007812 265.349609375 308.541015625 261.94921875 275.673828125 261.94921875 c 0
 254.140625 261.94921875 233.458007812 267.616210938 213.625 278.94921875 c 0
 192.658203125 289.715820312 174.525390625 304.30859375 159.224609375 322.724609375 c 0
 143.924804688 341.141601562 131.7421875 362.391601562 122.674804688 386.474609375 c 0
 113.608398438 410.55859375 109.075195312 435.349609375 109.075195312 460.849609375 c 0
 109.075195312 491.450195312 114.174804688 520.067382812 124.375 546.700195312 c 0
 134.575195312 573.333007812 148.174804688 595.858398438 165.174804688 614.275390625 c 0
 182.174804688 632.692382812 202.291992188 647.284179688 225.525390625 658.05078125 c 0
 247.625 668.250976562 271.141601562 673.350585938 296.075195312 673.350585938 c 0
 356.708007812 673.350585938 403.174804688 648.41796875 435.474609375 598.55078125 c 0
 467.775390625 548.68359375 483.924804688 477.567382812 483.924804688 385.200195312 c 0
 483.924804688 337.033203125 478.541992188 293.966796875 467.775390625 256 c 0
207.674804688 359.69921875 m 0
 227.5078125 333.631835938 256.69140625 320.599609375 295.224609375 320.599609375 c 0
 319.024414062 320.599609375 342.256835938 326.548828125 364.923828125 338.44921875 c 0
 389.291015625 350.349609375 408.840820312 366.782226562 423.57421875 387.749023438 c 2
 425.274414062 390.298828125 l 1
 425.274414062 403.899414062 l 2
 425.274414062 419.766601562 424.423828125 441.016601562 422.724609375 467.649414062 c 2
 422.724609375 468.499023438 l 2
 419.890625 496.266601562 411.390625 522.899414062 397.224609375 548.399414062 c 0
 389.857421875 561.999023438 381.357421875 573.899414062 371.724609375 584.099609375 c 0
 362.657226562 594.298828125 351.607421875 602.657226562 338.57421875 609.173828125 c 0
 325.541015625 615.69140625 311.658203125 618.94921875 296.924804688 618.94921875 c 2
 295.224609375 618.94921875 l 2
 274.825195312 618.381835938 255.557617188 611.015625 237.424804688 596.848632812 c 0
 219.291992188 582.681640625 204.416992188 564.264648438 192.799804688 541.59765625 c 0
 181.182617188 518.930664062 175.375 495.4140625 175.375 471.046875 c 0
 175.375 422.879882812 186.141601562 385.766601562 207.674804688 359.69921875 c 0
EndSplineSet
Validated: 1
EndChar

StartChar: colon
Encoding: 58 58 27
Width: 548
VWidth: 887
GlyphClass: 2
Flags: HMW
HStem: 79.2367 115.705 307.036 114.872
VStem: 250.135 93.5008
LayerCount: 2
Fore
SplineSet
299.4375 307.036132812 m 2
 296.887695312 307.036132812 l 2
 283.287109375 307.602539062 272.520507812 310.15234375 264.586914062 314.685546875 c 0
 256.086914062 319.786132812 251.270507812 327.71875 250.137695312 338.486328125 c 0
 249.5703125 348.119140625 249.287109375 358.036132812 249.287109375 368.236328125 c 0
 249.002929688 373.051757812 248.861328125 377.797851562 248.861328125 382.47265625 c 0
 248.861328125 387.147460938 249.002929688 391.751953125 249.287109375 396.286132812 c 0
 249.854492188 401.953125 251.5546875 406.486328125 254.387695312 409.885742188 c 0
 257.220703125 413.286132812 260.903320312 415.8359375 265.436523438 417.536132812 c 0
 274.178710938 420.450195312 283.337890625 421.908203125 292.913085938 421.908203125 c 0
 294.508789062 421.908203125 296.1171875 421.8671875 297.736328125 421.786132812 c 0
 302.26953125 421.786132812 306.802734375 421.21875 311.3359375 420.0859375 c 0
 323.235351562 417.819335938 331.452148438 413.286132812 335.985351562 406.486328125 c 0
 338.818359375 402.518554688 340.518554688 397.418945312 341.0859375 391.185546875 c 0
 341.65234375 387.786132812 341.935546875 384.385742188 341.935546875 380.986328125 c 0
 341.935546875 366.252929688 339.668945312 350.669921875 335.135742188 334.236328125 c 0
 332.869140625 325.169921875 328.051757812 318.370117188 320.684570312 313.836914062 c 0
 313.317382812 309.303710938 306.237304688 307.036132812 299.4375 307.036132812 c 2
296.884765625 79.236328125 m 0
 286.118164062 79.236328125 275.634765625 82.63671875 265.434570312 89.4365234375 c 0
 256.934570312 94.537109375 252.118164062 101.620117188 250.984375 110.686523438 c 0
 250.41796875 125.986328125 250.134765625 134.486328125 250.134765625 136.186523438 c 0
 250.134765625 137.88671875 250.41796875 142.704101562 250.984375 150.63671875 c 0
 251.551757812 158.569335938 252.119140625 164.802734375 252.685546875 169.3359375 c 0
 252.685546875 174.435546875 254.102539062 178.685546875 256.935546875 182.0859375 c 0
 259.202148438 185.486328125 262.602539062 188.036132812 267.135742188 189.736328125 c 0
 277.051757812 193.206054688 286.317382812 194.942382812 294.931640625 194.942382812 c 0
 296.163085938 194.942382812 297.379882812 194.90625 298.584960938 194.8359375 c 0
 304.251953125 194.8359375 309.918945312 193.986328125 315.5859375 192.286132812 c 0
 321.818359375 190.5859375 327.485351562 187.185546875 332.5859375 182.0859375 c 0
 337.685546875 176.986328125 340.802734375 171.036132812 341.935546875 164.236328125 c 0
 343.068359375 156.869140625 343.635742188 149.786132812 343.635742188 142.986328125 c 0
 343.635742188 131.0859375 341.935546875 118.90234375 338.53515625 106.435546875 c 0
 336.268554688 97.369140625 330.6015625 90.5693359375 321.53515625 86.0361328125 c 0
 313.03515625 81.5029296875 304.817382812 79.236328125 296.884765625 79.236328125 c 0
EndSplineSet
Validated: 1
EndChar

StartChar: semicolon
Encoding: 59 59 28
Width: 548
VWidth: 864
GlyphClass: 2
Flags: HMW
HStem: 248.377 115.601
VStem: 274.261 93.2161
LayerCount: 2
Fore
SplineSet
350.4765625 81.77734375 m 0
 350.4765625 67.6103515625 332.059570312 -6.9072265625 295.2265625 -141.7734375 c 0
 292.393554688 -151.973632812 287.860351562 -159.056640625 281.626953125 -163.0234375 c 0
 275.393554688 -166.991210938 268.876953125 -168.973632812 262.077148438 -168.973632812 c 2
 260.376953125 -168.973632812 l 2
 250.744140625 -168.407226562 241.9609375 -165.290039062 234.028320312 -159.623046875 c 0
 228.361328125 -155.65625 225.528320312 -149.989257812 225.528320312 -142.622070312 c 0
 225.528320312 -132.989257812 231.477539062 -98.7060546875 243.377929688 -39.7734375 c 0
 254.14453125 12.3603515625 262.927734375 52.3095703125 269.727539062 80.0771484375 c 0
 271.427734375 87.4443359375 273.552734375 93.111328125 276.102539062 97.078125 c 0
 278.653320312 101.044921875 281.060546875 103.594726562 283.328125 104.727539062 c 0
 288.995117188 106.995117188 294.377929688 108.127929688 299.477539062 108.127929688 c 0
 301.177734375 108.127929688 303.161132812 107.844726562 305.427734375 107.27734375 c 2
 306.278320312 107.27734375 l 2
 315.911132812 107.27734375 325.828125 105.010742188 336.028320312 100.477539062 c 0
 341.127929688 98.2109375 345.094726562 95.09375 347.927734375 91.126953125 c 0
 349.627929688 88.8603515625 350.4765625 85.744140625 350.4765625 81.77734375 c 0
323.278320312 248.376953125 m 2
 317.044921875 248.944335938 310.383789062 250.359375 303.30078125 252.625976562 c 0
 296.217773438 254.892578125 289.985351562 258.434570312 284.6015625 263.251953125 c 0
 279.21875 268.069335938 276.244140625 273.59375 275.676757812 279.827148438 c 0
 275.110351562 289.459960938 274.685546875 299.235351562 274.40234375 309.15234375 c 0
 274.307617188 312.454101562 274.259765625 315.709960938 274.259765625 318.91796875 c 0
 274.259765625 325.34375 274.44921875 331.580078125 274.828125 337.627929688 c 0
 275.39453125 342.727539062 277.094726562 347.120117188 279.927734375 350.802734375 c 0
 282.760742188 354.486328125 286.727539062 357.177734375 291.828125 358.877929688 c 0
 296.927734375 360.578125 301.885742188 361.852539062 306.703125 362.703125 c 0
 311.51953125 363.552734375 315.203125 363.977539062 317.752929688 363.977539062 c 2
 323.278320312 363.977539062 l 2
 332.911132812 363.411132812 341.9765625 361.143554688 350.4765625 357.176757812 c 0
 355.008789062 355.4765625 358.694335938 352.501953125 361.52734375 348.251953125 c 0
 364.360351562 344.001953125 366.060546875 339.043945312 366.626953125 333.376953125 c 0
 367.194335938 329.9765625 367.4765625 326.577148438 367.4765625 323.176757812 c 0
 367.4765625 307.876953125 365.209960938 292.009765625 360.676757812 275.577148438 c 0
 358.41015625 266.509765625 353.592773438 259.709960938 346.2265625 255.176757812 c 0
 338.859375 250.643554688 331.776367188 248.376953125 324.9765625 248.376953125 c 2
 323.701171875 248.376953125 l 1
 323.278320312 248.376953125 l 2
EndSplineSet
Validated: 1
EndChar

StartChar: less
Encoding: 60 60 29
Width: 548
VWidth: 902
GlyphClass: 2
Flags: HMW
HStem: 633.05 17G<455.592 461.826>
LayerCount: 2
Fore
SplineSet
490.724609375 603.299804688 m 0
 485.05859375 594.233398438 473.158203125 583.18359375 455.025390625 570.150390625 c 0
 423.291992188 548.049804688 375.125 511.783203125 310.525390625 461.349609375 c 0
 245.358398438 410.349609375 201.158203125 376.067382812 177.924804688 358.5 c 1
 187.275390625 352.549804688 l 2
 208.80859375 335.549804688 233.174804688 314.8671875 260.375 290.5 c 0
 287.575195312 266.1328125 311.375 244.31640625 331.775390625 225.048828125 c 0
 352.174804688 205.215820312 374.275390625 185.099609375 398.075195312 164.69921875 c 0
 422.442382812 144.298828125 443.409179688 128.432617188 460.975585938 117.099609375 c 0
 479.109375 105.19921875 490.725585938 95.2822265625 495.826171875 87.349609375 c 0
 498.092773438 83.94921875 499.225585938 80.2666015625 499.225585938 76.298828125 c 0
 499.225585938 74.599609375 498.659179688 71.7666015625 497.526367188 67.798828125 c 0
 495.826171875 63.2666015625 492.708984375 59.5830078125 488.17578125 56.75 c 0
 483.642578125 53.9169921875 477.125976562 51.93359375 468.625976562 50.80078125 c 0
 466.359375 50.234375 464.375976562 49.951171875 462.67578125 49.951171875 c 0
 455.30859375 49.951171875 447.091796875 51.6513671875 438.025390625 55.05078125 c 0
 423.858398438 59.583984375 406.858398438 69.216796875 387.025390625 83.9501953125 c 0
 366.625 98.68359375 344.525390625 116.81640625 320.724609375 138.349609375 c 0
 296.924804688 159.881835938 273.125 181.69921875 249.325195312 203.798828125 c 0
 225.525390625 225.899414062 200.30859375 248.56640625 173.674804688 271.798828125 c 0
 147.041992188 295.032226562 124.375 313.44921875 105.674804688 327.048828125 c 0
 100.0078125 331.58203125 96.3251953125 337.815429688 94.625 345.748046875 c 0
 94.05859375 349.715820312 93.775390625 353.682617188 93.775390625 357.649414062 c 0
 93.775390625 361.616210938 94.341796875 365.583007812 95.474609375 369.549804688 c 0
 97.7421875 376.916992188 101.424804688 382.299804688 106.525390625 385.700195312 c 0
 138.825195312 409.5 176.791992188 439.533203125 220.424804688 475.799804688 c 0
 264.05859375 512.067382812 303.724609375 544.650390625 339.424804688 573.549804688 c 0
 375.692382812 602.450195312 407.708984375 625.1171875 435.475585938 641.549804688 c 0
 443.975585938 647.216796875 451.909179688 650.049804688 459.276367188 650.049804688 c 0
 464.375976562 650.049804688 468.625976562 648.916992188 472.026367188 646.650390625 c 0
 481.659179688 641.549804688 488.458984375 634.466796875 492.42578125 625.400390625 c 0
 494.125976562 621.43359375 494.975585938 617.75 494.975585938 614.349609375 c 0
 494.409179688 610.950195312 492.9921875 607.266601562 490.724609375 603.299804688 c 0
EndSplineSet
Validated: 1
EndChar

StartChar: equal
Encoding: 61 61 30
Width: 548
VWidth: 908
GlyphClass: 2
Flags: HMW
HStem: 276.566 53.6273 443.164 56.179
LayerCount: 2
Fore
SplineSet
171.975585938 499.342773438 m 2
 174.525390625 499.342773438 l 2
 206.825195312 498.209960938 239.975585938 497.643554688 273.975585938 497.643554688 c 0
 308.541992188 497.643554688 340.559570312 497.92578125 370.026367188 498.493164062 c 0
 399.493164062 499.060546875 417.342773438 499.342773438 423.576171875 499.342773438 c 0
 434.342773438 498.776367188 441.42578125 496.509765625 444.826171875 492.541992188 c 0
 448.79296875 488.575195312 451.059570312 482.908203125 451.626953125 475.541992188 c 0
 451.059570312 460.80859375 446.809570312 451.741210938 438.876953125 448.341796875 c 0
 436.610351562 447.208007812 434.059570312 446.641601562 431.2265625 446.641601562 c 2
 424.426757812 446.641601562 l 2
 411.393554688 447.208007812 399.494140625 447.491210938 388.7265625 447.491210938 c 2
 358.9765625 447.491210938 l 1
 265.4765625 444.94140625 l 2
 226.376953125 443.80859375 197.4765625 443.241210938 178.77734375 443.241210938 c 0
 177.642578125 443.190429688 176.53515625 443.1640625 175.452148438 443.1640625 c 0
 164.634765625 443.1640625 156.392578125 445.740234375 150.7265625 450.891601562 c 0
 144.494140625 455.991210938 141.376953125 462.224609375 141.376953125 469.591796875 c 2
 141.376953125 472.141601562 l 2
 141.943359375 479.508789062 144.494140625 485.741210938 149.02734375 490.841796875 c 0
 154.126953125 496.508789062 161.775390625 499.342773438 171.975585938 499.342773438 c 2
177.077148438 330.19140625 m 2
 195.209960938 329.625 216.743164062 329.341796875 241.67578125 329.341796875 c 0
 267.17578125 329.908203125 297.776367188 330.475585938 333.475585938 331.041992188 c 2
 423.576171875 332.7421875 l 2
 434.342773438 332.7421875 441.42578125 330.759765625 444.826171875 326.791992188 c 0
 448.79296875 322.259765625 451.059570312 316.309570312 451.626953125 308.942382812 c 0
 451.626953125 299.875 449.926757812 292.791992188 446.52734375 287.692382812 c 0
 444.259765625 284.859375 441.709960938 282.875976562 438.876953125 281.743164062 c 0
 436.610351562 280.610351562 434.059570312 280.04296875 431.2265625 280.04296875 c 2
 424.426757812 280.04296875 l 2
 410.259765625 280.610351562 394.392578125 280.893554688 376.826171875 280.893554688 c 0
 359.258789062 280.893554688 321.291992188 280.04296875 262.924804688 278.342773438 c 0
 222.692382812 277.209960938 193.508789062 276.643554688 175.375976562 276.643554688 c 0
 174.293945312 276.591796875 173.239257812 276.56640625 172.213867188 276.56640625 c 0
 161.958007812 276.56640625 154.51171875 279.141601562 149.875976562 284.29296875 c 0
 144.208984375 289.959960938 141.375976562 296.759765625 141.375976562 304.693359375 c 2
 141.375976562 306.393554688 l 2
 141.943359375 313.193359375 144.776367188 318.860351562 149.875976562 323.393554688 c 0
 154.975585938 327.92578125 163.475585938 330.193359375 175.375976562 330.193359375 c 2
 177.077148438 330.19140625 l 2
EndSplineSet
Validated: 1
EndChar

StartChar: greater
Encoding: 62 62 31
Width: 548
VWidth: 903
GlyphClass: 2
Flags: HMW
HStem: 640.05 17G<129.473 134.007>
LayerCount: 2
Fore
SplineSet
497.524414062 337.450195312 m 0
 495.2578125 330.083007812 491.575195312 324.700195312 486.474609375 321.299804688 c 0
 454.174804688 297.5 416.208007812 267.466796875 372.575195312 231.200195312 c 0
 328.94140625 194.932617188 289.274414062 162.349609375 253.575195312 133.450195312 c 0
 217.307617188 105.1171875 185.291015625 82.4501953125 157.524414062 65.4501953125 c 0
 149.024414062 59.783203125 140.806640625 56.9501953125 132.874023438 56.9501953125 c 0
 128.340820312 56.9501953125 124.374023438 58.0830078125 120.973632812 60.349609375 c 0
 111.340820312 65.4501953125 104.541015625 72.533203125 100.57421875 81.599609375 c 0
 98.8740234375 85.5673828125 98.0244140625 89.25 98.0244140625 92.650390625 c 0
 98.0244140625 96.0498046875 99.1572265625 99.7333984375 101.423828125 103.700195312 c 0
 107.090820312 112.766601562 119.274414062 123.817382812 137.973632812 136.849609375 c 0
 169.70703125 158.950195312 217.874023438 195.216796875 282.473632812 245.650390625 c 0
 347.07421875 296.650390625 388.44140625 328.666992188 406.57421875 341.700195312 c 2
 415.07421875 348.5 l 1
 406.57421875 354.450195312 l 2
 384.473632812 371.450195312 359.82421875 392.1328125 332.624023438 416.5 c 0
 305.423828125 440.8671875 281.624023438 462.68359375 261.223632812 481.951171875 c 0
 240.82421875 501.784179688 218.723632812 521.900390625 194.923828125 542.30078125 c 0
 170.556640625 562.701171875 149.58984375 578.567382812 132.0234375 589.900390625 c 0
 113.890625 601.80078125 102.2734375 611.717773438 97.1728515625 619.650390625 c 0
 94.90625 623.618164062 93.7734375 627.584960938 93.7734375 631.551757812 c 0
 93.7734375 632.684570312 94.33984375 635.234375 95.4736328125 639.201171875 c 0
 97.1728515625 643.734375 100.290039062 647.41796875 104.823242188 650.250976562 c 0
 109.356445312 653.083984375 115.873046875 655.067382812 124.373046875 656.200195312 c 0
 126.640625 656.766601562 128.623046875 657.049804688 130.323242188 657.049804688 c 0
 137.690429688 657.049804688 145.907226562 655.349609375 154.973632812 651.950195312 c 0
 168.57421875 647.416992188 185.57421875 637.784179688 205.973632812 623.05078125 c 0
 226.374023438 608.317382812 248.473632812 590.184570312 272.274414062 568.651367188 c 0
 296.07421875 547.118164062 319.874023438 525.301757812 343.673828125 503.201171875 c 0
 367.473632812 481.1015625 392.69140625 458.434570312 419.32421875 435.201171875 c 0
 445.390625 411.96875 468.057617188 393.551757812 487.325195312 379.951171875 c 0
 492.9921875 375.418945312 496.674804688 369.185546875 498.375 361.252929688 c 0
 498.94140625 357.28515625 499.224609375 353.318359375 499.224609375 349.3515625 c 0
 499.224609375 345.384765625 498.658203125 341.416992188 497.524414062 337.450195312 c 0
EndSplineSet
Validated: 1
EndChar

StartChar: question
Encoding: 63 63 32
Width: 548
VWidth: 903
GlyphClass: 2
Flags: HMW
HStem: 49.6941 113.945 603.045 55.2491
VStem: 217.017 121.55 396.367 68.0008
LayerCount: 2
Fore
SplineSet
464.3671875 496.795898438 m 0
 464.3671875 482.62890625 462.100585938 469.595703125 457.567382812 457.6953125 c 0
 453.034179688 446.362304688 447.083984375 436.4453125 439.717773438 427.9453125 c 0
 432.350585938 419.4453125 423.850585938 411.228515625 414.217773438 403.295898438 c 0
 404.017578125 395.928710938 393.817382812 388.278320312 383.6171875 380.345703125 c 0
 373.416992188 372.413085938 363.500976562 363.913085938 353.8671875 354.845703125 c 0
 344.80078125 345.212890625 336.583984375 333.879882812 329.216796875 320.846679688 c 0
 321.849609375 307.813476562 317.033203125 293.36328125 314.765625 277.49609375 c 0
 312.499023438 264.463867188 307.965820312 254.546875 301.166015625 247.74609375 c 0
 297.19921875 244.346679688 291.815429688 242.646484375 285.015625 242.646484375 c 0
 281.616210938 242.080078125 277.932617188 242.362304688 273.965820312 243.49609375 c 0
 260.932617188 246.895507812 252.432617188 252.845703125 248.465820312 261.345703125 c 0
 246.19921875 265.87890625 245.065429688 271.26171875 245.065429688 277.495117188 c 0
 245.065429688 284.294921875 245.916015625 291.662109375 247.616210938 299.594726562 c 0
 251.583007812 313.76171875 257.25 327.362304688 264.616210938 340.39453125 c 0
 271.983398438 353.427734375 279.916992188 364.477539062 288.416992188 373.544921875 c 0
 297.483398438 383.177734375 306.833984375 392.245117188 316.466796875 400.745117188 c 0
 326.099609375 409.245117188 335.44921875 417.461914062 344.516601562 425.39453125 c 0
 353.583984375 433.328125 362.083984375 441.544921875 370.016601562 450.044921875 c 0
 377.383789062 458.544921875 383.616210938 467.89453125 388.716796875 478.094726562 c 0
 393.81640625 488.294921875 396.366210938 499.344726562 396.366210938 511.245117188 c 0
 396.366210938 543.544921875 386.733398438 567.061523438 367.466796875 581.794921875 c 0
 349.333984375 595.961914062 323.266601562 603.044921875 289.266601562 603.044921875 c 0
 280.19921875 603.044921875 271.1328125 601.061523438 262.065429688 597.094726562 c 0
 252.999023438 593.6953125 245.348632812 589.4453125 239.116210938 584.344726562 c 0
 232.8828125 579.245117188 226.366210938 572.727539062 219.565429688 564.794921875 c 0
 212.19921875 556.294921875 206.815429688 549.495117188 203.416015625 544.39453125 c 0
 200.015625 539.294921875 195.765625 533.061523438 190.666015625 525.6953125 c 0
 185.565429688 518.328125 181.315429688 512.9453125 177.916015625 509.544921875 c 0
 174.515625 506.711914062 171.116210938 505.01171875 167.715820312 504.4453125 c 2
 162.616210938 504.4453125 l 2
 160.916015625 504.4453125 158.6484375 504.727539062 155.815429688 505.294921875 c 0
 152.982421875 505.862304688 148.44921875 507.561523438 142.216796875 510.39453125 c 0
 135.416992188 514.362304688 131.166992188 519.745117188 129.466796875 526.544921875 c 0
 128.887695312 528.279296875 128.532226562 530.862304688 128.532226562 534.594726562 c 0
 128.532226562 541.072265625 130.827148438 549.155273438 135.416992188 558.844726562 c 0
 147.883789062 582.078125 165.733398438 603.611328125 188.966796875 623.444335938 c 0
 201.43359375 634.2109375 216.166992188 642.7109375 233.166992188 648.944335938 c 0
 250.166992188 655.176757812 267.733398438 658.293945312 285.866210938 658.293945312 c 0
 344.799804688 658.293945312 389.283203125 644.977539062 419.315429688 618.34375 c 0
 449.348632812 591.7109375 464.3671875 551.1953125 464.3671875 496.795898438 c 0
278.215820312 49.6943359375 m 2
 270.56640625 49.6943359375 l 2
 269.790039062 49.6640625 269.021484375 49.6494140625 268.260742188 49.6494140625 c 0
 254.557617188 49.6494140625 243.143554688 54.4814453125 234.017578125 64.14453125 c 0
 222.684570312 76.611328125 217.017578125 91.060546875 217.017578125 107.494140625 c 0
 217.017578125 122.227539062 223.250976562 134.977539062 235.717773438 145.744140625 c 0
 249.317382812 157.64453125 265.184570312 163.59375 283.317382812 163.59375 c 0
 284.123046875 163.624023438 284.920898438 163.638671875 285.711914062 163.638671875 c 0
 299.952148438 163.638671875 311.903320312 158.806640625 321.56640625 149.14453125 c 0
 332.899414062 138.376953125 338.56640625 125.060546875 338.56640625 109.193359375 c 0
 338.56640625 93.326171875 333.18359375 80.009765625 322.416992188 69.2421875 c 0
 311.083984375 58.4755859375 296.348632812 51.9609375 278.215820312 49.6943359375 c 2
EndSplineSet
Validated: 1
EndChar

StartChar: at
Encoding: 64 64 33
Width: 548
VWidth: 892
GlyphClass: 2
Flags: HMW
HStem: -59.0249 56.1042 137.329 50.15 150.929 51.8517 375.332 48.4483 572.529 59.4975
VStem: 85.2742 56.9542 189.826 49.3025 344.528 51.8508 461.829 45.8975
LayerCount: 2
Fore
SplineSet
465.224609375 50.625 m 0xdf80
 462.391601562 42.6923828125 459.275390625 35.892578125 455.875 30.2255859375 c 0
 453.041992188 23.9921875 449.075195312 16.9091796875 443.974609375 8.9755859375 c 0
 438.875 0.4755859375 433.4921875 -6.607421875 427.825195312 -12.2744140625 c 0
 422.158203125 -17.94140625 414.791015625 -23.890625 405.724609375 -30.1240234375 c 0
 397.224609375 -36.357421875 387.590820312 -41.45703125 376.82421875 -45.423828125 c 0
 366.057617188 -49.390625 353.590820312 -52.5078125 339.423828125 -54.7744140625 c 0
 325.256835938 -57.607421875 310.5234375 -59.0244140625 295.223632812 -59.0244140625 c 2
 290.123046875 -59.0244140625 l 2
 261.790039062 -59.0244140625 235.157226562 -51.94140625 210.224609375 -37.7744140625 c 0
 184.724609375 -23.607421875 162.907226562 -3.7744140625 144.774414062 21.7255859375 c 0
 126.641601562 47.2255859375 112.19140625 78.392578125 101.423828125 115.225585938 c 0
 90.6572265625 152.625 85.2744140625 193.142578125 85.2744140625 236.775390625 c 0
 85.8408203125 286.075195312 89.80859375 331.975585938 97.1748046875 374.475585938 c 0
 105.108398438 417.541992188 115.875 454.659179688 129.474609375 485.826171875 c 0
 143.075195312 516.993164062 159.224609375 543.625976562 177.924804688 565.725585938 c 0
 196.05859375 588.392578125 216.174804688 605.110351562 238.275390625 615.876953125 c 0
 260.375 626.643554688 283.608398438 632.026367188 307.974609375 632.026367188 c 0
 326.674804688 632.026367188 343.391601562 630.610351562 358.125 627.776367188 c 0
 373.424804688 624.943359375 387.875 620.126953125 401.474609375 613.327148438 c 0
 415.075195312 606.526367188 426.974609375 597.459960938 437.174804688 586.126953125 c 0
 447.942382812 574.793945312 457.859375 560.626953125 466.92578125 543.626953125 c 0
 475.993164062 526.626953125 483.359375 506.509765625 489.026367188 483.276367188 c 0
 501.494140625 432.84375 507.7265625 368.810546875 507.7265625 291.177734375 c 0
 507.16015625 250.944335938 501.209960938 215.811523438 489.876953125 185.778320312 c 0
 484.209960938 170.478515625 476.276367188 158.578125 466.077148438 150.078125 c 0
 456.443359375 141.578125 444.827148438 137.328125 431.2265625 137.328125 c 0xdf80
 411.393554688 137.895507812 396.376953125 144.412109375 386.176757812 156.87890625 c 0
 377.676757812 167.079101562 372.293945312 182.096679688 370.026367188 201.9296875 c 2
 366.626953125 240.1796875 l 1
 353.876953125 203.62890625 l 2
 348.209960938 187.76171875 340.842773438 175.579101562 331.776367188 167.079101562 c 0
 321.008789062 156.3125 306.55859375 150.9296875 288.42578125 150.9296875 c 0
 257.258789062 151.49609375 233.17578125 161.413085938 216.17578125 180.6796875 c 0
 198.609375 199.947265625 189.826171875 229.98046875 189.826171875 270.780273438 c 0
 189.826171875 291.1796875 192.092773438 310.163085938 196.625976562 327.73046875 c 0
 201.159179688 345.296875 207.391601562 360.030273438 215.325195312 371.9296875 c 0
 223.2578125 383.263671875 232.325195312 393.1796875 242.525390625 401.6796875 c 0
 253.291992188 410.1796875 264.05859375 416.129882812 274.826171875 419.530273438 c 0
 285.592773438 422.36328125 296.359375 423.780273438 307.126953125 423.780273438 c 0
 322.426757812 423.780273438 337.16015625 420.947265625 351.327148438 415.280273438 c 0
 363.2265625 410.747070312 372.577148438 404.796875 379.376953125 397.4296875 c 0
 383.34375 392.897460938 385.327148438 389.213867188 385.327148438 386.380859375 c 0
 385.327148438 385.248046875 385.043945312 384.115234375 384.4765625 382.981445312 c 0
 381.077148438 376.181640625 376.827148438 371.931640625 371.7265625 370.231445312 c 0
 366.059570312 368.532226562 361.809570312 367.681640625 358.9765625 367.681640625 c 0
 354.443359375 368.249023438 348.2109375 369.381835938 340.27734375 371.08203125 c 2
 327.52734375 373.631835938 l 2
 322.427734375 374.764648438 317.610351562 375.33203125 313.077148438 375.33203125 c 2
 302.877929688 375.33203125 l 2
 294.944335938 374.764648438 287.01171875 371.931640625 279.078125 366.83203125 c 0
 271.145507812 361.731445312 264.345703125 355.499023438 258.678710938 348.131835938 c 0
 252.4453125 341.33203125 247.627929688 331.98046875 244.228515625 320.080078125 c 0
 240.828125 308.1796875 239.127929688 295.1484375 239.127929688 280.981445312 c 0
 239.127929688 273.615234375 239.6953125 266.248046875 240.828125 258.880859375 c 0
 241.395507812 252.081054688 243.095703125 244.145507812 245.928710938 235.078125 c 0
 248.76171875 226.01171875 253.578125 218.364257812 260.377929688 212.130859375 c 0
 267.178710938 205.897460938 275.678710938 202.78125 285.877929688 202.78125 c 0xbf80
 306.845703125 202.78125 321.862304688 211.28125 330.9296875 228.28125 c 0
 338.862304688 243.013671875 343.395507812 267.096679688 344.528320312 300.530273438 c 0
 345.095703125 306.197265625 350.762695312 311.296875 361.529296875 315.830078125 c 0
 370.029296875 318.663085938 377.396484375 320.080078125 383.62890625 320.080078125 c 0
 387.595703125 320.080078125 391.27734375 319.513671875 394.677734375 318.379882812 c 0
 398.077148438 316.6796875 399.779296875 314.697265625 399.779296875 312.4296875 c 2
 399.779296875 310.73046875 l 2
 397.512695312 289.763671875 396.37890625 272.196289062 396.37890625 258.029296875 c 0
 396.37890625 250.662109375 396.662109375 244.145507812 397.229492188 238.478515625 c 0
 399.49609375 220.345703125 402.896484375 207.595703125 407.4296875 200.228515625 c 0
 413.095703125 191.728515625 421.026367188 187.478515625 431.2265625 187.478515625 c 0
 439.7265625 187.478515625 446.24609375 192.861328125 450.779296875 203.62890625 c 0
 454.1796875 212.12890625 456.729492188 222.611328125 458.4296875 235.078125 c 0
 460.696289062 256.045898438 461.829101562 275.595703125 461.829101562 293.728515625 c 0
 461.829101562 323.1953125 460.696289062 350.108398438 458.4296875 374.475585938 c 0
 455.595703125 399.408203125 452.1953125 420.662109375 448.228515625 438.229492188 c 0
 444.26171875 456.362304688 439.161132812 472.512695312 432.928710938 486.6796875 c 0
 426.6953125 501.412109375 420.462890625 513.3125 414.23046875 522.37890625 c 0
 407.997070312 531.446289062 400.629882812 539.37890625 392.129882812 546.1796875 c 0
 383.629882812 552.412109375 376.259765625 557.229492188 370.026367188 560.62890625 c 0
 363.793945312 564.596679688 356.4296875 567.4296875 347.9296875 569.12890625 c 0
 339.4296875 570.829101562 333.197265625 571.6796875 329.23046875 571.6796875 c 0
 325.262695312 572.24609375 320.446289062 572.529296875 314.779296875 572.529296875 c 0
 290.412109375 571.961914062 267.745117188 564.3125 246.778320312 549.579101562 c 0
 225.811523438 534.846679688 207.678710938 514.446289062 192.377929688 488.37890625 c 0
 177.078125 461.74609375 164.895507812 429.446289062 155.828125 391.479492188 c 0
 146.76171875 353.512695312 142.228515625 312.145507812 142.228515625 267.37890625 c 0
 142.794921875 228.278320312 145.912109375 193.145507812 151.579101562 161.978515625 c 0
 157.8125 130.245117188 165.745117188 104.461914062 175.377929688 84.62890625 c 0
 185.01171875 64.7958984375 196.624023438 48.0791015625 210.224609375 34.4794921875 c 0
 223.256835938 20.87890625 236.861328125 11.24609375 251.028320312 5.5791015625 c 0
 265.1953125 -0.087890625 279.923828125 -2.9208984375 295.223632812 -2.9208984375 c 0
 309.956054688 -2.9208984375 323.844726562 -1.50390625 336.877929688 1.3291015625 c 0
 349.91015625 4.162109375 360.677734375 7.845703125 369.177734375 12.37890625 c 0
 378.244140625 16.9111328125 386.744140625 22.8583984375 394.677734375 30.2255859375 c 0
 402.044921875 37.025390625 407.994140625 43.5458984375 412.52734375 49.7783203125 c 0
 416.494140625 56.01171875 421.311523438 63.6611328125 426.978515625 72.728515625 c 0
 429.245117188 76.6953125 431.228515625 79.8125 432.928710938 82.0791015625 c 0
 434.627929688 83.779296875 436.328125 86.0458984375 438.028320312 88.87890625 c 0
 440.294921875 91.7119140625 441.995117188 93.6953125 443.127929688 94.828125 c 2
 448.228515625 97.37890625 l 2
 450.495117188 99.078125 453.612304688 99.078125 457.579101562 97.37890625 c 0
 463.8125 95.111328125 468.0625 91.4287109375 470.329101562 86.328125 c 0
 471.461914062 84.0615234375 472.029296875 81.794921875 472.029296875 79.52734375 c 0
 472.029296875 72.1611328125 469.7578125 62.525390625 465.224609375 50.625 c 0xdf80
EndSplineSet
Validated: 1
EndChar

StartChar: A
Encoding: 65 65 34
Width: 548
VWidth: 905
GlyphClass: 2
Flags: HMW
HStem: 285.775 43.3483
VStem: 86.1242 61.2009
LayerCount: 2
Fore
SplineSet
326.67578125 571.372070312 m 2
 303.442382812 532.838867188 270.29296875 451.805664062 227.225585938 328.2734375 c 2
 222.975585938 315.5234375 l 1
 234.875976562 317.22265625 l 2
 288.142578125 324.0234375 335.459960938 327.990234375 376.827148438 329.123046875 c 2
 386.176757812 329.123046875 l 1
 336.876953125 588.373046875 l 1
 326.67578125 571.372070312 l 2
438.875 101.32421875 m 0
 432.075195312 118.890625 417.625 180.375 395.525390625 285.774414062 c 0
 393.825195312 291.44140625 391.841796875 291.44140625 389.575195312 285.774414062 c 1
 322.141601562 282.375 260.091796875 275.856445312 203.424804688 266.223632812 c 1
 184.724609375 216.356445312 166.025390625 161.107421875 147.325195312 100.474609375 c 0
 142.791992188 85.1748046875 136.275390625 75.2548828125 127.775390625 70.7216796875 c 0
 123.2421875 68.455078125 118.9921875 67.322265625 115.025390625 67.322265625 c 0
 111.05859375 67.322265625 107.090820312 68.171875 103.124023438 69.8720703125 c 0
 91.791015625 74.4052734375 86.1240234375 84.607421875 86.1240234375 100.474609375 c 0
 86.1240234375 107.274414062 87.2568359375 115.208007812 89.5244140625 124.274414062 c 0
 93.4912109375 144.107421875 110.491210938 190.291015625 140.524414062 262.82421875 c 1
 138.256835938 269.624023438 136.274414062 270.756835938 134.57421875 266.223632812 c 1
 127.20703125 271.32421875 123.524414062 277.2734375 123.524414062 284.07421875 c 2
 123.524414062 284.923828125 l 2
 122.95703125 290.0234375 125.506835938 295.124023438 131.173828125 300.223632812 c 0
 138.541015625 306.45703125 147.608398438 311.2734375 158.375 314.673828125 c 1
 159.5078125 320.340820312 160.641601562 320.623046875 161.774414062 315.5234375 c 1
 228.641601562 479.856445312 279.358398438 588.939453125 313.924804688 642.7734375 c 0
 321.291992188 653.540039062 327.383789062 661.047851562 332.201171875 665.297851562 c 0
 337.017578125 669.547851562 342.259765625 671.672851562 347.926757812 671.672851562 c 2
 348.776367188 671.672851562 l 1
 353.876953125 671.672851562 l 2
 360.109375 671.672851562 366.059570312 669.97265625 371.7265625 666.573242188 c 0
 377.393554688 663.172851562 381.077148438 656.373046875 382.776367188 646.172851562 c 0
 394.109375 575.90625 413.66015625 476.172851562 441.426757812 346.97265625 c 0
 469.193359375 217.206054688 488.744140625 142.40625 500.077148438 122.573242188 c 0
 504.609375 114.639648438 506.876953125 107.556640625 506.876953125 101.32421875 c 0
 506.309570312 100.756835938 506.026367188 99.9072265625 506.026367188 98.7734375 c 0
 505.459960938 91.4072265625 503.334960938 85.314453125 499.651367188 80.498046875 c 0
 495.96875 75.6806640625 491.577148438 72.138671875 486.4765625 69.8720703125 c 0
 482.509765625 68.171875 478.54296875 67.322265625 474.576171875 67.322265625 c 0
 470.04296875 67.322265625 465.509765625 68.455078125 460.9765625 70.7216796875 c 0
 451.91015625 75.2548828125 444.541992188 85.45703125 438.875 101.32421875 c 0
EndSplineSet
Validated: 1
EndChar

StartChar: B
Encoding: 66 66 35
Width: 548
VWidth: 899
GlyphClass: 2
Flags: HMW
HStem: 32.6853 67.4621 310.947 44.1992 593.999 42.4983
VStem: 106.523 66.1298 109.923 70.5491 391.273 61.2009 420.175 67.9983
LayerCount: 2
Fore
SplineSet
379.370117188 270.999023438 m 0xea
 367.470703125 278.932617188 351.178710938 286.440429688 330.495117188 293.5234375 c 0
 309.8125 300.606445312 286.154296875 306.4140625 259.521484375 310.947265625 c 1
 258.671875 310.947265625 l 2
 220.138671875 310.947265625 191.805664062 310.6640625 173.671875 310.09765625 c 1
 176.504882812 213.197265625 178.772460938 142.647460938 180.47265625 98.447265625 c 1
 191.805664062 99.580078125 204.272460938 100.147460938 217.872070312 100.147460938 c 0
 231.47265625 100.71484375 241.671875 100.997070312 248.47265625 100.997070312 c 0
 272.838867188 102.130859375 295.930664062 106.6640625 317.748046875 114.596679688 c 0
 339.565429688 122.529296875 357.556640625 132.446289062 371.723632812 144.346679688 c 0
 385.890625 155.6796875 397.5078125 168.004882812 406.57421875 181.321289062 c 0
 415.641601562 194.638671875 420.174804688 207.247070312 420.174804688 219.146484375 c 0
 420.174804688 236.713867188 406.5703125 253.999023438 379.370117188 270.999023438 c 0xea
183.0234375 582.946289062 m 2
 177.073242188 581.247070312 l 1
 177.073242188 566.513671875 176.505859375 547.247070312 175.373046875 523.446289062 c 0
 173.559570312 478.116210938 172.653320312 433.692382812 172.653320312 390.17578125 c 0
 172.653320312 379.29296875 172.708984375 368.465820312 172.823242188 357.696289062 c 1
 203.422851562 355.997070312 229.7734375 355.146484375 251.873046875 355.146484375 c 0
 268.305664062 355.146484375 283.180664062 356.705078125 296.498046875 359.821289062 c 0
 309.815429688 362.938476562 321.290039062 366.905273438 330.922851562 371.72265625 c 0
 340.555664062 376.5390625 349.055664062 382.489257812 356.422851562 389.572265625 c 0
 363.790039062 396.655273438 369.456054688 403.880859375 373.422851562 411.247070312 c 0
 377.389648438 418.614257812 380.791015625 426.547851562 383.624023438 435.047851562 c 0
 386.45703125 443.547851562 388.440429688 451.48046875 389.573242188 458.84765625 c 0
 390.706054688 466.21484375 391.2734375 473.581054688 391.2734375 480.948242188 c 0xf4
 390.706054688 496.815429688 387.588867188 511.547851562 381.921875 525.1484375 c 0
 376.254882812 538.748046875 368.888671875 549.65625 359.821289062 557.873046875 c 0
 350.754882812 566.08984375 340.837890625 573.032226562 330.0703125 578.69921875 c 0
 310.803710938 588.899414062 290.403320312 593.999023438 268.870117188 593.999023438 c 0
 239.970703125 593.999023438 211.356445312 590.313476562 183.0234375 582.946289062 c 2
472.44921875 160.497070312 m 0
 461.966796875 140.6640625 446.6640625 122.106445312 426.546875 104.823242188 c 0
 406.430664062 87.5400390625 381.639648438 72.9482421875 352.172851562 61.0478515625 c 0
 323.2734375 49.1484375 291.255859375 41.498046875 256.123046875 38.0986328125 c 1
 239.391601562 32.685546875 l 2
 235.3359375 32.685546875 231.280273438 33.6396484375 227.224609375 35.5478515625 c 2
 211.4765625 30.1357421875 l 2
 207.659179688 30.1357421875 203.841796875 31.08984375 200.0234375 32.998046875 c 0
 183.0234375 31.2978515625 169.70703125 30.4482421875 160.07421875 30.4482421875 c 0
 153.840820312 30.4482421875 147.890625 31.015625 142.223632812 32.1484375 c 2
 138.82421875 32.1484375 l 2
 129.756835938 31.5810546875 122.389648438 34.4140625 116.72265625 40.6474609375 c 0
 112.190429688 45.7470703125 109.922851562 52.830078125 109.922851562 61.8974609375 c 2
 109.922851562 66.1474609375 l 2xea
 111.055664062 83.71484375 111.623046875 113.181640625 111.623046875 154.547851562 c 0
 111.623046875 231.615234375 109.922851562 316.8984375 106.5234375 410.3984375 c 0
 105.389648438 448.365234375 104.823242188 473.723632812 104.823242188 486.473632812 c 0
 104.823242188 499.223632812 105.389648438 516.6484375 106.5234375 538.748046875 c 0
 107.65625 560.848632812 108.22265625 576.1484375 108.22265625 584.6484375 c 0
 108.790039062 597.681640625 112.33203125 607.314453125 118.848632812 613.547851562 c 0
 125.366210938 619.780273438 133.157226562 622.897460938 142.223632812 622.897460938 c 2
 145.625 622.897460938 l 1
 146.474609375 622.897460938 l 2
 156.107421875 625.73046875 165.740234375 627.997070312 175.373046875 629.697265625 c 0
 194.073242188 633.09765625 211.07421875 635.080078125 226.374023438 635.647460938 c 0
 234.874023438 636.21484375 241.390625 636.497070312 245.923828125 636.497070312 c 2
 262.07421875 636.497070312 l 1
 270.57421875 636.497070312 l 2
 304.57421875 636.497070312 334.607421875 629.697265625 360.673828125 616.09765625 c 0
 387.874023438 602.497070312 409.973632812 582.805664062 426.973632812 557.022460938 c 0
 443.973632812 531.239257812 452.473632812 500.497070312 452.473632812 464.797851562 c 0xf4
 452.473632812 434.764648438 445.390625 408.981445312 431.223632812 387.448242188 c 0
 417.056640625 365.915039062 397.790039062 350.047851562 373.422851562 339.848632812 c 1
 366.623046875 331.348632812 360.106445312 328.515625 353.873046875 331.348632812 c 1
 360.672851562 322.848632812 367.190429688 320.297851562 373.422851562 323.698242188 c 1
 390.990234375 317.46484375 408.698242188 308.540039062 426.547851562 296.922851562 c 0
 444.3984375 285.306640625 459.130859375 272.4140625 470.748046875 258.247070312 c 0
 482.365234375 244.080078125 488.172851562 231.61328125 488.172851562 220.846679688 c 2
 488.172851562 219.146484375 l 2xe2
 488.172851562 199.879882812 482.932617188 180.330078125 472.44921875 160.497070312 c 0
EndSplineSet
Validated: 1
EndChar

StartChar: C
Encoding: 67 67 36
Width: 548
VWidth: 903
GlyphClass: 2
Flags: HMW
HStem: 26.9011 61.2009 605.752 53.5491
VStem: 93.6991 68.8491 427.75 70.5508
LayerCount: 2
Fore
SplineSet
487.25 523.725585938 m 0
 479.8828125 513.2421875 472.799804688 507.434570312 466 506.30078125 c 2
 460.900390625 506.30078125 l 2
 454.099609375 506.30078125 447.016601562 508.568359375 439.650390625 513.100585938 c 0
 431.716796875 518.767578125 427.75 526.134765625 427.75 535.202148438 c 0
 427.75 539.735351562 428.317382812 553.334960938 429.450195312 576.001953125 c 1
 416.416992188 585.068359375 408.766601562 590.452148438 406.5 592.15234375 c 0
 404.233398438 593.8515625 400.833007812 595.834960938 396.299804688 598.1015625 c 0
 387.799804688 603.202148438 379.016601562 605.751953125 369.950195312 605.751953125 c 0
 352.3828125 605.751953125 333.825195312 599.518554688 314.275390625 587.051757812 c 0
 294.724609375 574.584960938 276.166992188 557.301757812 258.599609375 535.202148438 c 0
 241.033203125 513.1015625 225.166015625 487.884765625 210.999023438 459.551757812 c 0
 196.83203125 430.65234375 185.21484375 398.3515625 176.1484375 362.65234375 c 0
 167.081054688 326.952148438 162.547851562 290.96875 162.547851562 254.702148438 c 0
 162.547851562 227.501953125 167.6484375 201.293945312 177.848632812 176.077148438 c 0
 188.047851562 150.860351562 202.21484375 129.751953125 220.348632812 112.751953125 c 0
 237.915039062 96.318359375 257.46484375 88.1015625 278.998046875 88.1015625 c 0
 296.565429688 88.1015625 313.565429688 90.0849609375 329.998046875 94.0517578125 c 0
 346.431640625 98.0185546875 361.306640625 103.260742188 374.623046875 109.77734375 c 0
 387.940429688 116.294921875 399.698242188 122.669921875 409.8984375 128.90234375 c 0
 419.53125 135.135742188 428.881835938 141.935546875 437.948242188 149.302734375 c 0
 444.748046875 153.8359375 450.556640625 157.235351562 455.373046875 159.502929688 c 0
 460.190429688 161.76953125 465.1484375 162.90234375 470.248046875 162.90234375 c 0
 474.78125 162.90234375 479.03125 161.485351562 482.998046875 158.65234375 c 0
 490.365234375 152.985351562 494.047851562 146.46875 494.047851562 139.1015625 c 0
 494.047851562 130.03515625 488.665039062 119.267578125 477.8984375 106.80078125 c 0
 431.998046875 53.5341796875 364.848632812 26.9013671875 276.448242188 26.9013671875 c 2
 269.6484375 26.9013671875 l 2
 249.248046875 26.9013671875 229.981445312 30.583984375 211.848632812 37.951171875 c 0
 193.1484375 45.8837890625 176.71484375 56.3671875 162.547851562 69.400390625 c 0
 148.381835938 82.43359375 136.056640625 97.4501953125 125.573242188 114.450195312 c 0
 115.08984375 131.450195312 107.157226562 149.583007812 101.774414062 168.850585938 c 0
 96.390625 188.1171875 93.69921875 207.383789062 93.69921875 226.651367188 c 0
 93.69921875 268.017578125 97.94921875 308.392578125 106.44921875 347.776367188 c 0
 114.94921875 387.159179688 126.282226562 422.434570312 140.44921875 453.600585938 c 0
 154.616210938 484.767578125 171.333007812 513.384765625 190.599609375 539.452148438 c 0
 208.166992188 566.084960938 226.724609375 588.04296875 246.275390625 605.326171875 c 0
 265.825195312 622.609375 285.658203125 635.92578125 305.775390625 645.276367188 c 0
 325.891601562 654.625976562 345.299804688 659.30078125 364 659.30078125 c 0
 382.700195312 659.30078125 400.266601562 657.034179688 416.700195312 652.500976562 c 1
 418.966796875 657.034179688 421.516601562 656.184570312 424.349609375 649.951171875 c 1
 425.483398438 658.451171875 426.333007812 661.284179688 426.900390625 658.451171875 c 1
 428.599609375 665.250976562 432 670.91796875 437.099609375 675.451171875 c 0
 442.200195312 679.41796875 447.8671875 681.684570312 454.099609375 682.251953125 c 0
 456.932617188 682.818359375 458.6328125 683.1015625 459.200195312 683.1015625 c 0
 464.8671875 683.1015625 470.817382812 681.119140625 477.049804688 677.15234375 c 0
 484.416992188 672.619140625 489.233398438 665.536132812 491.500976562 655.90234375 c 0
 496.034179688 634.370117188 498.30078125 611.418945312 498.30078125 587.051757812 c 2
 498.30078125 555.602539062 l 2
 498.30078125 544.8359375 494.6171875 534.208007812 487.25 523.725585938 c 0
EndSplineSet
Validated: 1
EndChar

StartChar: D
Encoding: 68 68 37
Width: 548
VWidth: 899
GlyphClass: 2
Flags: HMW
HStem: 23.45 64.5991 623.55 17G<123.806 137.69>
VStem: 92.0738 66.0546 435.475 65.446
LayerCount: 2
Fore
SplineSet
308.821289062 518.150390625 m 0
 279.920898438 537.983398438 238.271484375 558.666015625 183.87109375 580.19921875 c 1
 183.021484375 581.048828125 l 1
 182.170898438 581.048828125 l 1
 181.321289062 581.899414062 l 1
 180.471679688 581.899414062 l 1
 179.62109375 581.899414062 l 1
 179.62109375 582.749023438 l 1
 178.771484375 582.749023438 l 1
 177.920898438 582.749023438 l 1
 177.071289062 582.749023438 l 1
 177.071289062 583.599609375 l 1
 176.221679688 583.599609375 l 1
 175.37109375 583.599609375 l 1
 174.521484375 583.599609375 l 1
 174.521484375 584.44921875 l 1
 173.670898438 584.44921875 l 1
 172.821289062 584.44921875 l 1
 171.969726562 585.298828125 l 1
 171.12109375 585.298828125 l 1
 160.071289062 597.19921875 l 1
 159.221679688 577.649414062 l 2
 158.4921875 545.590820312 158.127929688 514 158.127929688 482.877929688 c 0
 158.127929688 441.385742188 158.775390625 400.7265625 160.071289062 360.899414062 c 0
 161.204101562 325.765625 162.337890625 283.69140625 163.470703125 234.673828125 c 0
 164.603515625 185.657226562 165.736328125 146.982421875 166.870117188 118.649414062 c 1
 171.969726562 116.94921875 l 2
 195.203125 106.182617188 218.719726562 98.673828125 242.51953125 94.423828125 c 0
 266.319335938 90.173828125 293.51953125 88.048828125 324.120117188 88.048828125 c 0
 340.552734375 88.048828125 355.852539062 93.857421875 370.01953125 105.474609375 c 0
 384.186523438 117.090820312 395.803710938 131.682617188 404.870117188 149.25 c 0
 414.50390625 166.817382812 422.01171875 185.942382812 427.39453125 206.625 c 0
 435.4375 237.52734375 435.475585938 259.958007812 435.475585938 269.5703125 c 0
 435.475585938 377.873046875 393.258789062 460.732421875 308.821289062 518.150390625 c 0
493.274414062 179.424804688 m 0
 488.174804688 159.307617188 480.241210938 139.900390625 469.474609375 121.200195312 c 0
 458.708007812 102.5 446.241210938 85.9248046875 432.07421875 71.474609375 c 0
 417.907226562 57.025390625 401.473632812 45.2666015625 382.7734375 36.2001953125 c 0
 364.640625 27.7001953125 345.374023438 23.4501953125 324.973632812 23.4501953125 c 2
 317.32421875 23.4501953125 l 2
 294.090820312 23.4501953125 270.715820312 24.5830078125 247.19921875 26.849609375 c 0
 223.681640625 29.1171875 204.556640625 31.9501953125 189.82421875 35.349609375 c 0
 174.5234375 39.3173828125 160.782226562 42.716796875 148.598632812 45.5498046875 c 0
 136.416015625 48.3828125 128.907226562 49.7998046875 126.07421875 49.7998046875 c 0
 117.0078125 49.7998046875 109.640625 52.6328125 103.973632812 58.2998046875 c 0
 98.8740234375 63.400390625 96.32421875 70.4833984375 96.32421875 79.5498046875 c 2
 96.32421875 84.650390625 l 2
 98.0234375 105.049804688 98.8740234375 136.783203125 98.8740234375 179.849609375 c 0
 98.306640625 256.916992188 96.32421875 348.716796875 92.923828125 455.25 c 0
 92.3564453125 486.983398438 92.07421875 507.807617188 92.07421875 517.724609375 c 0
 92.07421875 527.641601562 92.4990234375 543.083984375 93.3486328125 564.05078125 c 0
 94.19921875 585.017578125 94.6240234375 597.767578125 94.6240234375 602.30078125 c 0
 95.1904296875 615.333984375 98.5908203125 624.966796875 104.82421875 631.200195312 c 0
 111.056640625 637.432617188 118.990234375 640.549804688 128.623046875 640.549804688 c 0
 146.755859375 640.549804688 169.989257812 637.716796875 198.322265625 632.049804688 c 0
 214.754882812 628.650390625 231.471679688 623.974609375 248.471679688 618.025390625 c 0
 265.471679688 612.075195312 283.888671875 603.858398438 303.721679688 593.375 c 0
 323.555664062 582.891601562 342.254882812 570.567382812 359.822265625 556.400390625 c 0
 377.388671875 542.233398438 394.671875 524.950195312 411.671875 504.549804688 c 0
 429.805664062 484.150390625 445.388671875 461.625 458.420898438 436.974609375 c 0
 471.454101562 412.325195312 481.795898438 382.858398438 489.446289062 348.575195312 c 0
 497.096679688 314.291992188 500.920898438 277.317382812 500.920898438 237.650390625 c 0
 500.920898438 218.950195312 498.375 199.541992188 493.274414062 179.424804688 c 0
EndSplineSet
Validated: 1
EndChar

StartChar: E
Encoding: 69 69 38
Width: 548
VWidth: 899
GlyphClass: 2
Flags: HMW
HStem: 32.8751 57.8033<195.498 247.069> 44.7751 60.3533<439.164 466.369 445.681 466.369> 315.078 56.0983 332.078 52.6992 572.627 54.3991
VStem: 103.981 64.6033
LayerCount: 2
Fore
SplineSet
456.731445312 44.775390625 m 2x4c
 445.681640625 44.775390625 l 2x4c
 432.6484375 44.775390625 411.3984375 43.9248046875 381.931640625 42.224609375 c 0
 296.364257812 35.9921875 237.147460938 32.875 204.280273438 32.875 c 0
 186.713867188 32.875 171.98046875 33.4423828125 160.081054688 34.5751953125 c 0
 148.747070312 35.1416015625 137.272460938 40.80859375 125.655273438 51.576171875 c 0
 114.0390625 62.3427734375 107.380859375 75.3779296875 105.680664062 90.6787109375 c 0
 103.98046875 104.278320312 103.130859375 127.508789062 103.130859375 160.375976562 c 0
 103.130859375 193.243164062 103.4140625 228.942382812 103.98046875 267.475585938 c 2
 103.98046875 341.850585938 l 2
 103.98046875 364.80078125 103.4140625 396.67578125 102.280273438 437.475585938 c 0
 101.713867188 471.475585938 101.430664062 493.859375 101.430664062 504.625976562 c 0
 101.430664062 515.392578125 101.85546875 531.401367188 102.706054688 552.651367188 c 0
 103.555664062 573.901367188 103.98046875 587.359375 103.98046875 593.026367188 c 0
 104.547851562 606.05859375 108.08984375 615.833984375 114.606445312 622.350585938 c 0
 121.123046875 628.868164062 128.915039062 632.125976562 137.982421875 632.125976562 c 1
 138.548828125 626.458984375 139.399414062 626.458984375 140.532226562 632.125976562 c 1
 151.298828125 631.55859375 159.516601562 627.591796875 165.182617188 620.224609375 c 0
 166.31640625 613.9921875 167.451171875 612.859375 168.583984375 616.826171875 c 1
 170.284179688 611.725585938 171.982421875 612.008789062 173.682617188 617.67578125 c 1
 216.749023438 623.909179688 270.866210938 627.026367188 336.033203125 627.026367188 c 0
 354.166015625 627.026367188 370.31640625 626.743164062 384.483398438 626.17578125 c 0
 417.349609375 624.475585938 443.416992188 622.4921875 462.68359375 620.224609375 c 0
 474.583984375 619.091796875 482.375976562 616.684570312 486.05859375 613.001953125 c 0
 489.7421875 609.318359375 491.583984375 604.077148438 491.583984375 597.276367188 c 0
 491.583984375 582.543945312 487.6171875 573.4765625 479.68359375 570.077148438 c 0
 476.284179688 568.376953125 473.30859375 567.668945312 470.758789062 567.952148438 c 0
 468.208984375 568.234375 466.083984375 568.376953125 464.383789062 568.376953125 c 0
 424.716796875 571.209960938 386.18359375 572.626953125 348.784179688 572.626953125 c 0
 335.750976562 572.626953125 322.717773438 572.34375 309.684570312 571.776367188 c 0
 260.384765625 570.643554688 217.03515625 567.244140625 179.634765625 561.577148438 c 1
 177.368164062 555.91015625 175.100585938 555.626953125 172.833984375 560.7265625 c 1
 170.000976562 496.693359375 168.583984375 436.34375 168.583984375 379.676757812 c 2
 168.583984375 371.176757812 l 1xac
 213.916992188 371.744140625 269.450195312 374.010742188 335.182617188 377.977539062 c 0
 403.182617188 382.510742188 441.432617188 384.77734375 449.932617188 384.77734375 c 0
 460.700195312 384.77734375 468.067382812 382.65234375 472.034179688 378.40234375 c 0
 476.000976562 374.15234375 477.984375 368.344726562 477.984375 360.977539062 c 0
 477.984375 351.344726562 476.284179688 344.26171875 472.883789062 339.728515625 c 0
 468.350585938 334.627929688 460.842773438 332.078125 450.359375 332.078125 c 0x1c
 439.876953125 332.078125 398.084960938 329.245117188 324.984375 323.578125 c 0
 253.584960938 317.911132812 204.28515625 315.078125 177.084960938 315.078125 c 1
 174.817382812 308.845703125 172.267578125 308.5625 169.434570312 314.229492188 c 1
 169.434570312 291.5625 169.717773438 260.395507812 170.28515625 220.728515625 c 0
 170.28515625 196.361328125 170.567382812 176.528320312 171.134765625 161.228515625 c 0
 172.267578125 128.928710938 174.53515625 108.245117188 177.934570312 99.1787109375 c 0
 178.501953125 92.3779296875 179.067382812 91.2451171875 179.634765625 95.7783203125 c 1
 181.334960938 90.111328125 182.752929688 89.828125 183.885742188 94.9287109375 c 1
 192.952148438 92.095703125 210.802734375 90.6787109375 237.435546875 90.6787109375 c 0xac
 256.702148438 90.6787109375 280.78515625 91.2451171875 309.684570312 92.3779296875 c 0
 378.817382812 95.7783203125 424.1484375 99.4619140625 445.681640625 103.428710938 c 0
 453.048828125 104.561523438 459.143554688 105.127929688 463.9609375 105.127929688 c 0x4c
 468.77734375 105.127929688 472.885742188 104.278320312 476.28515625 102.578125 c 0
 479.685546875 100.877929688 482.235351562 99.1787109375 483.935546875 97.478515625 c 0
 485.635742188 95.7783203125 487.052734375 93.51171875 488.185546875 90.6787109375 c 0x8c
 489.318359375 87.845703125 490.168945312 85.4375 490.735351562 83.4541015625 c 0
 491.302734375 81.470703125 491.583984375 79.0634765625 491.583984375 76.23046875 c 0
 492.150390625 67.1630859375 489.319335938 59.23046875 483.0859375 52.4296875 c 0
 478.553710938 46.7626953125 471.470703125 43.9296875 461.836914062 43.9296875 c 0
 460.137695312 44.4970703125 458.431640625 44.775390625 456.731445312 44.775390625 c 2x4c
EndSplineSet
Validated: 1
EndChar

StartChar: F
Encoding: 70 70 39
Width: 548
VWidth: 900
GlyphClass: 2
Flags: HMW
HStem: 313.658 52.7 324.708 55.2491 576.307 57.7983 623.906 17G
VStem: 102.195 66.1324 105.595 71.4009
LayerCount: 2
Fore
SplineSet
463.44921875 629.85546875 m 0x28
 474.782226562 628.72265625 482.149414062 626.313476562 485.549804688 622.630859375 c 0
 488.94921875 618.947265625 490.932617188 613.422851562 491.5 606.055664062 c 0
 491.5 598.122070312 488.94921875 591.0390625 483.849609375 584.806640625 c 0
 479.8828125 579.139648438 472.515625 576.306640625 461.749023438 576.306640625 c 2
 460.8984375 576.306640625 l 2
 429.731445312 578.006835938 398.282226562 578.856445312 366.548828125 578.856445312 c 0
 308.181640625 578.856445312 243.58203125 575.739257812 172.749023438 569.506835938 c 1
 172.181640625 555.33984375 171.615234375 537.489257812 171.047851562 515.956054688 c 0
 169.234375 477.42578125 168.328125 439.62109375 168.328125 402.541015625 c 0
 168.328125 393.267578125 168.383789062 384.0390625 168.498046875 374.857421875 c 0
 171.8984375 369.756835938 175.014648438 370.040039062 177.84765625 375.70703125 c 1
 201.081054688 378.540039062 226.013671875 379.95703125 252.647460938 379.95703125 c 2
 271.346679688 379.95703125 l 2x68
 305.346679688 378.82421875 335.947265625 377.124023438 363.147460938 374.857421875 c 0
 390.9140625 372.024414062 413.581054688 369.19140625 431.1484375 366.358398438 c 0
 443.615234375 364.090820312 451.547851562 361.2578125 454.948242188 357.858398438 c 0
 458.34765625 354.458007812 460.331054688 349.358398438 460.8984375 342.557617188 c 0
 460.8984375 334.057617188 458.915039062 326.69140625 454.948242188 320.458007812 c 0
 452.680664062 315.924804688 447.013671875 313.658203125 437.947265625 313.658203125 c 2
 433.697265625 313.658203125 l 2x88
 416.129882812 316.491210938 392.046875 319.041015625 361.447265625 321.307617188 c 0
 332.546875 323.575195312 299.963867188 324.708007812 263.697265625 324.708007812 c 0
 229.129882812 324.140625 199.947265625 322.158203125 176.147460938 318.7578125 c 1
 173.879882812 313.090820312 171.61328125 312.807617188 169.346679688 317.908203125 c 1
 171.61328125 227.241210938 174.163085938 142.241210938 176.99609375 62.908203125 c 0
 175.86328125 53.275390625 171.471679688 45.625 163.821289062 39.9580078125 c 0
 156.170898438 34.291015625 147.529296875 31.4580078125 137.896484375 31.4580078125 c 1
 137.329101562 26.3583984375 136.479492188 26.640625 135.346679688 32.3076171875 c 1
 126.279296875 31.7412109375 118.912109375 34.57421875 113.245117188 40.8076171875 c 0
 108.145507812 45.9072265625 105.595703125 52.990234375 105.595703125 62.0576171875 c 2
 105.595703125 66.3076171875 l 2x44
 107.295898438 85.0068359375 108.145507812 116.173828125 108.145507812 159.807617188 c 0
 107.578125 240.274414062 105.595703125 329.807617188 102.1953125 428.407226562 c 0
 101.0625 466.374023438 100.495117188 491.874023438 100.495117188 504.907226562 c 0
 100.495117188 517.940429688 101.0625 535.365234375 102.1953125 557.182617188 c 0
 103.328125 578.999023438 103.895507812 594.157226562 103.895507812 602.657226562 c 0
 104.462890625 615.690429688 107.862304688 625.323242188 114.095703125 631.556640625 c 0
 120.328125 637.7890625 128.26171875 640.90625 137.89453125 640.90625 c 1
 139.594726562 635.239257812 141.01171875 635.239257812 142.14453125 640.90625 c 1x58
 152.911132812 640.90625 161.12890625 637.223632812 166.795898438 629.856445312 c 1
 167.362304688 622.489257812 168.212890625 621.072265625 169.345703125 625.60546875 c 1
 237.345703125 631.272460938 301.095703125 634.10546875 360.595703125 634.10546875 c 0
 400.262695312 634.10546875 434.549804688 632.688476562 463.44921875 629.85546875 c 0x28
EndSplineSet
Validated: 1
EndChar

StartChar: G
Encoding: 71 71 40
Width: 548
VWidth: 901
GlyphClass: 2
Flags: HMW
HStem: 25.623 61.2017 263.2 63.3259 295.073 54.8269 613.825 53.5483
VStem: 92.9427 67.9983
LayerCount: 2
Fore
SplineSet
436.33984375 651.224609375 m 0xb8
 464.672851562 640.458007812 482.5234375 631.107421875 489.890625 623.174804688 c 0
 496.690429688 616.375 500.08984375 608.44140625 500.08984375 599.375 c 0
 500.657226562 594.274414062 499.807617188 588.607421875 497.540039062 582.375 c 0
 496.407226562 577.274414062 492.723632812 573.591796875 486.491210938 571.32421875 c 0
 482.524414062 570.19140625 479.265625 569.625 476.715820312 569.625 c 0
 474.166015625 569.625 470.624023438 570.19140625 466.090820312 571.32421875 c 0
 462.69140625 572.458007812 454.899414062 576.708007812 442.715820312 584.07421875 c 0
 430.533203125 591.44140625 417.640625 598.241210938 404.041015625 604.474609375 c 0
 391.0078125 610.708007812 379.108398438 613.82421875 368.340820312 613.82421875 c 0
 350.774414062 613.82421875 332.215820312 607.44921875 312.666015625 594.69921875 c 0
 293.116210938 581.94921875 274.69921875 564.099609375 257.416015625 541.149414062 c 0
 240.1328125 518.19921875 224.408203125 492.274414062 210.241210938 463.375 c 0
 195.5078125 433.908203125 183.608398438 400.899414062 174.541015625 364.349609375 c 0
 165.473632812 327.799804688 160.94140625 290.82421875 160.94140625 253.424804688 c 0
 160.94140625 226.224609375 166.041015625 200.016601562 176.241210938 174.799804688 c 0
 186.44140625 149.583007812 200.608398438 128.474609375 218.741210938 111.474609375 c 0
 236.307617188 95.0419921875 255.858398438 86.8251953125 277.390625 86.8251953125 c 0
 291.557617188 86.8251953125 305.724609375 91.6416015625 319.891601562 101.274414062 c 0
 334.05859375 110.908203125 346.666992188 123.090820312 357.716796875 137.82421875 c 0
 368.766601562 152.556640625 379.108398438 168.70703125 388.7421875 186.2734375 c 0
 398.375 203.840820312 406.591796875 221.124023438 413.391601562 238.124023438 c 0
 420.19140625 255.124023438 425.575195312 270.70703125 429.541992188 284.874023438 c 0
 430.674804688 287.140625 431.807617188 290.82421875 432.94140625 295.923828125 c 1
 428.973632812 294.791015625 425.006835938 294.5078125 421.040039062 295.07421875 c 0
 387.040039062 293.375 353.890625 290.116210938 321.58984375 285.299804688 c 0
 289.290039062 280.482421875 266.623046875 274.107421875 253.58984375 266.174804688 c 0
 250.756835938 264.474609375 247.923828125 263.482421875 245.090820312 263.19921875 c 0
 242.2578125 262.916992188 239.424804688 263.908203125 236.591796875 266.17578125 c 0
 230.358398438 270.708984375 226.67578125 276.658203125 225.54296875 284.025390625 c 2
 225.54296875 290.825195312 l 2
 225.54296875 305.55859375 234.326171875 317.458984375 251.892578125 326.525390625 c 0xd8
 265.493164062 334.458984375 296.375976562 340.69140625 344.54296875 345.224609375 c 0
 380.243164062 348.057617188 411.409179688 349.474609375 438.04296875 349.474609375 c 0
 443.142578125 349.758789062 447.959960938 349.900390625 452.493164062 349.900390625 c 0
 457.025390625 349.900390625 461.275390625 349.758789062 465.243164062 349.474609375 c 0
 477.709960938 348.341796875 485.926757812 346.07421875 489.893554688 342.674804688 c 0
 494.993164062 338.708007812 497.543945312 331.340820312 497.543945312 320.57421875 c 0
 497.543945312 314.907226562 496.551757812 310.08984375 494.568359375 306.123046875 c 0
 492.5859375 302.15625 489.043945312 299.323242188 483.943359375 297.623046875 c 0
 482.243164062 295.356445312 480.543945312 294.505859375 478.84375 295.073242188 c 1
 478.84375 289.123046875 l 2
 478.84375 287.422851562 478.418945312 282.889648438 477.568359375 275.5234375 c 0
 476.71875 268.15625 476.010742188 262.206054688 475.443359375 257.672851562 c 0
 474.310546875 245.7734375 470.91015625 232.03125 465.243164062 216.448242188 c 0
 459.576171875 200.865234375 452.068359375 184.1484375 442.71875 166.297851562 c 0
 433.368164062 148.448242188 422.176757812 131.0234375 409.143554688 114.0234375 c 0
 396.676757812 97.58984375 383.359375 82.5732421875 369.192382812 68.97265625 c 0
 355.025390625 55.373046875 339.442382812 44.6064453125 322.442382812 36.6728515625 c 0
 305.442382812 29.3056640625 288.159179688 25.623046875 270.592773438 25.623046875 c 2
 268.892578125 25.623046875 l 1
 268.04296875 25.623046875 l 2
 247.642578125 25.623046875 228.375976562 29.3056640625 210.243164062 36.6728515625 c 0
 191.54296875 44.6064453125 175.109375 55.0888671875 160.942382812 68.1220703125 c 0
 146.775390625 81.1552734375 134.451171875 96.171875 123.967773438 113.171875 c 0
 113.484375 130.171875 105.692382812 148.305664062 100.592773438 167.572265625 c 0
 95.4931640625 186.838867188 92.9423828125 206.106445312 92.9423828125 225.373046875 c 0
 92.9423828125 267.873046875 97.05078125 309.240234375 105.267578125 349.47265625 c 0
 113.484375 389.706054688 124.676757812 425.831054688 138.84375 457.84765625 c 0
 153.010742188 489.865234375 169.727539062 519.190429688 188.994140625 545.823242188 c 0
 206.561523438 572.456054688 225.119140625 594.555664062 244.668945312 612.123046875 c 0
 264.219726562 629.690429688 284.194335938 643.290039062 304.594726562 652.922851562 c 0
 324.994140625 662.555664062 344.543945312 667.373046875 363.244140625 667.373046875 c 0
 383.64453125 667.373046875 408.006835938 661.991210938 436.33984375 651.224609375 c 0xb8
EndSplineSet
Validated: 1
EndChar

StartChar: H
Encoding: 72 72 41
Width: 548
VWidth: 900
GlyphClass: 2
Flags: HMW
HStem: 315.349 56.1017 623.899 17G
VStem: 116.302 67.5741 406.575 70.5508 414.225 68.0008
LayerCount: 2
Fore
SplineSet
181.75 298.354492188 m 0xe8
 181.466796875 294.387695312 181.325195312 291.5546875 181.325195312 289.854492188 c 0
 179.625 261.521484375 178.775390625 228.513671875 178.775390625 190.830078125 c 0
 178.775390625 153.147460938 179.625 110.5 181.325195312 62.900390625 c 0
 180.192382812 53.267578125 175.659179688 45.6171875 167.725585938 39.9501953125 c 0
 159.79296875 34.283203125 151.009765625 31.4501953125 141.376953125 31.4501953125 c 1
 140.809570312 26.3505859375 139.959960938 26.6337890625 138.827148438 32.30078125 c 1
 130.327148438 31.7333984375 123.244140625 34.56640625 117.577148438 40.7998046875 c 0
 112.4765625 45.8994140625 109.926757812 52.7041015625 109.926757812 61.2041015625 c 0
 110.494140625 62.904296875 110.77734375 64.599609375 110.77734375 66.2998046875 c 0
 111.91015625 82.732421875 112.4765625 119.287109375 112.4765625 175.954101562 c 0
 112.4765625 205.421875 112.759765625 232.0546875 113.327148438 255.854492188 c 2
 113.327148438 256.704101562 l 2
 113.327148438 275.404296875 113.751953125 302.74609375 114.6015625 338.729492188 c 0
 115.452148438 374.712890625 116.018554688 397.9453125 116.301757812 408.428710938 c 0
 116.584960938 418.912109375 116.7265625 429.39453125 116.7265625 439.877929688 c 0
 116.7265625 450.361328125 116.443359375 467.502929688 115.876953125 491.302734375 c 0
 115.309570312 515.102539062 115.02734375 530.828125 115.02734375 538.477539062 c 0
 115.02734375 546.127929688 115.876953125 567.517578125 117.577148438 602.650390625 c 0
 118.143554688 615.68359375 121.543945312 625.31640625 127.77734375 631.549804688 c 0
 134.009765625 637.782226562 141.943359375 640.899414062 151.576171875 640.899414062 c 2
 154.125976562 640.899414062 l 2
 163.193359375 640.899414062 170.842773438 638.208007812 177.076171875 632.82421875 c 0
 183.309570312 627.44140625 186.42578125 618.233398438 186.42578125 605.200195312 c 0
 186.42578125 599.533203125 185.717773438 587.494140625 184.30078125 569.077148438 c 0
 182.883789062 550.66015625 182.174804688 533.66015625 182.174804688 518.077148438 c 0
 182.174804688 502.494140625 182.458984375 479.543945312 183.026367188 449.2265625 c 0
 183.592773438 418.91015625 183.875976562 395.818359375 183.875976562 379.951171875 c 2
 183.875976562 371.451171875 l 2
 186.142578125 365.784179688 188.693359375 365.784179688 191.526367188 371.451171875 c 1
 236.859375 372.583984375 291.258789062 377.966796875 354.725585938 387.600585938 c 0
 379.092773438 391 398.642578125 393.267578125 413.375976562 394.400390625 c 1
 413.375976562 402.05078125 l 2
 413.375976562 406.017578125 413.092773438 411.966796875 412.526367188 419.900390625 c 0
 411.958984375 427.833007812 411.67578125 433.783203125 411.67578125 437.75 c 0
 411.109375 472.883789062 410.826171875 495.975585938 410.826171875 507.025390625 c 0
 410.826171875 518.075195312 411.392578125 535.5 412.526367188 559.30078125 c 0
 413.659179688 583.100585938 414.225585938 597.55078125 414.225585938 602.650390625 c 0
 414.225585938 615.68359375 417.484375 625.31640625 424.000976562 631.549804688 c 0
 430.517578125 637.782226562 438.309570312 640.899414062 447.376953125 640.899414062 c 2
 449.926757812 640.899414062 l 2
 459.559570312 640.899414062 467.493164062 638.208007812 473.725585938 632.82421875 c 0
 479.958984375 627.44140625 483.076171875 618.233398438 483.076171875 605.200195312 c 0
 483.076171875 594.43359375 482.651367188 572.475585938 481.80078125 539.325195312 c 0
 480.951171875 506.17578125 480.526367188 476.850585938 480.526367188 451.350585938 c 0
 480.526367188 425.850585938 480.809570312 389.30078125 481.375976562 341.700195312 c 0
 481.943359375 328.666992188 482.225585938 310.25 482.225585938 286.450195312 c 0xe8
 482.225585938 262.650390625 481.375976562 225.67578125 479.67578125 175.525390625 c 0
 477.975585938 125.375 477.125976562 90.1005859375 477.125976562 69.7001953125 c 2
 477.125976562 64.6005859375 l 1
 477.125976562 62.900390625 l 2
 477.125976562 53.8330078125 472.592773438 46.18359375 463.526367188 39.9501953125 c 0
 456.159179688 34.283203125 447.659179688 31.4501953125 438.026367188 31.4501953125 c 1
 437.458984375 26.3505859375 436.609375 26.6337890625 435.475585938 32.30078125 c 1
 426.409179688 31.7333984375 419.04296875 34.56640625 413.375976562 40.7998046875 c 0
 408.842773438 45.8994140625 406.575195312 52.982421875 406.575195312 62.0498046875 c 2
 406.575195312 66.2998046875 l 1xf0
 411.674804688 138.266601562 414.225585938 218.166015625 414.225585938 305.999023438 c 2
 414.225585938 341.700195312 l 1
 410.825195312 336.033203125 407.708007812 335.749023438 404.875 340.849609375 c 1
 395.2421875 340.282226562 362.942382812 335.749023438 307.975585938 327.249023438 c 0
 253.575195312 319.31640625 214.192382812 315.349609375 189.825195312 315.349609375 c 2
 182.174804688 315.349609375 l 1
 182.174804688 306.849609375 l 2
 182.174804688 305.149414062 182.033203125 302.321289062 181.75 298.354492188 c 0xe8
EndSplineSet
Validated: 1
EndChar

StartChar: I
Encoding: 73 73 42
Width: 548
VWidth: 900
GlyphClass: 2
Flags: HMW
HStem: 45.2434 49.6393 570.885 58.6509 581.085 54.4009
VStem: 261.223 64.6009 267.173 63.7508
LayerCount: 2
Fore
SplineSet
264.624023438 509.685546875 m 2xc8
 264.624023438 515.352539062 265.189453125 526.686523438 266.323242188 543.686523438 c 0
 267.456054688 560.686523438 268.0234375 570.603515625 268.0234375 573.436523438 c 2
 268.0234375 581.086914062 l 1
 239.124023438 581.653320312 215.041015625 581.936523438 195.7734375 581.936523438 c 0
 174.806640625 581.936523438 160.356445312 581.794921875 152.423828125 581.51171875 c 0
 144.491210938 581.228515625 140.241210938 581.086914062 139.673828125 581.086914062 c 0
 128.340820312 581.086914062 119.982421875 583.495117188 114.599609375 588.311523438 c 0
 109.216796875 593.12890625 106.524414062 599.220703125 106.524414062 606.587890625 c 2
 106.524414062 609.137695312 l 2
 106.524414062 615.9375 109.07421875 622.029296875 114.174804688 627.413085938 c 0
 119.274414062 632.795898438 128.057617188 635.487304688 140.524414062 635.487304688 c 0xa8
 187.557617188 637.1875 229.772460938 638.038085938 267.171875 638.038085938 c 0
 341.971679688 638.038085938 406.291015625 635.205078125 460.124023438 629.538085938 c 0
 469.756835938 628.404296875 477.125 626.137695312 482.224609375 622.737304688 c 0
 487.891601562 618.770507812 491.008789062 612.25390625 491.575195312 603.186523438 c 0
 491.575195312 594.686523438 489.025390625 586.75390625 483.92578125 579.38671875 c 0
 481.658203125 575.987304688 478.541992188 573.436523438 474.57421875 571.737304688 c 0
 471.741210938 570.603515625 469.19140625 570.037109375 466.924804688 570.037109375 c 0
 464.657226562 570.037109375 462.390625 570.3203125 460.124023438 570.88671875 c 0
 442.556640625 573.719726562 399.490234375 576.836914062 330.922851562 580.237304688 c 1
 330.922851562 571.737304688 l 2
 330.922851562 567.204101562 330.639648438 552.329101562 330.073242188 527.112304688 c 0
 329.505859375 501.89453125 329.22265625 479.653320312 329.22265625 460.385742188 c 2
 329.22265625 421.286132812 l 2
 329.22265625 403.71875 329.505859375 385.727539062 330.073242188 367.310546875 c 0
 330.639648438 348.893554688 330.922851562 327.926757812 330.922851562 304.409179688 c 0xc8
 330.922851562 280.892578125 330.073242188 244.484375 328.373046875 195.184570312 c 0
 326.672851562 145.884765625 325.823242188 115.284179688 325.823242188 103.384765625 c 2
 325.823242188 94.884765625 l 1
 333.47265625 94.884765625 l 2
 353.873046875 94.884765625 397.505859375 94.6015625 464.373046875 94.0341796875 c 0
 475.706054688 94.0341796875 483.213867188 91.9091796875 486.897460938 87.6591796875 c 0
 490.580078125 83.4091796875 492.705078125 77.6015625 493.272460938 70.234375 c 0
 493.272460938 65.701171875 492.846679688 61.734375 491.997070312 58.333984375 c 0
 491.147460938 54.9345703125 489.588867188 51.5341796875 487.322265625 48.134765625 c 0
 486.189453125 45.3017578125 484.206054688 43.458984375 481.373046875 42.609375 c 0
 478.540039062 41.759765625 475.84765625 41.1923828125 473.297851562 40.9091796875 c 0
 470.748046875 40.6259765625 468.33984375 40.7685546875 466.073242188 41.3349609375 c 0
 450.7734375 43.6025390625 426.40625 44.7353515625 392.97265625 44.7353515625 c 0
 389.005859375 44.7353515625 379.373046875 44.876953125 364.073242188 45.16015625 c 0
 361.014648438 45.216796875 357.7421875 45.2451171875 354.25390625 45.2451171875 c 0
 340.290039062 45.2451171875 322.879882812 44.7919921875 302.0234375 43.884765625 c 2
 245.923828125 37.7646484375 l 2
 233.45703125 37.7646484375 220.990234375 38.671875 208.5234375 40.484375 c 0
 173.389648438 39.3515625 149.165039062 38.7841796875 135.84765625 38.7841796875 c 0
 122.53125 38.7841796875 113.180664062 40.9091796875 107.797851562 45.1591796875 c 0
 102.415039062 49.4091796875 99.72265625 54.9345703125 99.72265625 61.734375 c 2
 99.72265625 63.4345703125 l 2
 99.72265625 70.234375 102.2734375 76.326171875 107.373046875 81.708984375 c 0
 112.47265625 87.0927734375 121.255859375 90.0673828125 133.72265625 90.634765625 c 0
 157.5234375 91.201171875 200.0234375 92.333984375 261.22265625 94.033203125 c 1xd0
 265.189453125 164.30078125 267.172851562 234.284179688 267.172851562 303.984375 c 0
 267.362304688 315.701171875 267.45703125 327.48046875 267.45703125 339.323242188 c 0
 267.45703125 362.991210938 267.079101562 386.912109375 266.32421875 411.083984375 c 0
 265.190429688 436.016601562 264.624023438 462.93359375 264.624023438 491.833984375 c 2
 264.624023438 509.685546875 l 2xc8
EndSplineSet
Validated: 1
EndChar

StartChar: J
Encoding: 74 74 43
Width: 548
VWidth: 899
GlyphClass: 2
Flags: HMW
HStem: 19.4508 69.7009 581.3 55.2508
VStem: 98.024 59.5 313.924 54.4009
LayerCount: 2
Fore
SplineSet
215.325195312 581.299804688 m 0
 188.69140625 581.299804688 170.274414062 581.015625 160.07421875 580.44921875 c 0
 149.874023438 579.881835938 144.491210938 579.599609375 143.923828125 579.599609375 c 0
 132.590820312 579.599609375 124.090820312 582.006835938 118.423828125 586.82421875 c 0
 112.756835938 591.640625 109.923828125 597.733398438 109.923828125 605.099609375 c 2
 109.923828125 607.650390625 l 2
 109.923828125 614.450195312 112.616210938 620.541992188 117.999023438 625.924804688 c 0
 123.381835938 631.307617188 132.306640625 634 144.774414062 634 c 0
 191.241210938 635.700195312 233.173828125 636.549804688 270.57421875 636.549804688 c 0
 345.374023438 636.549804688 409.69140625 633.716796875 463.524414062 628.049804688 c 0
 473.157226562 627.483398438 480.524414062 625.215820312 485.624023438 621.249023438 c 0
 491.291015625 617.282226562 494.408203125 610.765625 494.974609375 601.698242188 c 0
 494.974609375 593.198242188 492.424804688 585.265625 487.325195312 577.8984375 c 0
 485.057617188 574.498046875 481.94140625 571.948242188 477.973632812 570.248046875 c 0
 475.70703125 569.115234375 473.298828125 568.548828125 470.749023438 568.548828125 c 0
 468.19921875 568.548828125 465.791015625 568.831054688 463.524414062 569.3984375 c 0
 446.524414062 572.231445312 413.657226562 574.78125 364.923828125 577.048828125 c 1
 364.923828125 568.548828125 l 2
 364.923828125 552.115234375 365.491210938 527.182617188 366.624023438 493.749023438 c 0
 367.19140625 458.048828125 368.041015625 427.732421875 369.173828125 402.798828125 c 0
 370.306640625 378.999023438 370.874023438 349.95703125 370.874023438 315.673828125 c 0
 370.874023438 281.390625 370.024414062 250.932617188 368.32421875 224.299804688 c 0
 364.357421875 173.299804688 358.264648438 132.5 350.047851562 101.900390625 c 0
 341.831054688 71.2998046875 332.338867188 49.908203125 321.572265625 37.724609375 c 0
 310.805664062 25.5419921875 298.055664062 19.4501953125 283.322265625 19.4501953125 c 0
 266.889648438 19.4501953125 250.456054688 22.7080078125 234.0234375 29.224609375 c 0
 217.58984375 35.7421875 203.139648438 44.3837890625 190.672851562 55.150390625 c 0
 177.639648438 65.91796875 165.315429688 77.8173828125 153.698242188 90.8505859375 c 0
 142.081054688 103.883789062 132.448242188 116.775390625 124.797851562 129.525390625 c 0
 117.1484375 142.275390625 111.056640625 153.750976562 106.5234375 163.951171875 c 0
 101.990234375 174.150390625 99.4404296875 182.368164062 98.873046875 188.600585938 c 0
 98.306640625 191.43359375 98.0234375 194.55078125 98.0234375 197.951171875 c 0
 98.0234375 204.750976562 99.15625 212.400390625 101.422851562 220.900390625 c 0
 102.556640625 226.567382812 105.248046875 231.243164062 109.498046875 234.92578125 c 0
 113.748046875 238.608398438 119.2734375 241.016601562 126.073242188 242.150390625 c 2
 132.873046875 242.150390625 l 2
 139.672851562 242.716796875 145.056640625 241.016601562 149.0234375 237.049804688 c 0
 154.690429688 231.3828125 157.5234375 224.299804688 157.5234375 215.799804688 c 0
 157.5234375 199.3671875 162.623046875 180.383789062 172.823242188 158.850585938 c 0
 178.490234375 146.951171875 185.857421875 135.900390625 194.923828125 125.701171875 c 0
 202.857421875 115.500976562 213.764648438 106.858398438 227.6484375 99.775390625 c 0
 241.53125 92.6923828125 256.973632812 89.150390625 273.973632812 89.150390625 c 0
 286.440429688 89.150390625 295.790039062 100.767578125 302.0234375 124.000976562 c 0
 308.255859375 148.93359375 312.223632812 189.166992188 313.922851562 244.700195312 c 2
 313.922851562 265.099609375 l 2
 313.922851562 276.432617188 313.498046875 312.700195312 312.6484375 373.900390625 c 0
 312.138671875 410.622070312 311.883789062 449.893554688 311.883789062 491.715820312 c 0
 311.883789062 519.59375 311.997070312 548.60546875 312.223632812 578.750976562 c 1
 273.124023438 580.451171875 240.825195312 581.299804688 215.325195312 581.299804688 c 0
EndSplineSet
Validated: 1
EndChar

StartChar: K
Encoding: 75 75 44
Width: 548
VWidth: 901
GlyphClass: 2
Flags: HMW
HStem: 33.7766 17.85G 641.556 17.85G
VStem: 103.975 67.1517 107.377 70.55
LayerCount: 2
Fore
SplineSet
102.275390625 511.930664062 m 0xe0
 102.275390625 524.680664062 102.842773438 543.23828125 103.975585938 567.60546875 c 0
 105.109375 591.405273438 105.67578125 606.422851562 105.67578125 612.655273438 c 0
 106.243164062 628.522460938 109.642578125 640.139648438 115.875976562 647.506835938 c 0
 122.109375 654.873046875 130.041992188 658.556640625 139.674804688 658.556640625 c 2
 142.224609375 658.556640625 l 2
 151.291992188 659.123046875 158.942382812 656.006835938 165.174804688 649.206054688 c 0
 171.408203125 642.973632812 174.525390625 631.640625 174.525390625 615.20703125 c 0
 174.525390625 602.173828125 173.958007812 572.70703125 172.825195312 526.807617188 c 0
 171.692382812 480.907226562 170.841796875 436.140625 170.275390625 392.506835938 c 1
 199.174804688 423.107421875 232.608398438 459.657226562 270.575195312 502.157226562 c 0
 346.5078125 583.190429688 391.275390625 629.657226562 404.875 641.557617188 c 0
 411.674804688 649.490234375 418.192382812 654.590820312 424.424804688 656.857421875 c 0
 428.391601562 658.557617188 431.791992188 659.407226562 434.625 659.407226562 c 0
 440.291992188 659.407226562 445.674804688 656.006835938 450.775390625 649.206054688 c 0
 455.30859375 641.83984375 457.575195312 634.190429688 457.575195312 626.256835938 c 0
 457.575195312 618.890625 452.474609375 610.390625 442.275390625 600.756835938 c 0
 433.775390625 590.557617188 404.875 559.673828125 355.575195312 508.107421875 c 0
 308.541992188 454.274414062 264.909179688 405.256835938 224.67578125 361.057617188 c 1
 229.776367188 355.107421875 l 2
 247.909179688 335.274414062 278.225585938 303.541015625 320.725585938 259.908203125 c 0
 406.29296875 172.641601562 457.576171875 119.090820312 474.576171875 99.2578125 c 0
 481.942382812 90.7578125 486.475585938 85.0908203125 488.17578125 82.2578125 c 0
 489.875976562 79.4248046875 490.725585938 76.591796875 490.725585938 73.7587890625 c 0
 490.725585938 68.6591796875 490.159179688 64.1259765625 489.026367188 60.1591796875 c 0
 486.192382812 51.6591796875 481.942382812 45.1416015625 476.276367188 40.609375 c 0
 470.609375 36.076171875 465.225585938 33.80859375 460.125976562 33.80859375 c 0
 459.790039062 33.787109375 459.453125 33.7763671875 459.115234375 33.7763671875 c 0
 450.34375 33.7763671875 441.047851562 40.87109375 431.224609375 55.05859375 c 0
 424.9921875 62.9912109375 404.875 82.541015625 370.875 113.708007812 c 0
 339.141601562 145.44140625 304.859375 180.291015625 268.026367188 218.2578125 c 0
 231.192382812 259.05859375 203.709960938 291.358398438 185.577148438 315.158203125 c 2
 171.126953125 333.0078125 l 1
 171.126953125 293.05859375 l 1xe0
 177.926757812 72.0576171875 l 2
 177.359375 59.5908203125 173.107421875 49.9580078125 165.173828125 43.158203125 c 0
 157.241210938 36.3583984375 148.4609375 32.9580078125 138.827148438 32.9580078125 c 1
 138.260742188 27.8583984375 137.41015625 28.1416015625 136.27734375 33.80859375 c 1
 127.2109375 33.2412109375 119.84375 36.923828125 114.176757812 44.857421875 c 0
 109.643554688 51.6572265625 107.376953125 60.724609375 107.376953125 72.0576171875 c 2
 107.376953125 75.45703125 l 2xd0
 109.077148438 94.1572265625 109.926757812 125.32421875 109.926757812 168.95703125 c 0
 109.359375 249.990234375 107.375 339.807617188 103.974609375 438.407226562 c 0
 102.841796875 474.673828125 102.275390625 499.180664062 102.275390625 511.930664062 c 0xe0
EndSplineSet
Validated: 1
EndChar

StartChar: L
Encoding: 76 76 45
Width: 548
VWidth: 900
GlyphClass: 2
Flags: HMW
HStem: 37.6437 56.9509
VStem: 127.773 61.2033
LayerCount: 2
Fore
SplineSet
481.799804688 112.018554688 m 0
 484.349609375 108.3359375 486.474609375 104.369140625 488.174804688 100.119140625 c 0
 489.875 95.869140625 490.724609375 91.7607421875 490.724609375 87.7939453125 c 0
 490.724609375 79.2939453125 488.8828125 72.9189453125 485.200195312 68.6689453125 c 0
 481.516601562 64.4189453125 473.442382812 61.1611328125 460.974609375 58.8935546875 c 0
 423.0078125 51.5263671875 367.7578125 46.1435546875 295.224609375 42.744140625 c 0
 222.125 39.34375 167.442382812 37.6435546875 131.174804688 37.6435546875 c 0
 122.674804688 37.0771484375 115.591796875 39.91015625 109.924804688 46.142578125 c 0
 104.825195312 51.2431640625 102.275390625 58.326171875 102.275390625 67.392578125 c 0
 102.275390625 69.0927734375 102.416992188 71.642578125 102.700195312 75.04296875 c 0
 102.983398438 78.443359375 106.241210938 109.892578125 112.474609375 169.392578125 c 0
 118.70703125 230.026367188 123.240234375 288.392578125 126.073242188 344.493164062 c 0
 127.206054688 359.79296875 127.7734375 380.334960938 127.7734375 406.118164062 c 0
 127.7734375 431.901367188 127.631835938 451.451171875 127.348632812 464.767578125 c 0
 127.065429688 478.084960938 126.357421875 521.577148438 125.224609375 595.244140625 c 0
 125.791015625 608.84375 129.333007812 618.760742188 135.849609375 624.994140625 c 0
 142.3671875 631.2265625 150.159179688 634.34375 159.225585938 634.34375 c 2
 161.775390625 634.34375 l 2
 170.842773438 634.34375 178.493164062 631.510742188 184.725585938 625.84375 c 0
 190.958984375 620.176757812 194.076171875 611.109375 194.076171875 598.642578125 c 0
 194.264648438 593.3515625 194.359375 587.366210938 194.359375 580.688476562 c 0
 194.359375 567.342773438 193.982421875 551.227539062 193.2265625 532.342773438 c 0
 191.526367188 490.41015625 190.109375 454.426757812 188.9765625 424.393554688 c 0
 187.276367188 381.327148438 185.859375 343.926757812 184.725585938 312.193359375 c 0
 184.159179688 288.9609375 182.176757812 254.677734375 178.776367188 209.344726562 c 0
 175.376953125 164.01171875 173.676757812 128.594726562 173.676757812 103.094726562 c 2
 173.676757812 94.5947265625 l 1
 194.076171875 94.5947265625 l 2
 236.008789062 95.1611328125 284.743164062 98.2783203125 340.275390625 103.9453125 c 0
 398.076171875 109.612304688 437.743164062 114.995117188 459.275390625 120.095703125 c 0
 461.54296875 120.662109375 463.66796875 120.9453125 465.650390625 120.9453125 c 0
 467.633789062 120.9453125 469.758789062 120.662109375 472.025390625 120.095703125 c 0
 475.993164062 118.395507812 479.25 115.702148438 481.799804688 112.018554688 c 0
EndSplineSet
Validated: 1
EndChar

StartChar: M
Encoding: 77 77 46
Width: 548
VWidth: 902
GlyphClass: 2
Flags: HMW
HStem: 43.5501 17.85G<108.225 112.759> 633.451 17G
VStem: 83.5751 57.8009 258.676 73.0991
LayerCount: 2
Fore
SplineSet
132.025390625 56.2998046875 m 0
 125.224609375 47.7998046875 117.291992188 43.5498046875 108.224609375 43.5498046875 c 0
 91.7919921875 44.1171875 83.5751953125 63.3837890625 83.5751953125 101.350585938 c 0
 83.5751953125 108.151367188 84.283203125 119.909179688 85.7001953125 136.625976562 c 0
 87.1171875 153.342773438 89.2421875 175.30078125 92.0751953125 202.500976562 c 0
 94.908203125 229.701171875 97.1748046875 253.500976562 98.875 273.901367188 c 0
 103.974609375 343.034179688 107.375 386.951171875 109.075195312 405.651367188 c 0
 111.341796875 430.017578125 114.174804688 460.05078125 117.575195312 495.750976562 c 0
 124.375 564.883789062 131.458007812 606.534179688 138.825195312 620.701171875 c 0
 144.4921875 630.901367188 152.424804688 638.55078125 162.625 643.651367188 c 0
 172.2578125 648.18359375 181.325195312 650.451171875 189.825195312 650.451171875 c 2
 193.224609375 650.451171875 l 2
 202.858398438 650.451171875 210.791015625 648.750976562 217.024414062 645.350585938 c 0
 224.391601562 640.817382812 229.208007812 633.734375 231.474609375 624.1015625 c 0
 237.708007812 599.168945312 244.650390625 558.0859375 252.299804688 500.852539062 c 0
 259.950195312 443.619140625 267.7421875 378.02734375 275.674804688 304.077148438 c 0
 283.608398438 230.127929688 289.276367188 181.252929688 292.67578125 157.452148438 c 0
 294.942382812 142.719726562 297.4921875 123.450195312 300.325195312 99.650390625 c 1
 302.025390625 122.8828125 303.442382812 142.15234375 304.575195312 157.452148438 c 0
 309.674804688 237.919921875 315.625 310.169921875 322.424804688 374.202148438 c 0
 327.525390625 421.235351562 334.18359375 468.268554688 342.400390625 515.301757812 c 0
 350.6171875 562.334960938 357.841796875 598.6015625 364.075195312 624.1015625 c 0
 365.775390625 630.901367188 369.599609375 636.568359375 375.549804688 641.1015625 c 0
 381.5 645.634765625 387.591796875 648.467773438 393.825195312 649.600585938 c 0
 398.358398438 650.16796875 402.325195312 650.451171875 405.724609375 650.451171875 c 2
 414.224609375 650.451171875 l 1
 417.625 650.451171875 l 1
 428.674804688 650.451171875 l 2
 431.5078125 650.451171875 435.333007812 649.883789062 440.150390625 648.750976562 c 0
 444.966796875 647.618164062 448.508789062 646.059570312 450.776367188 644.077148438 c 0
 453.04296875 642.09375 455.451171875 639.119140625 458.000976562 635.151367188 c 0
 460.55078125 631.184570312 462.392578125 626.084960938 463.526367188 619.8515625 c 0
 465.79296875 602.28515625 472.451171875 517.426757812 483.500976562 365.276367188 c 0
 494.55078125 213.126953125 502.342773438 126.8515625 506.875976562 106.452148438 c 0
 508.576171875 97.384765625 509.42578125 89.16796875 509.42578125 81.80078125 c 0
 509.42578125 64.80078125 503.475585938 53.4677734375 491.576171875 47.80078125 c 0
 487.609375 46.1005859375 483.500976562 45.2509765625 479.250976562 45.2509765625 c 0
 475.000976562 45.2509765625 470.326171875 46.66796875 465.225585938 49.5009765625 c 0
 456.725585938 54.0341796875 449.92578125 64.234375 444.826171875 80.1005859375 c 0
 432.92578125 117.500976562 422.442382812 282.401367188 413.375976562 574.80078125 c 0
 412.80859375 588.967773438 412.2421875 607.100585938 411.674804688 629.201171875 c 1
 408.275390625 607.66796875 404.875 590.100585938 401.474609375 576.500976562 c 0
 385.608398438 494.333984375 375.408203125 419.534179688 370.875 352.100585938 c 0
 366.341796875 287.500976562 359.966796875 226.30078125 351.75 168.500976562 c 0
 343.533203125 110.701171875 336.875 75.5673828125 331.775390625 63.1005859375 c 0
 327.2421875 51.767578125 314.208984375 46.1005859375 292.67578125 46.1005859375 c 2
 289.276367188 46.1005859375 l 2
 281.342773438 46.1005859375 274.54296875 47.6591796875 268.875976562 50.7763671875 c 0
 263.208984375 53.892578125 259.80859375 58.28515625 258.67578125 63.9521484375 c 0
 252.442382812 91.1513671875 241.959960938 153.34375 227.2265625 250.526367188 c 0
 212.494140625 347.709960938 198.893554688 441.3515625 186.426757812 531.452148438 c 0
 183.59375 544.484375 181.043945312 561.767578125 178.776367188 583.30078125 c 1
 177.077148438 561.767578125 175.376953125 544.484375 173.676757812 531.452148438 c 0
 169.709960938 481.584960938 166.592773438 441.067382812 164.326171875 409.901367188 c 0
 162.625976562 381.000976562 160.92578125 356.350585938 159.225585938 335.951171875 c 0
 157.526367188 307.618164062 155.826171875 282.967773438 154.125976562 262.000976562 c 0
 152.42578125 238.201171875 150.442382812 213.55078125 148.17578125 188.05078125 c 0
 146.475585938 163.68359375 144.776367188 143.567382812 143.076171875 127.700195312 c 0
 141.942382812 115.799804688 141.375976562 106.450195312 141.375976562 99.650390625 c 0
 141.942382812 92.849609375 142.225585938 91.150390625 142.225585938 91.150390625 c 2
 142.225585938 76.4169921875 138.825195312 64.7998046875 132.025390625 56.2998046875 c 0
EndSplineSet
Validated: 1
EndChar

StartChar: N
Encoding: 78 78 47
Width: 548
VWidth: 901
GlyphClass: 2
Flags: HMW
HStem: 41.2517 17.85G 633.7 17G<144.774 151.574 450.775 457.858>
VStem: 103.975 53.55 110.137 49.9374 426.976 62.0491 435.901 53.124
LayerCount: 2
Fore
SplineSet
455.024414062 650.700195312 m 0xc8
 460.69140625 650.700195312 465.223632812 650.1328125 468.624023438 649 c 0
 472.024414062 647.299804688 474.57421875 645.599609375 476.274414062 643.900390625 c 0
 477.973632812 642.200195312 479.390625 638.516601562 480.524414062 632.849609375 c 0
 482.223632812 629.450195312 483.357421875 625.766601562 483.923828125 621.799804688 c 0
 484.491210938 617.833007812 485.340820312 611.599609375 486.473632812 603.099609375 c 0
 487.607421875 595.166992188 488.45703125 550.1171875 489.024414062 467.950195312 c 2
 489.024414062 432.25 l 2
 489.024414062 360.849609375 488.173828125 294.266601562 486.473632812 232.5 c 0
 484.774414062 170.166992188 482.791015625 127.666992188 480.524414062 105 c 0
 478.256835938 81.2001953125 475.990234375 66.466796875 473.723632812 60.7998046875 c 0
 469.190429688 46.6328125 456.157226562 39.5498046875 434.624023438 39.5498046875 c 1
 432.923828125 33.8828125 431.506835938 33.8828125 430.374023438 39.5498046875 c 1
 423.006835938 39.5498046875 416.774414062 41.533203125 411.673828125 45.5 c 0
 406.57421875 49.466796875 402.890625 54.849609375 400.624023438 61.650390625 c 0
 396.657226562 70.716796875 383.624023438 95.93359375 361.524414062 137.30078125 c 2
 298.624023438 261.400390625 l 2
 277.090820312 302.767578125 254.708007812 349.234375 231.474609375 400.801757812 c 0
 207.674804688 453.501953125 189.2578125 498.268554688 176.224609375 535.1015625 c 0
 169.424804688 554.934570312 162.908203125 572.78515625 156.674804688 588.651367188 c 1
 157.807617188 569.951171875 158.94140625 550.118164062 160.07421875 529.151367188 c 0
 162.907226562 480.418945312 164.32421875 433.951171875 164.32421875 389.751953125 c 0
 164.32421875 378.418945312 164.041015625 356.885742188 163.473632812 325.15234375 c 0
 162.907226562 292.852539062 161.774414062 253.469726562 160.07421875 207.002929688 c 0xd8
 158.374023438 160.53515625 157.524414062 128.518554688 157.524414062 110.951171875 c 2
 157.524414062 104.151367188 l 2
 158.090820312 100.184570312 158.374023438 96.78515625 158.374023438 93.951171875 c 2
 158.374023438 88.8515625 l 2
 158.374023438 72.4189453125 155.541015625 60.5185546875 149.874023438 53.1513671875 c 0
 144.20703125 45.21875 137.124023438 41.251953125 128.624023438 41.251953125 c 2
 126.923828125 41.251953125 l 2
 122.95703125 41.251953125 119.556640625 42.384765625 116.723632812 44.6513671875 c 0
 113.890625 46.9189453125 111.624023438 50.8857421875 109.923828125 56.552734375 c 0
 105.95703125 65.619140625 103.973632812 79.5029296875 103.973632812 98.2021484375 c 0xe0
 103.973632812 108.969726562 104.82421875 152.602539062 106.524414062 229.102539062 c 0
 108.223632812 306.168945312 109.357421875 373.319335938 109.923828125 430.552734375 c 0
 110.06640625 444.862304688 110.13671875 459.030273438 110.13671875 473.055664062 c 0
 110.13671875 515.12890625 109.499023438 555.928710938 108.223632812 595.452148438 c 2
 108.223632812 601.40234375 l 2
 108.791015625 609.90234375 110.208007812 617.552734375 112.474609375 624.352539062 c 0
 114.7421875 631.719726562 118.141601562 637.38671875 122.674804688 641.353515625 c 0
 130.607421875 647.5859375 139.673828125 650.700195312 149.874023438 650.700195312 c 0
 153.274414062 650.700195312 156.391601562 650.419921875 159.224609375 649.853515625 c 2
 160.07421875 649.853515625 l 2
 169.140625 649.853515625 176.791992188 647.8671875 183.024414062 643.900390625 c 0
 190.391601562 639.3671875 195.4921875 631.153320312 198.325195312 619.252929688 c 0
 209.658203125 581.853515625 240.2578125 511.5859375 290.125 408.453125 c 0
 339.424804688 305.88671875 382.208007812 223.153320312 418.474609375 160.252929688 c 0
 423.0078125 149.486328125 427.541015625 141.553710938 432.07421875 136.453125 c 1
 432.640625 144.953125 433.208007812 155.436523438 433.774414062 167.903320312 c 0
 434.908203125 204.169921875 435.474609375 250.919921875 435.474609375 308.153320312 c 0
 435.758789062 322.3203125 435.900390625 337.1953125 435.900390625 352.778320312 c 0xd4
 435.900390625 368.361328125 435.758789062 384.653320312 435.475585938 401.653320312 c 0
 433.775390625 504.220703125 430.942382812 571.9375 426.975585938 604.803710938 c 1
 426.975585938 609.904296875 l 2
 426.975585938 620.670898438 429.2421875 629.73828125 433.775390625 637.104492188 c 0
 439.442382812 646.171875 446.524414062 650.700195312 455.024414062 650.700195312 c 0xc8
EndSplineSet
Validated: 1
EndChar

StartChar: O
Encoding: 79 79 48
Width: 548
VWidth: 902
GlyphClass: 2
Flags: HMW
HStem: 31.6518 62.8991 601.582 60.7685
VStem: 104.824 65.4517 422.725 65.4491
LayerCount: 2
Fore
SplineSet
385.32421875 154.051757812 m 0
 396.090820312 168.78515625 404.307617188 185.501953125 409.974609375 204.202148438 c 0
 412.2421875 211.568359375 414.649414062 228.8515625 417.200195312 256.051757812 c 0
 419.75 283.251953125 421.591796875 315.268554688 422.724609375 352.1015625 c 0
 423.291992188 362.869140625 423.575195312 373.635742188 423.575195312 384.40234375 c 0
 423.575195312 411.036132812 422.44140625 437.102539062 420.174804688 462.602539062 c 0
 416.774414062 501.703125 404.024414062 534.569335938 381.924804688 561.203125 c 0
 361.524414062 587.8359375 336.307617188 601.293945312 306.274414062 601.577148438 c 0
 305.930664062 601.580078125 305.5859375 601.58203125 305.2421875 601.58203125 c 0
 275.663085938 601.58203125 250.791015625 589.538085938 230.625 565.451171875 c 0
 210.791992188 541.651367188 196.05859375 509.068359375 186.42578125 467.701171875 c 0
 175.659179688 423.500976562 170.275390625 373.068359375 170.275390625 316.401367188 c 0
 170.842773438 281.267578125 172.825195312 250.384765625 176.225585938 223.751953125 c 0
 177.92578125 207.884765625 181.325195312 192.017578125 186.42578125 176.151367188 c 0
 191.525390625 160.284179688 197.758789062 146.401367188 205.125976562 134.500976562 c 0
 211.92578125 122.600585938 220.9921875 112.967773438 232.325195312 105.600585938 c 0
 243.659179688 98.234375 256.407226562 94.55078125 270.57421875 94.55078125 c 0
 300.607421875 94.55078125 327.525390625 102.767578125 351.325195312 119.201171875 c 0
 363.79296875 127.701171875 375.124023438 139.318359375 385.32421875 154.051757812 c 0
104.82421875 273.900390625 m 2
 104.82421875 299.966796875 105.108398438 320.791992188 105.674804688 336.375 c 0
 106.2421875 351.958007812 107.375 372.783203125 109.075195312 398.850585938 c 0
 112.474609375 449.283203125 121.825195312 495.75 137.125 538.25 c 0
 151.291992188 574.517578125 175.375 604.267578125 209.375 627.5 c 0
 240.541992188 650.733398438 275.958984375 662.350585938 315.625976562 662.350585938 c 0
 335.458984375 662.350585938 354.44140625 658.100585938 372.575195312 649.600585938 c 0
 391.274414062 641.100585938 408.557617188 628.775390625 424.424804688 612.625 c 0
 440.291992188 596.475585938 453.466796875 575.791992188 463.950195312 550.575195312 c 0
 474.432617188 525.358398438 481.090820312 496.8828125 483.923828125 465.150390625 c 0
 486.756835938 430.017578125 488.173828125 394.034179688 488.173828125 357.201171875 c 0
 488.173828125 328.868164062 487.181640625 299.259765625 485.19921875 268.376953125 c 0
 483.215820312 237.494140625 479.673828125 212.418945312 474.57421875 193.151367188 c 0
 467.20703125 166.518554688 458.282226562 143.568359375 447.798828125 124.301757812 c 0
 437.31640625 105.03515625 425.982421875 89.4521484375 413.799804688 77.5517578125 c 0
 401.6171875 65.6513671875 387.591796875 56.3017578125 371.724609375 49.501953125 c 0
 356.9921875 42.7021484375 341.69140625 37.884765625 325.825195312 35.0517578125 c 0
 309.958007812 32.78515625 291.541015625 31.6513671875 270.57421875 31.6513671875 c 0
 240.541015625 31.6513671875 212.774414062 41.8515625 187.274414062 62.251953125 c 0
 160.640625 82.6513671875 140.241210938 109.8515625 126.07421875 143.8515625 c 0
 111.907226562 177.8515625 104.82421875 214.684570312 104.82421875 254.3515625 c 2
 104.82421875 258.6015625 l 1
 104.82421875 273.900390625 l 2
EndSplineSet
Validated: 1
EndChar

StartChar: P
Encoding: 80 80 49
Width: 548
VWidth: 900
GlyphClass: 2
Flags: HMW
HStem: 34.3249 17.85G<152.426 157.526 157.526 160.076> 245.975 61.1983 594.472 44.2025
VStem: 120.976 63.75 127.096 69.5291 418.475 62.05<450.824 488.222>
LayerCount: 2
Fore
SplineSet
187.275390625 586.823242188 m 1xf4
 184.725585938 516.2734375 l 2
 182.912109375 458.704101562 182.005859375 405.66796875 182.005859375 357.1640625 c 0
 182.005859375 345.033203125 182.0625 333.186523438 182.17578125 321.623046875 c 1
 188.125976562 319.922851562 l 2
 211.359375 311.422851562 237.42578125 307.172851562 266.326171875 307.172851562 c 0
 281.625976562 307.172851562 295.650390625 308.448242188 308.400390625 310.998046875 c 0
 321.150390625 313.547851562 332.342773438 316.948242188 341.975585938 321.198242188 c 0
 351.609375 325.448242188 360.109375 330.973632812 367.475585938 337.7734375 c 0
 375.409179688 344.573242188 382.208984375 351.515625 387.875976562 358.598632812 c 0
 393.54296875 365.681640625 398.359375 373.755859375 402.326171875 382.823242188 c 0
 406.293945312 391.890625 409.268554688 400.248046875 411.251953125 407.8984375 c 0
 413.234375 415.547851562 414.79296875 424.190429688 415.92578125 433.823242188 c 0
 417.05859375 443.456054688 417.766601562 451.389648438 418.049804688 457.622070312 c 0
 418.333007812 463.85546875 418.474609375 471.22265625 418.474609375 479.72265625 c 0
 418.474609375 496.72265625 415.358398438 512.1640625 409.125 526.047851562 c 0
 402.891601562 539.930664062 394.958007812 551.122070312 385.325195312 559.622070312 c 0
 376.2578125 567.555664062 366.201171875 574.213867188 355.150390625 579.596679688 c 0
 344.100585938 584.979492188 333.618164062 588.8046875 323.701171875 591.071289062 c 0
 313.784179688 593.338867188 304.0078125 594.471679688 294.375 594.471679688 c 0
 276.807617188 594.471679688 241.109375 591.922851562 187.275390625 586.823242188 c 1xf4
120.125 582.575195312 m 1
 118.9921875 578.608398438 117.575195312 580.0234375 115.875 586.823242188 c 0
 113.608398438 590.790039062 112.474609375 594.474609375 112.474609375 597.875 c 0
 113.041992188 598.44140625 113.325195312 599.291992188 113.325195312 600.424804688 c 0
 113.891601562 606.091796875 116.016601562 611.049804688 119.700195312 615.299804688 c 0
 123.3828125 619.549804688 127.208007812 622.2421875 131.174804688 623.375 c 0
 151.0078125 627.908203125 180.474609375 631.590820312 219.575195312 634.423828125 c 0
 255.275390625 637.256835938 280.208007812 638.673828125 294.375 638.673828125 c 0
 328.375 638.673828125 358.692382812 632.157226562 385.325195312 619.124023438 c 0
 414.224609375 606.090820312 437.174804688 586.541015625 454.174804688 560.473632812 c 0
 471.174804688 534.407226562 479.958007812 502.95703125 480.525390625 466.124023438 c 0
 480.525390625 435.524414062 475.567382812 406.765625 465.650390625 379.848632812 c 0
 455.733398438 352.932617188 442.1328125 329.557617188 424.849609375 309.723632812 c 0
 407.567382812 289.890625 387.025390625 274.307617188 363.224609375 262.974609375 c 0
 340.557617188 251.641601562 315.908203125 245.974609375 289.275390625 245.974609375 c 0
 249.608398438 245.974609375 217.875 248.807617188 194.075195312 254.474609375 c 1
 190.108398438 249.94140625 186.424804688 250.791992188 183.025390625 257.025390625 c 1
 185.291992188 211.69140625 188.692382812 161.541992188 193.224609375 106.575195312 c 0
 195.4921875 80.5078125 196.625 65.4912109375 196.625 61.5244140625 c 2
 196.625 60.673828125 l 2
 196.625 52.7412109375 193.224609375 46.5078125 186.424804688 41.974609375 c 0
 178.4921875 36.875 169.708984375 34.3251953125 160.076171875 34.3251953125 c 2
 157.525390625 34.3251953125 l 2
 147.326171875 34.3251953125 139.109375 37.158203125 132.875976562 42.8251953125 c 0
 128.342773438 47.3583984375 126.076171875 53.5908203125 126.076171875 61.5244140625 c 0
 126.076171875 63.2236328125 126.217773438 67.6162109375 126.500976562 74.69921875 c 0
 126.784179688 81.7822265625 126.92578125 97.7900390625 126.92578125 122.723632812 c 0
 127.0390625 128.504882812 127.095703125 135.568359375 127.095703125 143.913085938 c 0xec
 127.095703125 177.278320312 126.189453125 231.131835938 124.375976562 305.473632812 c 0
 122.67578125 366.672851562 121.826171875 408.323242188 121.826171875 430.422851562 c 0
 121.258789062 444.0234375 120.975585938 462.297851562 120.975585938 485.248046875 c 0
 120.975585938 508.198242188 121.54296875 539.790039062 122.67578125 580.0234375 c 1
 121.54296875 575.490234375 120.692382812 576.341796875 120.125 582.575195312 c 1
EndSplineSet
Validated: 1
EndChar

